G04 #@! TF.FileFunction,Legend,Bot*
%FSLAX46Y46*%
G04 Gerber Fmt 4.6, Leading zero omitted, Abs format (unit mm)*
G04 Created by KiCad (PCBNEW 4.0.7) date 05/28/18 23:31:17*
%MOMM*%
%LPD*%
G01*
G04 APERTURE LIST*
%ADD10C,0.100000*%
%ADD11C,0.150000*%
%ADD12C,0.200000*%
%ADD13C,0.010000*%
%ADD14C,0.120000*%
G04 APERTURE END LIST*
D10*
D11*
X129211428Y-67885714D02*
X128911428Y-67885714D01*
X128782857Y-68357143D02*
X129211428Y-68357143D01*
X129211428Y-67457143D01*
X128782857Y-67457143D01*
X128397142Y-68357143D02*
X128397142Y-67457143D01*
X128097142Y-68100000D01*
X127797142Y-67457143D01*
X127797142Y-68357143D01*
X127368571Y-67885714D02*
X127068571Y-67885714D01*
X126940000Y-68357143D02*
X127368571Y-68357143D01*
X127368571Y-67457143D01*
X126940000Y-67457143D01*
X126082857Y-68357143D02*
X126597142Y-68357143D01*
X126340000Y-68357143D02*
X126340000Y-67457143D01*
X126425714Y-67585714D01*
X126511428Y-67671429D01*
X126597142Y-67714286D01*
X125568571Y-67842857D02*
X125654285Y-67800000D01*
X125697142Y-67757143D01*
X125739999Y-67671429D01*
X125739999Y-67628571D01*
X125697142Y-67542857D01*
X125654285Y-67500000D01*
X125568571Y-67457143D01*
X125397142Y-67457143D01*
X125311428Y-67500000D01*
X125268571Y-67542857D01*
X125225714Y-67628571D01*
X125225714Y-67671429D01*
X125268571Y-67757143D01*
X125311428Y-67800000D01*
X125397142Y-67842857D01*
X125568571Y-67842857D01*
X125654285Y-67885714D01*
X125697142Y-67928571D01*
X125739999Y-68014286D01*
X125739999Y-68185714D01*
X125697142Y-68271429D01*
X125654285Y-68314286D01*
X125568571Y-68357143D01*
X125397142Y-68357143D01*
X125311428Y-68314286D01*
X125268571Y-68271429D01*
X125225714Y-68185714D01*
X125225714Y-68014286D01*
X125268571Y-67928571D01*
X125311428Y-67885714D01*
X125397142Y-67842857D01*
X124154285Y-68014286D02*
X123468571Y-68014286D01*
X122354285Y-67885714D02*
X122054285Y-67885714D01*
X121925714Y-68357143D02*
X122354285Y-68357143D01*
X122354285Y-67457143D01*
X121925714Y-67457143D01*
X134182858Y-65457143D02*
X134182858Y-66185714D01*
X134140001Y-66271429D01*
X134097144Y-66314286D01*
X134011430Y-66357143D01*
X133840001Y-66357143D01*
X133754287Y-66314286D01*
X133711430Y-66271429D01*
X133668573Y-66185714D01*
X133668573Y-65457143D01*
X133240001Y-66357143D02*
X133240001Y-65457143D01*
X132897144Y-65457143D01*
X132811430Y-65500000D01*
X132768573Y-65542857D01*
X132725716Y-65628571D01*
X132725716Y-65757143D01*
X132768573Y-65842857D01*
X132811430Y-65885714D01*
X132897144Y-65928571D01*
X133240001Y-65928571D01*
X132340001Y-66357143D02*
X132340001Y-65457143D01*
X132040001Y-66100000D01*
X131740001Y-65457143D01*
X131740001Y-66357143D01*
X130625716Y-66357143D02*
X130625716Y-65457143D01*
X130325716Y-66100000D01*
X130025716Y-65457143D01*
X130025716Y-66357143D01*
X129468574Y-66357143D02*
X129554288Y-66314286D01*
X129597145Y-66271429D01*
X129640002Y-66185714D01*
X129640002Y-65928571D01*
X129597145Y-65842857D01*
X129554288Y-65800000D01*
X129468574Y-65757143D01*
X129340002Y-65757143D01*
X129254288Y-65800000D01*
X129211431Y-65842857D01*
X129168574Y-65928571D01*
X129168574Y-66185714D01*
X129211431Y-66271429D01*
X129254288Y-66314286D01*
X129340002Y-66357143D01*
X129468574Y-66357143D01*
X128911431Y-65757143D02*
X128568574Y-65757143D01*
X128782859Y-65457143D02*
X128782859Y-66228571D01*
X128740002Y-66314286D01*
X128654288Y-66357143D01*
X128568574Y-66357143D01*
X128140002Y-66357143D02*
X128225716Y-66314286D01*
X128268573Y-66271429D01*
X128311430Y-66185714D01*
X128311430Y-65928571D01*
X128268573Y-65842857D01*
X128225716Y-65800000D01*
X128140002Y-65757143D01*
X128011430Y-65757143D01*
X127925716Y-65800000D01*
X127882859Y-65842857D01*
X127840002Y-65928571D01*
X127840002Y-66185714D01*
X127882859Y-66271429D01*
X127925716Y-66314286D01*
X128011430Y-66357143D01*
X128140002Y-66357143D01*
X127497144Y-66314286D02*
X127368573Y-66357143D01*
X127154287Y-66357143D01*
X127068573Y-66314286D01*
X127025716Y-66271429D01*
X126982859Y-66185714D01*
X126982859Y-66100000D01*
X127025716Y-66014286D01*
X127068573Y-65971429D01*
X127154287Y-65928571D01*
X127325716Y-65885714D01*
X127411430Y-65842857D01*
X127454287Y-65800000D01*
X127497144Y-65714286D01*
X127497144Y-65628571D01*
X127454287Y-65542857D01*
X127411430Y-65500000D01*
X127325716Y-65457143D01*
X127111430Y-65457143D01*
X126982859Y-65500000D01*
X126725716Y-65757143D02*
X126382859Y-65757143D01*
X126597144Y-65457143D02*
X126597144Y-66228571D01*
X126554287Y-66314286D01*
X126468573Y-66357143D01*
X126382859Y-66357143D01*
X125697144Y-65757143D02*
X125697144Y-66357143D01*
X126082858Y-65757143D02*
X126082858Y-66228571D01*
X126040001Y-66314286D01*
X125954287Y-66357143D01*
X125825715Y-66357143D01*
X125740001Y-66314286D01*
X125697144Y-66271429D01*
X124882858Y-66357143D02*
X124882858Y-65457143D01*
X124882858Y-66314286D02*
X124968572Y-66357143D01*
X125140001Y-66357143D01*
X125225715Y-66314286D01*
X125268572Y-66271429D01*
X125311429Y-66185714D01*
X125311429Y-65928571D01*
X125268572Y-65842857D01*
X125225715Y-65800000D01*
X125140001Y-65757143D01*
X124968572Y-65757143D01*
X124882858Y-65800000D01*
X124111429Y-66314286D02*
X124197143Y-66357143D01*
X124368572Y-66357143D01*
X124454286Y-66314286D01*
X124497143Y-66228571D01*
X124497143Y-65885714D01*
X124454286Y-65800000D01*
X124368572Y-65757143D01*
X124197143Y-65757143D01*
X124111429Y-65800000D01*
X124068572Y-65885714D01*
X124068572Y-65971429D01*
X124497143Y-66057143D01*
X123682857Y-65757143D02*
X123682857Y-66357143D01*
X123682857Y-65842857D02*
X123640000Y-65800000D01*
X123554286Y-65757143D01*
X123425714Y-65757143D01*
X123340000Y-65800000D01*
X123297143Y-65885714D01*
X123297143Y-66357143D01*
X122997143Y-65757143D02*
X122654286Y-65757143D01*
X122868571Y-65457143D02*
X122868571Y-66228571D01*
X122825714Y-66314286D01*
X122740000Y-66357143D01*
X122654286Y-66357143D01*
X121668571Y-65885714D02*
X121368571Y-65885714D01*
X121240000Y-66357143D02*
X121668571Y-66357143D01*
X121668571Y-65457143D01*
X121240000Y-65457143D01*
X120725714Y-66357143D02*
X120811428Y-66314286D01*
X120854285Y-66228571D01*
X120854285Y-65457143D01*
X120039999Y-66314286D02*
X120125713Y-66357143D01*
X120297142Y-66357143D01*
X120382856Y-66314286D01*
X120425713Y-66228571D01*
X120425713Y-65885714D01*
X120382856Y-65800000D01*
X120297142Y-65757143D01*
X120125713Y-65757143D01*
X120039999Y-65800000D01*
X119997142Y-65885714D01*
X119997142Y-65971429D01*
X120425713Y-66057143D01*
X119225713Y-66314286D02*
X119311427Y-66357143D01*
X119482856Y-66357143D01*
X119568570Y-66314286D01*
X119611427Y-66271429D01*
X119654284Y-66185714D01*
X119654284Y-65928571D01*
X119611427Y-65842857D01*
X119568570Y-65800000D01*
X119482856Y-65757143D01*
X119311427Y-65757143D01*
X119225713Y-65800000D01*
X118968570Y-65757143D02*
X118625713Y-65757143D01*
X118839998Y-65457143D02*
X118839998Y-66228571D01*
X118797141Y-66314286D01*
X118711427Y-66357143D01*
X118625713Y-66357143D01*
X118325712Y-66357143D02*
X118325712Y-65757143D01*
X118325712Y-65928571D02*
X118282855Y-65842857D01*
X118239998Y-65800000D01*
X118154284Y-65757143D01*
X118068569Y-65757143D01*
X117768569Y-66357143D02*
X117768569Y-65757143D01*
X117768569Y-65457143D02*
X117811426Y-65500000D01*
X117768569Y-65542857D01*
X117725712Y-65500000D01*
X117768569Y-65457143D01*
X117768569Y-65542857D01*
X116954284Y-66314286D02*
X117039998Y-66357143D01*
X117211427Y-66357143D01*
X117297141Y-66314286D01*
X117339998Y-66271429D01*
X117382855Y-66185714D01*
X117382855Y-65928571D01*
X117339998Y-65842857D01*
X117297141Y-65800000D01*
X117211427Y-65757143D01*
X117039998Y-65757143D01*
X116954284Y-65800000D01*
X178885714Y-118107143D02*
X178885714Y-118278571D01*
X178542857Y-118107143D02*
X178542857Y-118278571D01*
X178157143Y-119007143D02*
X178157143Y-118107143D01*
X177857143Y-118750000D01*
X177557143Y-118107143D01*
X177557143Y-119007143D01*
X176785715Y-118964286D02*
X176871429Y-119007143D01*
X177042858Y-119007143D01*
X177128572Y-118964286D01*
X177171429Y-118878571D01*
X177171429Y-118535714D01*
X177128572Y-118450000D01*
X177042858Y-118407143D01*
X176871429Y-118407143D01*
X176785715Y-118450000D01*
X176742858Y-118535714D01*
X176742858Y-118621429D01*
X177171429Y-118707143D01*
X175757144Y-118407143D02*
X175542858Y-119007143D01*
X175328572Y-118407143D01*
X174600001Y-119007143D02*
X174600001Y-118535714D01*
X174642858Y-118450000D01*
X174728572Y-118407143D01*
X174900001Y-118407143D01*
X174985715Y-118450000D01*
X174600001Y-118964286D02*
X174685715Y-119007143D01*
X174900001Y-119007143D01*
X174985715Y-118964286D01*
X175028572Y-118878571D01*
X175028572Y-118792857D01*
X174985715Y-118707143D01*
X174900001Y-118664286D01*
X174685715Y-118664286D01*
X174600001Y-118621429D01*
X174171429Y-118407143D02*
X174171429Y-119007143D01*
X174171429Y-118492857D02*
X174128572Y-118450000D01*
X174042858Y-118407143D01*
X173914286Y-118407143D01*
X173828572Y-118450000D01*
X173785715Y-118535714D01*
X173785715Y-119007143D01*
X172285715Y-119007143D02*
X172285715Y-118535714D01*
X172328572Y-118450000D01*
X172414286Y-118407143D01*
X172585715Y-118407143D01*
X172671429Y-118450000D01*
X172285715Y-118964286D02*
X172371429Y-119007143D01*
X172585715Y-119007143D01*
X172671429Y-118964286D01*
X172714286Y-118878571D01*
X172714286Y-118792857D01*
X172671429Y-118707143D01*
X172585715Y-118664286D01*
X172371429Y-118664286D01*
X172285715Y-118621429D01*
X171171429Y-118407143D02*
X171171429Y-119307143D01*
X171171429Y-118450000D02*
X171085715Y-118407143D01*
X170914286Y-118407143D01*
X170828572Y-118450000D01*
X170785715Y-118492857D01*
X170742858Y-118578571D01*
X170742858Y-118835714D01*
X170785715Y-118921429D01*
X170828572Y-118964286D01*
X170914286Y-119007143D01*
X171085715Y-119007143D01*
X171171429Y-118964286D01*
X169971429Y-118407143D02*
X169971429Y-119007143D01*
X170357143Y-118407143D02*
X170357143Y-118878571D01*
X170314286Y-118964286D01*
X170228572Y-119007143D01*
X170100000Y-119007143D01*
X170014286Y-118964286D01*
X169971429Y-118921429D01*
X169200000Y-118964286D02*
X169285714Y-119007143D01*
X169457143Y-119007143D01*
X169542857Y-118964286D01*
X169585714Y-118878571D01*
X169585714Y-118535714D01*
X169542857Y-118450000D01*
X169457143Y-118407143D01*
X169285714Y-118407143D01*
X169200000Y-118450000D01*
X169157143Y-118535714D01*
X169157143Y-118621429D01*
X169585714Y-118707143D01*
X168771428Y-118407143D02*
X168771428Y-119007143D01*
X168771428Y-118492857D02*
X168728571Y-118450000D01*
X168642857Y-118407143D01*
X168514285Y-118407143D01*
X168428571Y-118450000D01*
X168385714Y-118535714D01*
X168385714Y-119007143D01*
X168085714Y-118407143D02*
X167742857Y-118407143D01*
X167957142Y-118107143D02*
X167957142Y-118878571D01*
X167914285Y-118964286D01*
X167828571Y-119007143D01*
X167742857Y-119007143D01*
X167099999Y-118964286D02*
X167185713Y-119007143D01*
X167357142Y-119007143D01*
X167442856Y-118964286D01*
X167485713Y-118878571D01*
X167485713Y-118535714D01*
X167442856Y-118450000D01*
X167357142Y-118407143D01*
X167185713Y-118407143D01*
X167099999Y-118450000D01*
X167057142Y-118535714D01*
X167057142Y-118621429D01*
X167485713Y-118707143D01*
X166285713Y-119007143D02*
X166285713Y-118535714D01*
X166328570Y-118450000D01*
X166414284Y-118407143D01*
X166585713Y-118407143D01*
X166671427Y-118450000D01*
X166285713Y-118964286D02*
X166371427Y-119007143D01*
X166585713Y-119007143D01*
X166671427Y-118964286D01*
X166714284Y-118878571D01*
X166714284Y-118792857D01*
X166671427Y-118707143D01*
X166585713Y-118664286D01*
X166371427Y-118664286D01*
X166285713Y-118621429D01*
X165857141Y-119007143D02*
X165857141Y-118407143D01*
X165857141Y-118578571D02*
X165814284Y-118492857D01*
X165771427Y-118450000D01*
X165685713Y-118407143D01*
X165599998Y-118407143D01*
X164699999Y-118407143D02*
X164485713Y-119007143D01*
X164271427Y-118407143D02*
X164485713Y-119007143D01*
X164571427Y-119221429D01*
X164614284Y-119264286D01*
X164699999Y-119307143D01*
X163114285Y-119007143D02*
X163199999Y-118964286D01*
X163242856Y-118878571D01*
X163242856Y-118107143D01*
X162642856Y-119007143D02*
X162728570Y-118964286D01*
X162771427Y-118921429D01*
X162814284Y-118835714D01*
X162814284Y-118578571D01*
X162771427Y-118492857D01*
X162728570Y-118450000D01*
X162642856Y-118407143D01*
X162514284Y-118407143D01*
X162428570Y-118450000D01*
X162385713Y-118492857D01*
X162342856Y-118578571D01*
X162342856Y-118835714D01*
X162385713Y-118921429D01*
X162428570Y-118964286D01*
X162514284Y-119007143D01*
X162642856Y-119007143D01*
X161314284Y-118964286D02*
X161228570Y-119007143D01*
X161057142Y-119007143D01*
X160971427Y-118964286D01*
X160928570Y-118878571D01*
X160928570Y-118835714D01*
X160971427Y-118750000D01*
X161057142Y-118707143D01*
X161185713Y-118707143D01*
X161271427Y-118664286D01*
X161314284Y-118578571D01*
X161314284Y-118535714D01*
X161271427Y-118450000D01*
X161185713Y-118407143D01*
X161057142Y-118407143D01*
X160971427Y-118450000D01*
X160157142Y-119007143D02*
X160157142Y-118535714D01*
X160199999Y-118450000D01*
X160285713Y-118407143D01*
X160457142Y-118407143D01*
X160542856Y-118450000D01*
X160157142Y-118964286D02*
X160242856Y-119007143D01*
X160457142Y-119007143D01*
X160542856Y-118964286D01*
X160585713Y-118878571D01*
X160585713Y-118792857D01*
X160542856Y-118707143D01*
X160457142Y-118664286D01*
X160242856Y-118664286D01*
X160157142Y-118621429D01*
X159728570Y-119007143D02*
X159728570Y-118107143D01*
X159728570Y-118450000D02*
X159642856Y-118407143D01*
X159471427Y-118407143D01*
X159385713Y-118450000D01*
X159342856Y-118492857D01*
X159299999Y-118578571D01*
X159299999Y-118835714D01*
X159342856Y-118921429D01*
X159385713Y-118964286D01*
X159471427Y-119007143D01*
X159642856Y-119007143D01*
X159728570Y-118964286D01*
X158571427Y-118964286D02*
X158657141Y-119007143D01*
X158828570Y-119007143D01*
X158914284Y-118964286D01*
X158957141Y-118878571D01*
X158957141Y-118535714D01*
X158914284Y-118450000D01*
X158828570Y-118407143D01*
X158657141Y-118407143D01*
X158571427Y-118450000D01*
X158528570Y-118535714D01*
X158528570Y-118621429D01*
X158957141Y-118707143D01*
X158185712Y-118964286D02*
X158099998Y-119007143D01*
X157928570Y-119007143D01*
X157842855Y-118964286D01*
X157799998Y-118878571D01*
X157799998Y-118835714D01*
X157842855Y-118750000D01*
X157928570Y-118707143D01*
X158057141Y-118707143D01*
X158142855Y-118664286D01*
X158185712Y-118578571D01*
X158185712Y-118535714D01*
X158142855Y-118450000D01*
X158057141Y-118407143D01*
X157928570Y-118407143D01*
X157842855Y-118450000D01*
X157457141Y-118107143D02*
X157457141Y-118278571D01*
X157114284Y-118107143D02*
X157114284Y-118278571D01*
X182100000Y-65507143D02*
X182100000Y-65678571D01*
X181757143Y-65507143D02*
X181757143Y-65678571D01*
X181414286Y-66364286D02*
X181285715Y-66407143D01*
X181071429Y-66407143D01*
X180985715Y-66364286D01*
X180942858Y-66321429D01*
X180900001Y-66235714D01*
X180900001Y-66150000D01*
X180942858Y-66064286D01*
X180985715Y-66021429D01*
X181071429Y-65978571D01*
X181242858Y-65935714D01*
X181328572Y-65892857D01*
X181371429Y-65850000D01*
X181414286Y-65764286D01*
X181414286Y-65678571D01*
X181371429Y-65592857D01*
X181328572Y-65550000D01*
X181242858Y-65507143D01*
X181028572Y-65507143D01*
X180900001Y-65550000D01*
X180514286Y-66407143D02*
X180514286Y-65807143D01*
X180514286Y-65507143D02*
X180557143Y-65550000D01*
X180514286Y-65592857D01*
X180471429Y-65550000D01*
X180514286Y-65507143D01*
X180514286Y-65592857D01*
X179271430Y-66407143D02*
X179357144Y-66364286D01*
X179400001Y-66278571D01*
X179400001Y-65507143D01*
X178542858Y-66407143D02*
X178542858Y-65935714D01*
X178585715Y-65850000D01*
X178671429Y-65807143D01*
X178842858Y-65807143D01*
X178928572Y-65850000D01*
X178542858Y-66364286D02*
X178628572Y-66407143D01*
X178842858Y-66407143D01*
X178928572Y-66364286D01*
X178971429Y-66278571D01*
X178971429Y-66192857D01*
X178928572Y-66107143D01*
X178842858Y-66064286D01*
X178628572Y-66064286D01*
X178542858Y-66021429D01*
X177300001Y-66407143D02*
X177385715Y-66364286D01*
X177428572Y-66278571D01*
X177428572Y-65507143D01*
X176957143Y-66407143D02*
X176957143Y-65807143D01*
X176957143Y-65507143D02*
X177000000Y-65550000D01*
X176957143Y-65592857D01*
X176914286Y-65550000D01*
X176957143Y-65507143D01*
X176957143Y-65592857D01*
X176142858Y-66407143D02*
X176142858Y-65935714D01*
X176185715Y-65850000D01*
X176271429Y-65807143D01*
X176442858Y-65807143D01*
X176528572Y-65850000D01*
X176142858Y-66364286D02*
X176228572Y-66407143D01*
X176442858Y-66407143D01*
X176528572Y-66364286D01*
X176571429Y-66278571D01*
X176571429Y-66192857D01*
X176528572Y-66107143D01*
X176442858Y-66064286D01*
X176228572Y-66064286D01*
X176142858Y-66021429D01*
X175757143Y-66364286D02*
X175671429Y-66407143D01*
X175500001Y-66407143D01*
X175414286Y-66364286D01*
X175371429Y-66278571D01*
X175371429Y-66235714D01*
X175414286Y-66150000D01*
X175500001Y-66107143D01*
X175628572Y-66107143D01*
X175714286Y-66064286D01*
X175757143Y-65978571D01*
X175757143Y-65935714D01*
X175714286Y-65850000D01*
X175628572Y-65807143D01*
X175500001Y-65807143D01*
X175414286Y-65850000D01*
X173957144Y-66364286D02*
X174042858Y-66407143D01*
X174214287Y-66407143D01*
X174300001Y-66364286D01*
X174342858Y-66278571D01*
X174342858Y-65935714D01*
X174300001Y-65850000D01*
X174214287Y-65807143D01*
X174042858Y-65807143D01*
X173957144Y-65850000D01*
X173914287Y-65935714D01*
X173914287Y-66021429D01*
X174342858Y-66107143D01*
X173571429Y-66364286D02*
X173485715Y-66407143D01*
X173314287Y-66407143D01*
X173228572Y-66364286D01*
X173185715Y-66278571D01*
X173185715Y-66235714D01*
X173228572Y-66150000D01*
X173314287Y-66107143D01*
X173442858Y-66107143D01*
X173528572Y-66064286D01*
X173571429Y-65978571D01*
X173571429Y-65935714D01*
X173528572Y-65850000D01*
X173442858Y-65807143D01*
X173314287Y-65807143D01*
X173228572Y-65850000D01*
X171728573Y-65807143D02*
X171728573Y-66707143D01*
X171728573Y-66364286D02*
X171814287Y-66407143D01*
X171985716Y-66407143D01*
X172071430Y-66364286D01*
X172114287Y-66321429D01*
X172157144Y-66235714D01*
X172157144Y-65978571D01*
X172114287Y-65892857D01*
X172071430Y-65850000D01*
X171985716Y-65807143D01*
X171814287Y-65807143D01*
X171728573Y-65850000D01*
X170914287Y-65807143D02*
X170914287Y-66407143D01*
X171300001Y-65807143D02*
X171300001Y-66278571D01*
X171257144Y-66364286D01*
X171171430Y-66407143D01*
X171042858Y-66407143D01*
X170957144Y-66364286D01*
X170914287Y-66321429D01*
X170142858Y-66364286D02*
X170228572Y-66407143D01*
X170400001Y-66407143D01*
X170485715Y-66364286D01*
X170528572Y-66278571D01*
X170528572Y-65935714D01*
X170485715Y-65850000D01*
X170400001Y-65807143D01*
X170228572Y-65807143D01*
X170142858Y-65850000D01*
X170100001Y-65935714D01*
X170100001Y-66021429D01*
X170528572Y-66107143D01*
X168685715Y-66364286D02*
X168771429Y-66407143D01*
X168942858Y-66407143D01*
X169028572Y-66364286D01*
X169071429Y-66278571D01*
X169071429Y-65935714D01*
X169028572Y-65850000D01*
X168942858Y-65807143D01*
X168771429Y-65807143D01*
X168685715Y-65850000D01*
X168642858Y-65935714D01*
X168642858Y-66021429D01*
X169071429Y-66107143D01*
X168300000Y-66364286D02*
X168214286Y-66407143D01*
X168042858Y-66407143D01*
X167957143Y-66364286D01*
X167914286Y-66278571D01*
X167914286Y-66235714D01*
X167957143Y-66150000D01*
X168042858Y-66107143D01*
X168171429Y-66107143D01*
X168257143Y-66064286D01*
X168300000Y-65978571D01*
X168300000Y-65935714D01*
X168257143Y-65850000D01*
X168171429Y-65807143D01*
X168042858Y-65807143D01*
X167957143Y-65850000D01*
X167657144Y-65807143D02*
X167314287Y-65807143D01*
X167528572Y-65507143D02*
X167528572Y-66278571D01*
X167485715Y-66364286D01*
X167400001Y-66407143D01*
X167314287Y-66407143D01*
X166628572Y-66407143D02*
X166628572Y-65935714D01*
X166671429Y-65850000D01*
X166757143Y-65807143D01*
X166928572Y-65807143D01*
X167014286Y-65850000D01*
X166628572Y-66364286D02*
X166714286Y-66407143D01*
X166928572Y-66407143D01*
X167014286Y-66364286D01*
X167057143Y-66278571D01*
X167057143Y-66192857D01*
X167014286Y-66107143D01*
X166928572Y-66064286D01*
X166714286Y-66064286D01*
X166628572Y-66021429D01*
X166757143Y-65464286D02*
X166885715Y-65592857D01*
X166242857Y-66364286D02*
X166157143Y-66407143D01*
X165985715Y-66407143D01*
X165900000Y-66364286D01*
X165857143Y-66278571D01*
X165857143Y-66235714D01*
X165900000Y-66150000D01*
X165985715Y-66107143D01*
X166114286Y-66107143D01*
X166200000Y-66064286D01*
X166242857Y-65978571D01*
X166242857Y-65935714D01*
X166200000Y-65850000D01*
X166114286Y-65807143D01*
X165985715Y-65807143D01*
X165900000Y-65850000D01*
X164785715Y-66407143D02*
X164785715Y-65507143D01*
X164400001Y-66407143D02*
X164400001Y-65935714D01*
X164442858Y-65850000D01*
X164528572Y-65807143D01*
X164657144Y-65807143D01*
X164742858Y-65850000D01*
X164785715Y-65892857D01*
X163585715Y-66407143D02*
X163585715Y-65935714D01*
X163628572Y-65850000D01*
X163714286Y-65807143D01*
X163885715Y-65807143D01*
X163971429Y-65850000D01*
X163585715Y-66364286D02*
X163671429Y-66407143D01*
X163885715Y-66407143D01*
X163971429Y-66364286D01*
X164014286Y-66278571D01*
X164014286Y-66192857D01*
X163971429Y-66107143D01*
X163885715Y-66064286D01*
X163671429Y-66064286D01*
X163585715Y-66021429D01*
X162771429Y-66364286D02*
X162857143Y-66407143D01*
X163028572Y-66407143D01*
X163114286Y-66364286D01*
X163157143Y-66321429D01*
X163200000Y-66235714D01*
X163200000Y-65978571D01*
X163157143Y-65892857D01*
X163114286Y-65850000D01*
X163028572Y-65807143D01*
X162857143Y-65807143D01*
X162771429Y-65850000D01*
X162385714Y-66407143D02*
X162385714Y-65807143D01*
X162385714Y-65507143D02*
X162428571Y-65550000D01*
X162385714Y-65592857D01*
X162342857Y-65550000D01*
X162385714Y-65507143D01*
X162385714Y-65592857D01*
X161614286Y-66364286D02*
X161700000Y-66407143D01*
X161871429Y-66407143D01*
X161957143Y-66364286D01*
X162000000Y-66278571D01*
X162000000Y-65935714D01*
X161957143Y-65850000D01*
X161871429Y-65807143D01*
X161700000Y-65807143D01*
X161614286Y-65850000D01*
X161571429Y-65935714D01*
X161571429Y-66021429D01*
X162000000Y-66107143D01*
X161185714Y-65807143D02*
X161185714Y-66407143D01*
X161185714Y-65892857D02*
X161142857Y-65850000D01*
X161057143Y-65807143D01*
X160928571Y-65807143D01*
X160842857Y-65850000D01*
X160800000Y-65935714D01*
X160800000Y-66407143D01*
X159985714Y-66407143D02*
X159985714Y-65507143D01*
X159985714Y-66364286D02*
X160071428Y-66407143D01*
X160242857Y-66407143D01*
X160328571Y-66364286D01*
X160371428Y-66321429D01*
X160414285Y-66235714D01*
X160414285Y-65978571D01*
X160371428Y-65892857D01*
X160328571Y-65850000D01*
X160242857Y-65807143D01*
X160071428Y-65807143D01*
X159985714Y-65850000D01*
X159428571Y-66407143D02*
X159514285Y-66364286D01*
X159557142Y-66321429D01*
X159599999Y-66235714D01*
X159599999Y-65978571D01*
X159557142Y-65892857D01*
X159514285Y-65850000D01*
X159428571Y-65807143D01*
X159299999Y-65807143D01*
X159214285Y-65850000D01*
X159171428Y-65892857D01*
X159128571Y-65978571D01*
X159128571Y-66235714D01*
X159171428Y-66321429D01*
X159214285Y-66364286D01*
X159299999Y-66407143D01*
X159428571Y-66407143D01*
X157671428Y-66364286D02*
X157757142Y-66407143D01*
X157928571Y-66407143D01*
X158014285Y-66364286D01*
X158057142Y-66321429D01*
X158099999Y-66235714D01*
X158099999Y-65978571D01*
X158057142Y-65892857D01*
X158014285Y-65850000D01*
X157928571Y-65807143D01*
X157757142Y-65807143D01*
X157671428Y-65850000D01*
X157157142Y-66407143D02*
X157242856Y-66364286D01*
X157285713Y-66321429D01*
X157328570Y-66235714D01*
X157328570Y-65978571D01*
X157285713Y-65892857D01*
X157242856Y-65850000D01*
X157157142Y-65807143D01*
X157028570Y-65807143D01*
X156942856Y-65850000D01*
X156899999Y-65892857D01*
X156857142Y-65978571D01*
X156857142Y-66235714D01*
X156899999Y-66321429D01*
X156942856Y-66364286D01*
X157028570Y-66407143D01*
X157157142Y-66407143D01*
X156514284Y-66364286D02*
X156428570Y-66407143D01*
X156257142Y-66407143D01*
X156171427Y-66364286D01*
X156128570Y-66278571D01*
X156128570Y-66235714D01*
X156171427Y-66150000D01*
X156257142Y-66107143D01*
X156385713Y-66107143D01*
X156471427Y-66064286D01*
X156514284Y-65978571D01*
X156514284Y-65935714D01*
X156471427Y-65850000D01*
X156385713Y-65807143D01*
X156257142Y-65807143D01*
X156171427Y-65850000D01*
X155357142Y-66407143D02*
X155357142Y-65935714D01*
X155399999Y-65850000D01*
X155485713Y-65807143D01*
X155657142Y-65807143D01*
X155742856Y-65850000D01*
X155357142Y-66364286D02*
X155442856Y-66407143D01*
X155657142Y-66407143D01*
X155742856Y-66364286D01*
X155785713Y-66278571D01*
X155785713Y-66192857D01*
X155742856Y-66107143D01*
X155657142Y-66064286D01*
X155442856Y-66064286D01*
X155357142Y-66021429D01*
X154971427Y-66364286D02*
X154885713Y-66407143D01*
X154714285Y-66407143D01*
X154628570Y-66364286D01*
X154585713Y-66278571D01*
X154585713Y-66235714D01*
X154628570Y-66150000D01*
X154714285Y-66107143D01*
X154842856Y-66107143D01*
X154928570Y-66064286D01*
X154971427Y-65978571D01*
X154971427Y-65935714D01*
X154928570Y-65850000D01*
X154842856Y-65807143D01*
X154714285Y-65807143D01*
X154628570Y-65850000D01*
X154242856Y-65507143D02*
X154242856Y-65678571D01*
X153899999Y-65507143D02*
X153899999Y-65678571D01*
D12*
X104070000Y-98530000D02*
X104250000Y-98530000D01*
D10*
X107685237Y-87491905D02*
X107970951Y-87491905D01*
X107828094Y-87491905D02*
X107828094Y-86691905D01*
X107875713Y-86806190D01*
X107923332Y-86882381D01*
X107970951Y-86920476D01*
X107375713Y-86691905D02*
X107328094Y-86691905D01*
X107280475Y-86730000D01*
X107256666Y-86768095D01*
X107232856Y-86844286D01*
X107209047Y-86996667D01*
X107209047Y-87187143D01*
X107232856Y-87339524D01*
X107256666Y-87415714D01*
X107280475Y-87453810D01*
X107328094Y-87491905D01*
X107375713Y-87491905D01*
X107423332Y-87453810D01*
X107447142Y-87415714D01*
X107470951Y-87339524D01*
X107494761Y-87187143D01*
X107494761Y-86996667D01*
X107470951Y-86844286D01*
X107447142Y-86768095D01*
X107423332Y-86730000D01*
X107375713Y-86691905D01*
X106994761Y-87415714D02*
X106970952Y-87453810D01*
X106994761Y-87491905D01*
X107018571Y-87453810D01*
X106994761Y-87415714D01*
X106994761Y-87491905D01*
X106447143Y-86691905D02*
X106280476Y-87491905D01*
X106113810Y-86691905D01*
X105970953Y-87453810D02*
X105899524Y-87491905D01*
X105780477Y-87491905D01*
X105732858Y-87453810D01*
X105709048Y-87415714D01*
X105685239Y-87339524D01*
X105685239Y-87263333D01*
X105709048Y-87187143D01*
X105732858Y-87149048D01*
X105780477Y-87110952D01*
X105875715Y-87072857D01*
X105923334Y-87034762D01*
X105947143Y-86996667D01*
X105970953Y-86920476D01*
X105970953Y-86844286D01*
X105947143Y-86768095D01*
X105923334Y-86730000D01*
X105875715Y-86691905D01*
X105756667Y-86691905D01*
X105685239Y-86730000D01*
X105494763Y-87453810D02*
X105423334Y-87491905D01*
X105304287Y-87491905D01*
X105256668Y-87453810D01*
X105232858Y-87415714D01*
X105209049Y-87339524D01*
X105209049Y-87263333D01*
X105232858Y-87187143D01*
X105256668Y-87149048D01*
X105304287Y-87110952D01*
X105399525Y-87072857D01*
X105447144Y-87034762D01*
X105470953Y-86996667D01*
X105494763Y-86920476D01*
X105494763Y-86844286D01*
X105470953Y-86768095D01*
X105447144Y-86730000D01*
X105399525Y-86691905D01*
X105280477Y-86691905D01*
X105209049Y-86730000D01*
X112236666Y-87491905D02*
X112141428Y-87491905D01*
X112093809Y-87453810D01*
X112069999Y-87415714D01*
X112022380Y-87301429D01*
X111998571Y-87149048D01*
X111998571Y-86844286D01*
X112022380Y-86768095D01*
X112046190Y-86730000D01*
X112093809Y-86691905D01*
X112189047Y-86691905D01*
X112236666Y-86730000D01*
X112260475Y-86768095D01*
X112284285Y-86844286D01*
X112284285Y-87034762D01*
X112260475Y-87110952D01*
X112236666Y-87149048D01*
X112189047Y-87187143D01*
X112093809Y-87187143D01*
X112046190Y-87149048D01*
X112022380Y-87110952D01*
X111998571Y-87034762D01*
X111784285Y-87415714D02*
X111760476Y-87453810D01*
X111784285Y-87491905D01*
X111808095Y-87453810D01*
X111784285Y-87415714D01*
X111784285Y-87491905D01*
X111236667Y-86691905D02*
X110950953Y-86691905D01*
X111093810Y-87491905D02*
X111093810Y-86691905D01*
X110784286Y-87072857D02*
X110617620Y-87072857D01*
X110546191Y-87491905D02*
X110784286Y-87491905D01*
X110784286Y-86691905D01*
X110546191Y-86691905D01*
X110331905Y-87491905D02*
X110331905Y-86691905D01*
X110165239Y-87263333D01*
X109998572Y-86691905D01*
X109998572Y-87491905D01*
X109760476Y-87491905D02*
X109760476Y-86691905D01*
X109570000Y-86691905D01*
X109522381Y-86730000D01*
X109498572Y-86768095D01*
X109474762Y-86844286D01*
X109474762Y-86958571D01*
X109498572Y-87034762D01*
X109522381Y-87072857D01*
X109570000Y-87110952D01*
X109760476Y-87110952D01*
X109260476Y-87187143D02*
X108879524Y-87187143D01*
X111979523Y-91811905D02*
X112217618Y-91811905D01*
X112241428Y-92192857D01*
X112217618Y-92154762D01*
X112169999Y-92116667D01*
X112050952Y-92116667D01*
X112003333Y-92154762D01*
X111979523Y-92192857D01*
X111955714Y-92269048D01*
X111955714Y-92459524D01*
X111979523Y-92535714D01*
X112003333Y-92573810D01*
X112050952Y-92611905D01*
X112169999Y-92611905D01*
X112217618Y-92573810D01*
X112241428Y-92535714D01*
X111741428Y-92535714D02*
X111717619Y-92573810D01*
X111741428Y-92611905D01*
X111765238Y-92573810D01*
X111741428Y-92535714D01*
X111741428Y-92611905D01*
X110836667Y-92535714D02*
X110860477Y-92573810D01*
X110931905Y-92611905D01*
X110979524Y-92611905D01*
X111050953Y-92573810D01*
X111098572Y-92497619D01*
X111122381Y-92421429D01*
X111146191Y-92269048D01*
X111146191Y-92154762D01*
X111122381Y-92002381D01*
X111098572Y-91926190D01*
X111050953Y-91850000D01*
X110979524Y-91811905D01*
X110931905Y-91811905D01*
X110860477Y-91850000D01*
X110836667Y-91888095D01*
X110622381Y-92192857D02*
X110455715Y-92192857D01*
X110384286Y-92611905D02*
X110622381Y-92611905D01*
X110622381Y-91811905D01*
X110384286Y-91811905D01*
X109931905Y-92611905D02*
X110170000Y-92611905D01*
X110170000Y-91811905D01*
X109527143Y-92611905D02*
X109765238Y-92611905D01*
X109765238Y-91811905D01*
X109146191Y-92078571D02*
X109146191Y-92611905D01*
X109265238Y-91773810D02*
X109384286Y-92345238D01*
X109074762Y-92345238D01*
X107939047Y-89634762D02*
X107986666Y-89596667D01*
X108010475Y-89558571D01*
X108034285Y-89482381D01*
X108034285Y-89444286D01*
X108010475Y-89368095D01*
X107986666Y-89330000D01*
X107939047Y-89291905D01*
X107843809Y-89291905D01*
X107796190Y-89330000D01*
X107772380Y-89368095D01*
X107748571Y-89444286D01*
X107748571Y-89482381D01*
X107772380Y-89558571D01*
X107796190Y-89596667D01*
X107843809Y-89634762D01*
X107939047Y-89634762D01*
X107986666Y-89672857D01*
X108010475Y-89710952D01*
X108034285Y-89787143D01*
X108034285Y-89939524D01*
X108010475Y-90015714D01*
X107986666Y-90053810D01*
X107939047Y-90091905D01*
X107843809Y-90091905D01*
X107796190Y-90053810D01*
X107772380Y-90015714D01*
X107748571Y-89939524D01*
X107748571Y-89787143D01*
X107772380Y-89710952D01*
X107796190Y-89672857D01*
X107843809Y-89634762D01*
X107534285Y-90015714D02*
X107510476Y-90053810D01*
X107534285Y-90091905D01*
X107558095Y-90053810D01*
X107534285Y-90015714D01*
X107534285Y-90091905D01*
X106986667Y-89291905D02*
X106700953Y-89291905D01*
X106843810Y-90091905D02*
X106843810Y-89291905D01*
X106534286Y-89672857D02*
X106367620Y-89672857D01*
X106296191Y-90091905D02*
X106534286Y-90091905D01*
X106534286Y-89291905D01*
X106296191Y-89291905D01*
X106081905Y-90091905D02*
X106081905Y-89291905D01*
X105915239Y-89863333D01*
X105748572Y-89291905D01*
X105748572Y-90091905D01*
X105510476Y-90091905D02*
X105510476Y-89291905D01*
X105320000Y-89291905D01*
X105272381Y-89330000D01*
X105248572Y-89368095D01*
X105224762Y-89444286D01*
X105224762Y-89558571D01*
X105248572Y-89634762D01*
X105272381Y-89672857D01*
X105320000Y-89710952D01*
X105510476Y-89710952D01*
X105010476Y-89787143D02*
X104629524Y-89787143D01*
X104820000Y-90091905D02*
X104820000Y-89482381D01*
X112265237Y-89291905D02*
X111931904Y-89291905D01*
X112146190Y-90091905D01*
X111741428Y-90015714D02*
X111717619Y-90053810D01*
X111741428Y-90091905D01*
X111765238Y-90053810D01*
X111741428Y-90015714D01*
X111741428Y-90091905D01*
X110836667Y-90015714D02*
X110860477Y-90053810D01*
X110931905Y-90091905D01*
X110979524Y-90091905D01*
X111050953Y-90053810D01*
X111098572Y-89977619D01*
X111122381Y-89901429D01*
X111146191Y-89749048D01*
X111146191Y-89634762D01*
X111122381Y-89482381D01*
X111098572Y-89406190D01*
X111050953Y-89330000D01*
X110979524Y-89291905D01*
X110931905Y-89291905D01*
X110860477Y-89330000D01*
X110836667Y-89368095D01*
X110622381Y-89672857D02*
X110455715Y-89672857D01*
X110384286Y-90091905D02*
X110622381Y-90091905D01*
X110622381Y-89291905D01*
X110384286Y-89291905D01*
X109931905Y-90091905D02*
X110170000Y-90091905D01*
X110170000Y-89291905D01*
X109527143Y-90091905D02*
X109765238Y-90091905D01*
X109765238Y-89291905D01*
X109146191Y-89291905D02*
X109241429Y-89291905D01*
X109289048Y-89330000D01*
X109312857Y-89368095D01*
X109360476Y-89482381D01*
X109384286Y-89634762D01*
X109384286Y-89939524D01*
X109360476Y-90015714D01*
X109336667Y-90053810D01*
X109289048Y-90091905D01*
X109193810Y-90091905D01*
X109146191Y-90053810D01*
X109122381Y-90015714D01*
X109098572Y-89939524D01*
X109098572Y-89749048D01*
X109122381Y-89672857D01*
X109146191Y-89634762D01*
X109193810Y-89596667D01*
X109289048Y-89596667D01*
X109336667Y-89634762D01*
X109360476Y-89672857D01*
X109384286Y-89749048D01*
X107753333Y-91811905D02*
X107848571Y-91811905D01*
X107896190Y-91850000D01*
X107919999Y-91888095D01*
X107967618Y-92002381D01*
X107991428Y-92154762D01*
X107991428Y-92459524D01*
X107967618Y-92535714D01*
X107943809Y-92573810D01*
X107896190Y-92611905D01*
X107800952Y-92611905D01*
X107753333Y-92573810D01*
X107729523Y-92535714D01*
X107705714Y-92459524D01*
X107705714Y-92269048D01*
X107729523Y-92192857D01*
X107753333Y-92154762D01*
X107800952Y-92116667D01*
X107896190Y-92116667D01*
X107943809Y-92154762D01*
X107967618Y-92192857D01*
X107991428Y-92269048D01*
X107491428Y-92535714D02*
X107467619Y-92573810D01*
X107491428Y-92611905D01*
X107515238Y-92573810D01*
X107491428Y-92535714D01*
X107491428Y-92611905D01*
X106586667Y-92535714D02*
X106610477Y-92573810D01*
X106681905Y-92611905D01*
X106729524Y-92611905D01*
X106800953Y-92573810D01*
X106848572Y-92497619D01*
X106872381Y-92421429D01*
X106896191Y-92269048D01*
X106896191Y-92154762D01*
X106872381Y-92002381D01*
X106848572Y-91926190D01*
X106800953Y-91850000D01*
X106729524Y-91811905D01*
X106681905Y-91811905D01*
X106610477Y-91850000D01*
X106586667Y-91888095D01*
X106372381Y-92192857D02*
X106205715Y-92192857D01*
X106134286Y-92611905D02*
X106372381Y-92611905D01*
X106372381Y-91811905D01*
X106134286Y-91811905D01*
X105681905Y-92611905D02*
X105920000Y-92611905D01*
X105920000Y-91811905D01*
X105277143Y-92611905D02*
X105515238Y-92611905D01*
X105515238Y-91811905D01*
X104872381Y-91811905D02*
X105110476Y-91811905D01*
X105134286Y-92192857D01*
X105110476Y-92154762D01*
X105062857Y-92116667D01*
X104943810Y-92116667D01*
X104896191Y-92154762D01*
X104872381Y-92192857D01*
X104848572Y-92269048D01*
X104848572Y-92459524D01*
X104872381Y-92535714D01*
X104896191Y-92573810D01*
X104943810Y-92611905D01*
X105062857Y-92611905D01*
X105110476Y-92573810D01*
X105134286Y-92535714D01*
X107753333Y-94508571D02*
X107753333Y-95041905D01*
X107872380Y-94203810D02*
X107991428Y-94775238D01*
X107681904Y-94775238D01*
X107491428Y-94965714D02*
X107467619Y-95003810D01*
X107491428Y-95041905D01*
X107515238Y-95003810D01*
X107491428Y-94965714D01*
X107491428Y-95041905D01*
X106586667Y-94965714D02*
X106610477Y-95003810D01*
X106681905Y-95041905D01*
X106729524Y-95041905D01*
X106800953Y-95003810D01*
X106848572Y-94927619D01*
X106872381Y-94851429D01*
X106896191Y-94699048D01*
X106896191Y-94584762D01*
X106872381Y-94432381D01*
X106848572Y-94356190D01*
X106800953Y-94280000D01*
X106729524Y-94241905D01*
X106681905Y-94241905D01*
X106610477Y-94280000D01*
X106586667Y-94318095D01*
X106372381Y-94622857D02*
X106205715Y-94622857D01*
X106134286Y-95041905D02*
X106372381Y-95041905D01*
X106372381Y-94241905D01*
X106134286Y-94241905D01*
X105681905Y-95041905D02*
X105920000Y-95041905D01*
X105920000Y-94241905D01*
X105277143Y-95041905D02*
X105515238Y-95041905D01*
X105515238Y-94241905D01*
X105158095Y-94241905D02*
X104848572Y-94241905D01*
X105015238Y-94546667D01*
X104943810Y-94546667D01*
X104896191Y-94584762D01*
X104872381Y-94622857D01*
X104848572Y-94699048D01*
X104848572Y-94889524D01*
X104872381Y-94965714D01*
X104896191Y-95003810D01*
X104943810Y-95041905D01*
X105086667Y-95041905D01*
X105134286Y-95003810D01*
X105158095Y-94965714D01*
X112265237Y-94241905D02*
X111955714Y-94241905D01*
X112122380Y-94546667D01*
X112050952Y-94546667D01*
X112003333Y-94584762D01*
X111979523Y-94622857D01*
X111955714Y-94699048D01*
X111955714Y-94889524D01*
X111979523Y-94965714D01*
X112003333Y-95003810D01*
X112050952Y-95041905D01*
X112193809Y-95041905D01*
X112241428Y-95003810D01*
X112265237Y-94965714D01*
X111741428Y-94965714D02*
X111717619Y-95003810D01*
X111741428Y-95041905D01*
X111765238Y-95003810D01*
X111741428Y-94965714D01*
X111741428Y-95041905D01*
X110836667Y-94965714D02*
X110860477Y-95003810D01*
X110931905Y-95041905D01*
X110979524Y-95041905D01*
X111050953Y-95003810D01*
X111098572Y-94927619D01*
X111122381Y-94851429D01*
X111146191Y-94699048D01*
X111146191Y-94584762D01*
X111122381Y-94432381D01*
X111098572Y-94356190D01*
X111050953Y-94280000D01*
X110979524Y-94241905D01*
X110931905Y-94241905D01*
X110860477Y-94280000D01*
X110836667Y-94318095D01*
X110622381Y-94622857D02*
X110455715Y-94622857D01*
X110384286Y-95041905D02*
X110622381Y-95041905D01*
X110622381Y-94241905D01*
X110384286Y-94241905D01*
X109931905Y-95041905D02*
X110170000Y-95041905D01*
X110170000Y-94241905D01*
X109527143Y-95041905D02*
X109765238Y-95041905D01*
X109765238Y-94241905D01*
X109384286Y-94318095D02*
X109360476Y-94280000D01*
X109312857Y-94241905D01*
X109193810Y-94241905D01*
X109146191Y-94280000D01*
X109122381Y-94318095D01*
X109098572Y-94394286D01*
X109098572Y-94470476D01*
X109122381Y-94584762D01*
X109408095Y-95041905D01*
X109098572Y-95041905D01*
X111955714Y-97651905D02*
X112241428Y-97651905D01*
X112098571Y-97651905D02*
X112098571Y-96851905D01*
X112146190Y-96966190D01*
X112193809Y-97042381D01*
X112241428Y-97080476D01*
X111741428Y-97575714D02*
X111717619Y-97613810D01*
X111741428Y-97651905D01*
X111765238Y-97613810D01*
X111741428Y-97575714D01*
X111741428Y-97651905D01*
X110836667Y-97575714D02*
X110860477Y-97613810D01*
X110931905Y-97651905D01*
X110979524Y-97651905D01*
X111050953Y-97613810D01*
X111098572Y-97537619D01*
X111122381Y-97461429D01*
X111146191Y-97309048D01*
X111146191Y-97194762D01*
X111122381Y-97042381D01*
X111098572Y-96966190D01*
X111050953Y-96890000D01*
X110979524Y-96851905D01*
X110931905Y-96851905D01*
X110860477Y-96890000D01*
X110836667Y-96928095D01*
X110622381Y-97232857D02*
X110455715Y-97232857D01*
X110384286Y-97651905D02*
X110622381Y-97651905D01*
X110622381Y-96851905D01*
X110384286Y-96851905D01*
X109931905Y-97651905D02*
X110170000Y-97651905D01*
X110170000Y-96851905D01*
X109527143Y-97651905D02*
X109765238Y-97651905D01*
X109765238Y-96851905D01*
X109265238Y-96851905D02*
X109217619Y-96851905D01*
X109170000Y-96890000D01*
X109146191Y-96928095D01*
X109122381Y-97004286D01*
X109098572Y-97156667D01*
X109098572Y-97347143D01*
X109122381Y-97499524D01*
X109146191Y-97575714D01*
X109170000Y-97613810D01*
X109217619Y-97651905D01*
X109265238Y-97651905D01*
X109312857Y-97613810D01*
X109336667Y-97575714D01*
X109360476Y-97499524D01*
X109384286Y-97347143D01*
X109384286Y-97156667D01*
X109360476Y-97004286D01*
X109336667Y-96928095D01*
X109312857Y-96890000D01*
X109265238Y-96851905D01*
X107991428Y-96928095D02*
X107967618Y-96890000D01*
X107919999Y-96851905D01*
X107800952Y-96851905D01*
X107753333Y-96890000D01*
X107729523Y-96928095D01*
X107705714Y-97004286D01*
X107705714Y-97080476D01*
X107729523Y-97194762D01*
X108015237Y-97651905D01*
X107705714Y-97651905D01*
X107491428Y-97575714D02*
X107467619Y-97613810D01*
X107491428Y-97651905D01*
X107515238Y-97613810D01*
X107491428Y-97575714D01*
X107491428Y-97651905D01*
X106586667Y-97575714D02*
X106610477Y-97613810D01*
X106681905Y-97651905D01*
X106729524Y-97651905D01*
X106800953Y-97613810D01*
X106848572Y-97537619D01*
X106872381Y-97461429D01*
X106896191Y-97309048D01*
X106896191Y-97194762D01*
X106872381Y-97042381D01*
X106848572Y-96966190D01*
X106800953Y-96890000D01*
X106729524Y-96851905D01*
X106681905Y-96851905D01*
X106610477Y-96890000D01*
X106586667Y-96928095D01*
X106372381Y-97232857D02*
X106205715Y-97232857D01*
X106134286Y-97651905D02*
X106372381Y-97651905D01*
X106372381Y-96851905D01*
X106134286Y-96851905D01*
X105681905Y-97651905D02*
X105920000Y-97651905D01*
X105920000Y-96851905D01*
X105277143Y-97651905D02*
X105515238Y-97651905D01*
X105515238Y-96851905D01*
X104848572Y-97651905D02*
X105134286Y-97651905D01*
X104991429Y-97651905D02*
X104991429Y-96851905D01*
X105039048Y-96966190D01*
X105086667Y-97042381D01*
X105134286Y-97080476D01*
D12*
X104230000Y-98530000D02*
X112830000Y-98530000D01*
X112830000Y-98530000D02*
X112830000Y-85970000D01*
X112830000Y-85970000D02*
X104320000Y-85970000D01*
X104320000Y-85970000D02*
X104070000Y-85970000D01*
X104070000Y-85970000D02*
X104070000Y-98530000D01*
D13*
G36*
X113811699Y-65048560D02*
X113753381Y-65071885D01*
X113703497Y-65113043D01*
X113697952Y-65119427D01*
X113689242Y-65132691D01*
X113671261Y-65162513D01*
X113644628Y-65207796D01*
X113609962Y-65267444D01*
X113567881Y-65340364D01*
X113519003Y-65425458D01*
X113463948Y-65521631D01*
X113403334Y-65627788D01*
X113337780Y-65742833D01*
X113267903Y-65865670D01*
X113194324Y-65995205D01*
X113117660Y-66130341D01*
X113038530Y-66269982D01*
X112957552Y-66413034D01*
X112875346Y-66558400D01*
X112792530Y-66704986D01*
X112709722Y-66851695D01*
X112627541Y-66997432D01*
X112546606Y-67141101D01*
X112467535Y-67281607D01*
X112390947Y-67417854D01*
X112317460Y-67548747D01*
X112247694Y-67673190D01*
X112182266Y-67790087D01*
X112121795Y-67898343D01*
X112066900Y-67996863D01*
X112018200Y-68084550D01*
X111976313Y-68160310D01*
X111941858Y-68223046D01*
X111915453Y-68271663D01*
X111897716Y-68305066D01*
X111889268Y-68322158D01*
X111888700Y-68323680D01*
X111878494Y-68392052D01*
X111887338Y-68455125D01*
X111914425Y-68510949D01*
X111958949Y-68557577D01*
X111995320Y-68581208D01*
X112035960Y-68603080D01*
X113859680Y-68604802D01*
X114050991Y-68604940D01*
X114237022Y-68604990D01*
X114416740Y-68604955D01*
X114589110Y-68604838D01*
X114753098Y-68604644D01*
X114907670Y-68604375D01*
X115051792Y-68604036D01*
X115184428Y-68603628D01*
X115304546Y-68603156D01*
X115411110Y-68602624D01*
X115503087Y-68602034D01*
X115579443Y-68601390D01*
X115639142Y-68600695D01*
X115681151Y-68599953D01*
X115704435Y-68599166D01*
X115708866Y-68598723D01*
X115760646Y-68576985D01*
X115804621Y-68547564D01*
X115817536Y-68535326D01*
X115849499Y-68487075D01*
X115867158Y-68429237D01*
X115868541Y-68392260D01*
X115668014Y-68392260D01*
X115664414Y-68393901D01*
X115653074Y-68395404D01*
X115633240Y-68396774D01*
X115604159Y-68398016D01*
X115565080Y-68399135D01*
X115515250Y-68400137D01*
X115453916Y-68401028D01*
X115380325Y-68401811D01*
X115293724Y-68402494D01*
X115193362Y-68403080D01*
X115078485Y-68403576D01*
X114948340Y-68403986D01*
X114802176Y-68404317D01*
X114639239Y-68404573D01*
X114458777Y-68404760D01*
X114260037Y-68404882D01*
X114042266Y-68404947D01*
X113874920Y-68404960D01*
X113644170Y-68404935D01*
X113432966Y-68404860D01*
X113240537Y-68404727D01*
X113066111Y-68404530D01*
X112908913Y-68404266D01*
X112768173Y-68403927D01*
X112643117Y-68403509D01*
X112532972Y-68403005D01*
X112436966Y-68402411D01*
X112354327Y-68401720D01*
X112284281Y-68400927D01*
X112226056Y-68400026D01*
X112178880Y-68399012D01*
X112141980Y-68397880D01*
X112114582Y-68396623D01*
X112095916Y-68395236D01*
X112085207Y-68393714D01*
X112081683Y-68392050D01*
X112081681Y-68391999D01*
X112086580Y-68382091D01*
X112100869Y-68355586D01*
X112123933Y-68313575D01*
X112155159Y-68257150D01*
X112193931Y-68187399D01*
X112239636Y-68105415D01*
X112291660Y-68012287D01*
X112349389Y-67909107D01*
X112412208Y-67796964D01*
X112479503Y-67676949D01*
X112550660Y-67550153D01*
X112625065Y-67417667D01*
X112702104Y-67280581D01*
X112781162Y-67139986D01*
X112861626Y-66996972D01*
X112942880Y-66852630D01*
X113024312Y-66708050D01*
X113105307Y-66564323D01*
X113185251Y-66422540D01*
X113263529Y-66283792D01*
X113339528Y-66149168D01*
X113412633Y-66019759D01*
X113482230Y-65896657D01*
X113547705Y-65780951D01*
X113608444Y-65673732D01*
X113663833Y-65576091D01*
X113713257Y-65489118D01*
X113756102Y-65413905D01*
X113791755Y-65351541D01*
X113819600Y-65303117D01*
X113839025Y-65269724D01*
X113849414Y-65252452D01*
X113850923Y-65250280D01*
X113863348Y-65247609D01*
X113870314Y-65255360D01*
X113882149Y-65275200D01*
X113903047Y-65310907D01*
X113932387Y-65361397D01*
X113969549Y-65425588D01*
X114013913Y-65502398D01*
X114064858Y-65590746D01*
X114121764Y-65689548D01*
X114184013Y-65797724D01*
X114250982Y-65914190D01*
X114322052Y-66037864D01*
X114396603Y-66167665D01*
X114474015Y-66302511D01*
X114553668Y-66441319D01*
X114634941Y-66583007D01*
X114717214Y-66726493D01*
X114799868Y-66870694D01*
X114882282Y-67014530D01*
X114963835Y-67156917D01*
X115043908Y-67296774D01*
X115121881Y-67433018D01*
X115197134Y-67564568D01*
X115269046Y-67690341D01*
X115336997Y-67809255D01*
X115400367Y-67920228D01*
X115458536Y-68022177D01*
X115510884Y-68114022D01*
X115556790Y-68194679D01*
X115595635Y-68263067D01*
X115626799Y-68318102D01*
X115649660Y-68358705D01*
X115663600Y-68383791D01*
X115668014Y-68392260D01*
X115868541Y-68392260D01*
X115869464Y-68367623D01*
X115857468Y-68313520D01*
X115851238Y-68301444D01*
X115835492Y-68272853D01*
X115810856Y-68228841D01*
X115777957Y-68170499D01*
X115737422Y-68098921D01*
X115689878Y-68015199D01*
X115635950Y-67920426D01*
X115576267Y-67815694D01*
X115511454Y-67702097D01*
X115442138Y-67580727D01*
X115368946Y-67452677D01*
X115292505Y-67319040D01*
X115213441Y-67180907D01*
X115132380Y-67039373D01*
X115049951Y-66895530D01*
X114966779Y-66750470D01*
X114883491Y-66605286D01*
X114800713Y-66461072D01*
X114719073Y-66318919D01*
X114639197Y-66179920D01*
X114561712Y-66045169D01*
X114487244Y-65915757D01*
X114416421Y-65792778D01*
X114349868Y-65677325D01*
X114288213Y-65570489D01*
X114232082Y-65473364D01*
X114182101Y-65387043D01*
X114138899Y-65312618D01*
X114103101Y-65251182D01*
X114075333Y-65203828D01*
X114056223Y-65171649D01*
X114046860Y-65156434D01*
X114000879Y-65100592D01*
X113948232Y-65063765D01*
X113888368Y-65045592D01*
X113875799Y-65044190D01*
X113811699Y-65048560D01*
X113811699Y-65048560D01*
G37*
X113811699Y-65048560D02*
X113753381Y-65071885D01*
X113703497Y-65113043D01*
X113697952Y-65119427D01*
X113689242Y-65132691D01*
X113671261Y-65162513D01*
X113644628Y-65207796D01*
X113609962Y-65267444D01*
X113567881Y-65340364D01*
X113519003Y-65425458D01*
X113463948Y-65521631D01*
X113403334Y-65627788D01*
X113337780Y-65742833D01*
X113267903Y-65865670D01*
X113194324Y-65995205D01*
X113117660Y-66130341D01*
X113038530Y-66269982D01*
X112957552Y-66413034D01*
X112875346Y-66558400D01*
X112792530Y-66704986D01*
X112709722Y-66851695D01*
X112627541Y-66997432D01*
X112546606Y-67141101D01*
X112467535Y-67281607D01*
X112390947Y-67417854D01*
X112317460Y-67548747D01*
X112247694Y-67673190D01*
X112182266Y-67790087D01*
X112121795Y-67898343D01*
X112066900Y-67996863D01*
X112018200Y-68084550D01*
X111976313Y-68160310D01*
X111941858Y-68223046D01*
X111915453Y-68271663D01*
X111897716Y-68305066D01*
X111889268Y-68322158D01*
X111888700Y-68323680D01*
X111878494Y-68392052D01*
X111887338Y-68455125D01*
X111914425Y-68510949D01*
X111958949Y-68557577D01*
X111995320Y-68581208D01*
X112035960Y-68603080D01*
X113859680Y-68604802D01*
X114050991Y-68604940D01*
X114237022Y-68604990D01*
X114416740Y-68604955D01*
X114589110Y-68604838D01*
X114753098Y-68604644D01*
X114907670Y-68604375D01*
X115051792Y-68604036D01*
X115184428Y-68603628D01*
X115304546Y-68603156D01*
X115411110Y-68602624D01*
X115503087Y-68602034D01*
X115579443Y-68601390D01*
X115639142Y-68600695D01*
X115681151Y-68599953D01*
X115704435Y-68599166D01*
X115708866Y-68598723D01*
X115760646Y-68576985D01*
X115804621Y-68547564D01*
X115817536Y-68535326D01*
X115849499Y-68487075D01*
X115867158Y-68429237D01*
X115868541Y-68392260D01*
X115668014Y-68392260D01*
X115664414Y-68393901D01*
X115653074Y-68395404D01*
X115633240Y-68396774D01*
X115604159Y-68398016D01*
X115565080Y-68399135D01*
X115515250Y-68400137D01*
X115453916Y-68401028D01*
X115380325Y-68401811D01*
X115293724Y-68402494D01*
X115193362Y-68403080D01*
X115078485Y-68403576D01*
X114948340Y-68403986D01*
X114802176Y-68404317D01*
X114639239Y-68404573D01*
X114458777Y-68404760D01*
X114260037Y-68404882D01*
X114042266Y-68404947D01*
X113874920Y-68404960D01*
X113644170Y-68404935D01*
X113432966Y-68404860D01*
X113240537Y-68404727D01*
X113066111Y-68404530D01*
X112908913Y-68404266D01*
X112768173Y-68403927D01*
X112643117Y-68403509D01*
X112532972Y-68403005D01*
X112436966Y-68402411D01*
X112354327Y-68401720D01*
X112284281Y-68400927D01*
X112226056Y-68400026D01*
X112178880Y-68399012D01*
X112141980Y-68397880D01*
X112114582Y-68396623D01*
X112095916Y-68395236D01*
X112085207Y-68393714D01*
X112081683Y-68392050D01*
X112081681Y-68391999D01*
X112086580Y-68382091D01*
X112100869Y-68355586D01*
X112123933Y-68313575D01*
X112155159Y-68257150D01*
X112193931Y-68187399D01*
X112239636Y-68105415D01*
X112291660Y-68012287D01*
X112349389Y-67909107D01*
X112412208Y-67796964D01*
X112479503Y-67676949D01*
X112550660Y-67550153D01*
X112625065Y-67417667D01*
X112702104Y-67280581D01*
X112781162Y-67139986D01*
X112861626Y-66996972D01*
X112942880Y-66852630D01*
X113024312Y-66708050D01*
X113105307Y-66564323D01*
X113185251Y-66422540D01*
X113263529Y-66283792D01*
X113339528Y-66149168D01*
X113412633Y-66019759D01*
X113482230Y-65896657D01*
X113547705Y-65780951D01*
X113608444Y-65673732D01*
X113663833Y-65576091D01*
X113713257Y-65489118D01*
X113756102Y-65413905D01*
X113791755Y-65351541D01*
X113819600Y-65303117D01*
X113839025Y-65269724D01*
X113849414Y-65252452D01*
X113850923Y-65250280D01*
X113863348Y-65247609D01*
X113870314Y-65255360D01*
X113882149Y-65275200D01*
X113903047Y-65310907D01*
X113932387Y-65361397D01*
X113969549Y-65425588D01*
X114013913Y-65502398D01*
X114064858Y-65590746D01*
X114121764Y-65689548D01*
X114184013Y-65797724D01*
X114250982Y-65914190D01*
X114322052Y-66037864D01*
X114396603Y-66167665D01*
X114474015Y-66302511D01*
X114553668Y-66441319D01*
X114634941Y-66583007D01*
X114717214Y-66726493D01*
X114799868Y-66870694D01*
X114882282Y-67014530D01*
X114963835Y-67156917D01*
X115043908Y-67296774D01*
X115121881Y-67433018D01*
X115197134Y-67564568D01*
X115269046Y-67690341D01*
X115336997Y-67809255D01*
X115400367Y-67920228D01*
X115458536Y-68022177D01*
X115510884Y-68114022D01*
X115556790Y-68194679D01*
X115595635Y-68263067D01*
X115626799Y-68318102D01*
X115649660Y-68358705D01*
X115663600Y-68383791D01*
X115668014Y-68392260D01*
X115868541Y-68392260D01*
X115869464Y-68367623D01*
X115857468Y-68313520D01*
X115851238Y-68301444D01*
X115835492Y-68272853D01*
X115810856Y-68228841D01*
X115777957Y-68170499D01*
X115737422Y-68098921D01*
X115689878Y-68015199D01*
X115635950Y-67920426D01*
X115576267Y-67815694D01*
X115511454Y-67702097D01*
X115442138Y-67580727D01*
X115368946Y-67452677D01*
X115292505Y-67319040D01*
X115213441Y-67180907D01*
X115132380Y-67039373D01*
X115049951Y-66895530D01*
X114966779Y-66750470D01*
X114883491Y-66605286D01*
X114800713Y-66461072D01*
X114719073Y-66318919D01*
X114639197Y-66179920D01*
X114561712Y-66045169D01*
X114487244Y-65915757D01*
X114416421Y-65792778D01*
X114349868Y-65677325D01*
X114288213Y-65570489D01*
X114232082Y-65473364D01*
X114182101Y-65387043D01*
X114138899Y-65312618D01*
X114103101Y-65251182D01*
X114075333Y-65203828D01*
X114056223Y-65171649D01*
X114046860Y-65156434D01*
X114000879Y-65100592D01*
X113948232Y-65063765D01*
X113888368Y-65045592D01*
X113875799Y-65044190D01*
X113811699Y-65048560D01*
G36*
X113846129Y-65895869D02*
X113794535Y-65897062D01*
X113753781Y-65898879D01*
X113727028Y-65901178D01*
X113717440Y-65903813D01*
X113720958Y-65914676D01*
X113731053Y-65942683D01*
X113747037Y-65985998D01*
X113768224Y-66042787D01*
X113793926Y-66111216D01*
X113823455Y-66189450D01*
X113856124Y-66275656D01*
X113891247Y-66367998D01*
X113899234Y-66388953D01*
X113934690Y-66482207D01*
X113967716Y-66569585D01*
X113997640Y-66649276D01*
X114023792Y-66719468D01*
X114045501Y-66778350D01*
X114062096Y-66824112D01*
X114072906Y-66854941D01*
X114077261Y-66869027D01*
X114077279Y-66869708D01*
X114067191Y-66867322D01*
X114040284Y-66858712D01*
X113998814Y-66844662D01*
X113945035Y-66825953D01*
X113881204Y-66803367D01*
X113809576Y-66777685D01*
X113758080Y-66759039D01*
X113682435Y-66731726D01*
X113613027Y-66707014D01*
X113552118Y-66685680D01*
X113501972Y-66668504D01*
X113464850Y-66656263D01*
X113443015Y-66649737D01*
X113438063Y-66648951D01*
X113441184Y-66658824D01*
X113451754Y-66685707D01*
X113469092Y-66727987D01*
X113492517Y-66784051D01*
X113521347Y-66852287D01*
X113554900Y-66931081D01*
X113592494Y-67018822D01*
X113633449Y-67113897D01*
X113677082Y-67214692D01*
X113680210Y-67221899D01*
X113926925Y-67790280D01*
X113826537Y-67793183D01*
X113784608Y-67795172D01*
X113751960Y-67798208D01*
X113732733Y-67801818D01*
X113729415Y-67804304D01*
X113736575Y-67814648D01*
X113754401Y-67838105D01*
X113780967Y-67872267D01*
X113814344Y-67914722D01*
X113852607Y-67963059D01*
X113893830Y-68014870D01*
X113936085Y-68067742D01*
X113977446Y-68119267D01*
X114015987Y-68167033D01*
X114049781Y-68208630D01*
X114076901Y-68241649D01*
X114095421Y-68263678D01*
X114103414Y-68272307D01*
X114103520Y-68272346D01*
X114106729Y-68262915D01*
X114113357Y-68235990D01*
X114122869Y-68194010D01*
X114134727Y-68139412D01*
X114148398Y-68074634D01*
X114163345Y-68002115D01*
X114168713Y-67975679D01*
X114184081Y-67899880D01*
X114198335Y-67829907D01*
X114210928Y-67768419D01*
X114221313Y-67718076D01*
X114228942Y-67681536D01*
X114233269Y-67661459D01*
X114233841Y-67659043D01*
X114230681Y-67653898D01*
X114214886Y-67660936D01*
X114185533Y-67680671D01*
X114156549Y-67702223D01*
X114121741Y-67728403D01*
X114093279Y-67749215D01*
X114074783Y-67762045D01*
X114069717Y-67764880D01*
X114065113Y-67755727D01*
X114054474Y-67729870D01*
X114038691Y-67689706D01*
X114018653Y-67637634D01*
X113995251Y-67576052D01*
X113969373Y-67507360D01*
X113941910Y-67433957D01*
X113913752Y-67358240D01*
X113885788Y-67282608D01*
X113858907Y-67209460D01*
X113834001Y-67141195D01*
X113811958Y-67080212D01*
X113793669Y-67028909D01*
X113780023Y-66989684D01*
X113771909Y-66964937D01*
X113770052Y-66957041D01*
X113780366Y-66959170D01*
X113807342Y-66967333D01*
X113848511Y-66980710D01*
X113901406Y-66998483D01*
X113963557Y-67019831D01*
X114032498Y-67043936D01*
X114043089Y-67047673D01*
X114112689Y-67072205D01*
X114175704Y-67094293D01*
X114229695Y-67113093D01*
X114272222Y-67127759D01*
X114300847Y-67137446D01*
X114313130Y-67141310D01*
X114313413Y-67141335D01*
X114311946Y-67131388D01*
X114307165Y-67103157D01*
X114299374Y-67058355D01*
X114288874Y-66998693D01*
X114275971Y-66925883D01*
X114260967Y-66841637D01*
X114244166Y-66747667D01*
X114225871Y-66645684D01*
X114206386Y-66537400D01*
X114204216Y-66525360D01*
X114184572Y-66416272D01*
X114166040Y-66313128D01*
X114148928Y-66217662D01*
X114133547Y-66131609D01*
X114120204Y-66056706D01*
X114109209Y-65994686D01*
X114100870Y-65947287D01*
X114095498Y-65916243D01*
X114093402Y-65903290D01*
X114093384Y-65903060D01*
X114083744Y-65900657D01*
X114056947Y-65898565D01*
X114016157Y-65896913D01*
X113964536Y-65895828D01*
X113905400Y-65895440D01*
X113846129Y-65895869D01*
X113846129Y-65895869D01*
G37*
X113846129Y-65895869D02*
X113794535Y-65897062D01*
X113753781Y-65898879D01*
X113727028Y-65901178D01*
X113717440Y-65903813D01*
X113720958Y-65914676D01*
X113731053Y-65942683D01*
X113747037Y-65985998D01*
X113768224Y-66042787D01*
X113793926Y-66111216D01*
X113823455Y-66189450D01*
X113856124Y-66275656D01*
X113891247Y-66367998D01*
X113899234Y-66388953D01*
X113934690Y-66482207D01*
X113967716Y-66569585D01*
X113997640Y-66649276D01*
X114023792Y-66719468D01*
X114045501Y-66778350D01*
X114062096Y-66824112D01*
X114072906Y-66854941D01*
X114077261Y-66869027D01*
X114077279Y-66869708D01*
X114067191Y-66867322D01*
X114040284Y-66858712D01*
X113998814Y-66844662D01*
X113945035Y-66825953D01*
X113881204Y-66803367D01*
X113809576Y-66777685D01*
X113758080Y-66759039D01*
X113682435Y-66731726D01*
X113613027Y-66707014D01*
X113552118Y-66685680D01*
X113501972Y-66668504D01*
X113464850Y-66656263D01*
X113443015Y-66649737D01*
X113438063Y-66648951D01*
X113441184Y-66658824D01*
X113451754Y-66685707D01*
X113469092Y-66727987D01*
X113492517Y-66784051D01*
X113521347Y-66852287D01*
X113554900Y-66931081D01*
X113592494Y-67018822D01*
X113633449Y-67113897D01*
X113677082Y-67214692D01*
X113680210Y-67221899D01*
X113926925Y-67790280D01*
X113826537Y-67793183D01*
X113784608Y-67795172D01*
X113751960Y-67798208D01*
X113732733Y-67801818D01*
X113729415Y-67804304D01*
X113736575Y-67814648D01*
X113754401Y-67838105D01*
X113780967Y-67872267D01*
X113814344Y-67914722D01*
X113852607Y-67963059D01*
X113893830Y-68014870D01*
X113936085Y-68067742D01*
X113977446Y-68119267D01*
X114015987Y-68167033D01*
X114049781Y-68208630D01*
X114076901Y-68241649D01*
X114095421Y-68263678D01*
X114103414Y-68272307D01*
X114103520Y-68272346D01*
X114106729Y-68262915D01*
X114113357Y-68235990D01*
X114122869Y-68194010D01*
X114134727Y-68139412D01*
X114148398Y-68074634D01*
X114163345Y-68002115D01*
X114168713Y-67975679D01*
X114184081Y-67899880D01*
X114198335Y-67829907D01*
X114210928Y-67768419D01*
X114221313Y-67718076D01*
X114228942Y-67681536D01*
X114233269Y-67661459D01*
X114233841Y-67659043D01*
X114230681Y-67653898D01*
X114214886Y-67660936D01*
X114185533Y-67680671D01*
X114156549Y-67702223D01*
X114121741Y-67728403D01*
X114093279Y-67749215D01*
X114074783Y-67762045D01*
X114069717Y-67764880D01*
X114065113Y-67755727D01*
X114054474Y-67729870D01*
X114038691Y-67689706D01*
X114018653Y-67637634D01*
X113995251Y-67576052D01*
X113969373Y-67507360D01*
X113941910Y-67433957D01*
X113913752Y-67358240D01*
X113885788Y-67282608D01*
X113858907Y-67209460D01*
X113834001Y-67141195D01*
X113811958Y-67080212D01*
X113793669Y-67028909D01*
X113780023Y-66989684D01*
X113771909Y-66964937D01*
X113770052Y-66957041D01*
X113780366Y-66959170D01*
X113807342Y-66967333D01*
X113848511Y-66980710D01*
X113901406Y-66998483D01*
X113963557Y-67019831D01*
X114032498Y-67043936D01*
X114043089Y-67047673D01*
X114112689Y-67072205D01*
X114175704Y-67094293D01*
X114229695Y-67113093D01*
X114272222Y-67127759D01*
X114300847Y-67137446D01*
X114313130Y-67141310D01*
X114313413Y-67141335D01*
X114311946Y-67131388D01*
X114307165Y-67103157D01*
X114299374Y-67058355D01*
X114288874Y-66998693D01*
X114275971Y-66925883D01*
X114260967Y-66841637D01*
X114244166Y-66747667D01*
X114225871Y-66645684D01*
X114206386Y-66537400D01*
X114204216Y-66525360D01*
X114184572Y-66416272D01*
X114166040Y-66313128D01*
X114148928Y-66217662D01*
X114133547Y-66131609D01*
X114120204Y-66056706D01*
X114109209Y-65994686D01*
X114100870Y-65947287D01*
X114095498Y-65916243D01*
X114093402Y-65903290D01*
X114093384Y-65903060D01*
X114083744Y-65900657D01*
X114056947Y-65898565D01*
X114016157Y-65896913D01*
X113964536Y-65895828D01*
X113905400Y-65895440D01*
X113846129Y-65895869D01*
D14*
X150380000Y-99140000D02*
X150380000Y-101140000D01*
X148340000Y-101140000D02*
X148340000Y-99140000D01*
X178050000Y-92360000D02*
X176050000Y-92360000D01*
X176050000Y-94500000D02*
X178050000Y-94500000D01*
X178080000Y-87350000D02*
X176080000Y-87350000D01*
X176080000Y-89490000D02*
X178080000Y-89490000D01*
X178100000Y-82560000D02*
X176100000Y-82560000D01*
X176100000Y-84700000D02*
X178100000Y-84700000D01*
X167900000Y-108180000D02*
X169100000Y-108180000D01*
X169100000Y-106420000D02*
X167900000Y-106420000D01*
X136200000Y-112680000D02*
X137200000Y-112680000D01*
X137200000Y-111320000D02*
X136200000Y-111320000D01*
X139800000Y-112680000D02*
X140800000Y-112680000D01*
X140800000Y-111320000D02*
X139800000Y-111320000D01*
X169620000Y-77970000D02*
X168620000Y-77970000D01*
X168620000Y-79330000D02*
X169620000Y-79330000D01*
X164060000Y-77930000D02*
X163060000Y-77930000D01*
X163060000Y-79290000D02*
X164060000Y-79290000D01*
X163060000Y-76820000D02*
X164060000Y-76820000D01*
X164060000Y-75460000D02*
X163060000Y-75460000D01*
X126100000Y-112270000D02*
X128100000Y-112270000D01*
X128100000Y-112270000D02*
X128100000Y-116120000D01*
X126100000Y-112270000D02*
X126100000Y-116120000D01*
X118900000Y-111830000D02*
X120900000Y-111830000D01*
X120900000Y-111830000D02*
X120900000Y-115680000D01*
X118900000Y-111830000D02*
X118900000Y-115680000D01*
X126100000Y-94770000D02*
X128100000Y-94770000D01*
X128100000Y-94770000D02*
X128100000Y-98620000D01*
X126100000Y-94770000D02*
X126100000Y-98620000D01*
X119170000Y-95260000D02*
X121170000Y-95260000D01*
X121170000Y-95260000D02*
X121170000Y-99110000D01*
X119170000Y-95260000D02*
X119170000Y-99110000D01*
X126100000Y-86370000D02*
X128100000Y-86370000D01*
X128100000Y-86370000D02*
X128100000Y-90220000D01*
X126100000Y-86370000D02*
X126100000Y-90220000D01*
X119090000Y-85080000D02*
X121090000Y-85080000D01*
X121090000Y-85080000D02*
X121090000Y-88930000D01*
X119090000Y-85080000D02*
X119090000Y-88930000D01*
X126130000Y-78490000D02*
X128130000Y-78490000D01*
X128130000Y-78490000D02*
X128130000Y-82340000D01*
X126130000Y-78490000D02*
X126130000Y-82340000D01*
X119170000Y-76250000D02*
X121170000Y-76250000D01*
X121170000Y-76250000D02*
X121170000Y-80100000D01*
X119170000Y-76250000D02*
X119170000Y-80100000D01*
X126060000Y-70270000D02*
X128060000Y-70270000D01*
X128060000Y-70270000D02*
X128060000Y-74120000D01*
X126060000Y-70270000D02*
X126060000Y-74120000D01*
X119170000Y-69280000D02*
X121170000Y-69280000D01*
X121170000Y-69280000D02*
X121170000Y-73130000D01*
X119170000Y-69280000D02*
X119170000Y-73130000D01*
X153130000Y-77330000D02*
X154130000Y-77330000D01*
X154130000Y-79030000D02*
X153130000Y-79030000D01*
X147510000Y-77880000D02*
X148510000Y-77880000D01*
X148510000Y-79580000D02*
X147510000Y-79580000D01*
X154460000Y-106450000D02*
X154460000Y-105450000D01*
X156160000Y-105450000D02*
X156160000Y-106450000D01*
X158190000Y-106400000D02*
X158190000Y-105400000D01*
X159890000Y-105400000D02*
X159890000Y-106400000D01*
X161560000Y-106430000D02*
X161560000Y-105430000D01*
X163260000Y-105430000D02*
X163260000Y-106430000D01*
X145560000Y-107000000D02*
X145560000Y-106000000D01*
X147260000Y-106000000D02*
X147260000Y-107000000D01*
X156260000Y-73480000D02*
X156960000Y-73480000D01*
X156960000Y-72280000D02*
X156260000Y-72280000D01*
X139950000Y-109100000D02*
X140650000Y-109100000D01*
X140650000Y-107900000D02*
X139950000Y-107900000D01*
X169430000Y-75580000D02*
X168730000Y-75580000D01*
X168730000Y-76780000D02*
X169430000Y-76780000D01*
X141960000Y-80310000D02*
X138660000Y-80310000D01*
X138660000Y-80310000D02*
X138660000Y-74910000D01*
X141960000Y-80310000D02*
X141960000Y-74910000D01*
X147440000Y-99090000D02*
X147440000Y-101090000D01*
X145400000Y-101090000D02*
X145400000Y-99090000D01*
X165440000Y-87020000D02*
X167440000Y-87020000D01*
X167440000Y-89060000D02*
X165440000Y-89060000D01*
X167750000Y-97580000D02*
X165750000Y-97580000D01*
X165750000Y-95540000D02*
X167750000Y-95540000D01*
X174270000Y-99900000D02*
X174270000Y-97900000D01*
X172130000Y-97900000D02*
X172130000Y-99900000D01*
X118980000Y-103980000D02*
X120980000Y-103980000D01*
X120980000Y-103980000D02*
X120980000Y-107830000D01*
X118980000Y-103980000D02*
X118980000Y-107830000D01*
X126100000Y-103270000D02*
X128100000Y-103270000D01*
X128100000Y-103270000D02*
X128100000Y-107120000D01*
X126100000Y-103270000D02*
X126100000Y-107120000D01*
X165880000Y-84390000D02*
X166880000Y-84390000D01*
X166880000Y-86090000D02*
X165880000Y-86090000D01*
X152460000Y-100250000D02*
X153460000Y-100250000D01*
X153460000Y-101950000D02*
X152460000Y-101950000D01*
X159140000Y-79130000D02*
X158140000Y-79130000D01*
X158140000Y-77430000D02*
X159140000Y-77430000D01*
D11*
X149566666Y-103457143D02*
X149614285Y-103504762D01*
X149757142Y-103552381D01*
X149852380Y-103552381D01*
X149995238Y-103504762D01*
X150090476Y-103409524D01*
X150138095Y-103314286D01*
X150185714Y-103123810D01*
X150185714Y-102980952D01*
X150138095Y-102790476D01*
X150090476Y-102695238D01*
X149995238Y-102600000D01*
X149852380Y-102552381D01*
X149757142Y-102552381D01*
X149614285Y-102600000D01*
X149566666Y-102647619D01*
X148709523Y-102552381D02*
X148900000Y-102552381D01*
X148995238Y-102600000D01*
X149042857Y-102647619D01*
X149138095Y-102790476D01*
X149185714Y-102980952D01*
X149185714Y-103361905D01*
X149138095Y-103457143D01*
X149090476Y-103504762D01*
X148995238Y-103552381D01*
X148804761Y-103552381D01*
X148709523Y-103504762D01*
X148661904Y-103457143D01*
X148614285Y-103361905D01*
X148614285Y-103123810D01*
X148661904Y-103028571D01*
X148709523Y-102980952D01*
X148804761Y-102933333D01*
X148995238Y-102933333D01*
X149090476Y-102980952D01*
X149138095Y-103028571D01*
X149185714Y-103123810D01*
X177692857Y-95732381D02*
X178026191Y-95256190D01*
X178264286Y-95732381D02*
X178264286Y-94732381D01*
X177883333Y-94732381D01*
X177788095Y-94780000D01*
X177740476Y-94827619D01*
X177692857Y-94922857D01*
X177692857Y-95065714D01*
X177740476Y-95160952D01*
X177788095Y-95208571D01*
X177883333Y-95256190D01*
X178264286Y-95256190D01*
X176835714Y-94732381D02*
X177026191Y-94732381D01*
X177121429Y-94780000D01*
X177169048Y-94827619D01*
X177264286Y-94970476D01*
X177311905Y-95160952D01*
X177311905Y-95541905D01*
X177264286Y-95637143D01*
X177216667Y-95684762D01*
X177121429Y-95732381D01*
X176930952Y-95732381D01*
X176835714Y-95684762D01*
X176788095Y-95637143D01*
X176740476Y-95541905D01*
X176740476Y-95303810D01*
X176788095Y-95208571D01*
X176835714Y-95160952D01*
X176930952Y-95113333D01*
X177121429Y-95113333D01*
X177216667Y-95160952D01*
X177264286Y-95208571D01*
X177311905Y-95303810D01*
X175835714Y-94732381D02*
X176311905Y-94732381D01*
X176359524Y-95208571D01*
X176311905Y-95160952D01*
X176216667Y-95113333D01*
X175978571Y-95113333D01*
X175883333Y-95160952D01*
X175835714Y-95208571D01*
X175788095Y-95303810D01*
X175788095Y-95541905D01*
X175835714Y-95637143D01*
X175883333Y-95684762D01*
X175978571Y-95732381D01*
X176216667Y-95732381D01*
X176311905Y-95684762D01*
X176359524Y-95637143D01*
X177722857Y-90722381D02*
X178056191Y-90246190D01*
X178294286Y-90722381D02*
X178294286Y-89722381D01*
X177913333Y-89722381D01*
X177818095Y-89770000D01*
X177770476Y-89817619D01*
X177722857Y-89912857D01*
X177722857Y-90055714D01*
X177770476Y-90150952D01*
X177818095Y-90198571D01*
X177913333Y-90246190D01*
X178294286Y-90246190D01*
X176865714Y-89722381D02*
X177056191Y-89722381D01*
X177151429Y-89770000D01*
X177199048Y-89817619D01*
X177294286Y-89960476D01*
X177341905Y-90150952D01*
X177341905Y-90531905D01*
X177294286Y-90627143D01*
X177246667Y-90674762D01*
X177151429Y-90722381D01*
X176960952Y-90722381D01*
X176865714Y-90674762D01*
X176818095Y-90627143D01*
X176770476Y-90531905D01*
X176770476Y-90293810D01*
X176818095Y-90198571D01*
X176865714Y-90150952D01*
X176960952Y-90103333D01*
X177151429Y-90103333D01*
X177246667Y-90150952D01*
X177294286Y-90198571D01*
X177341905Y-90293810D01*
X175913333Y-90055714D02*
X175913333Y-90722381D01*
X176151429Y-89674762D02*
X176389524Y-90389048D01*
X175770476Y-90389048D01*
X177742857Y-85932381D02*
X178076191Y-85456190D01*
X178314286Y-85932381D02*
X178314286Y-84932381D01*
X177933333Y-84932381D01*
X177838095Y-84980000D01*
X177790476Y-85027619D01*
X177742857Y-85122857D01*
X177742857Y-85265714D01*
X177790476Y-85360952D01*
X177838095Y-85408571D01*
X177933333Y-85456190D01*
X178314286Y-85456190D01*
X176885714Y-84932381D02*
X177076191Y-84932381D01*
X177171429Y-84980000D01*
X177219048Y-85027619D01*
X177314286Y-85170476D01*
X177361905Y-85360952D01*
X177361905Y-85741905D01*
X177314286Y-85837143D01*
X177266667Y-85884762D01*
X177171429Y-85932381D01*
X176980952Y-85932381D01*
X176885714Y-85884762D01*
X176838095Y-85837143D01*
X176790476Y-85741905D01*
X176790476Y-85503810D01*
X176838095Y-85408571D01*
X176885714Y-85360952D01*
X176980952Y-85313333D01*
X177171429Y-85313333D01*
X177266667Y-85360952D01*
X177314286Y-85408571D01*
X177361905Y-85503810D01*
X176457143Y-84932381D02*
X175838095Y-84932381D01*
X176171429Y-85313333D01*
X176028571Y-85313333D01*
X175933333Y-85360952D01*
X175885714Y-85408571D01*
X175838095Y-85503810D01*
X175838095Y-85741905D01*
X175885714Y-85837143D01*
X175933333Y-85884762D01*
X176028571Y-85932381D01*
X176314286Y-85932381D01*
X176409524Y-85884762D01*
X176457143Y-85837143D01*
X168666666Y-106052381D02*
X169000000Y-105576190D01*
X169238095Y-106052381D02*
X169238095Y-105052381D01*
X168857142Y-105052381D01*
X168761904Y-105100000D01*
X168714285Y-105147619D01*
X168666666Y-105242857D01*
X168666666Y-105385714D01*
X168714285Y-105480952D01*
X168761904Y-105528571D01*
X168857142Y-105576190D01*
X169238095Y-105576190D01*
X168095238Y-105480952D02*
X168190476Y-105433333D01*
X168238095Y-105385714D01*
X168285714Y-105290476D01*
X168285714Y-105242857D01*
X168238095Y-105147619D01*
X168190476Y-105100000D01*
X168095238Y-105052381D01*
X167904761Y-105052381D01*
X167809523Y-105100000D01*
X167761904Y-105147619D01*
X167714285Y-105242857D01*
X167714285Y-105290476D01*
X167761904Y-105385714D01*
X167809523Y-105433333D01*
X167904761Y-105480952D01*
X168095238Y-105480952D01*
X168190476Y-105528571D01*
X168238095Y-105576190D01*
X168285714Y-105671429D01*
X168285714Y-105861905D01*
X168238095Y-105957143D01*
X168190476Y-106004762D01*
X168095238Y-106052381D01*
X167904761Y-106052381D01*
X167809523Y-106004762D01*
X167761904Y-105957143D01*
X167714285Y-105861905D01*
X167714285Y-105671429D01*
X167761904Y-105576190D01*
X167809523Y-105528571D01*
X167904761Y-105480952D01*
X136866666Y-111002381D02*
X137200000Y-110526190D01*
X137438095Y-111002381D02*
X137438095Y-110002381D01*
X137057142Y-110002381D01*
X136961904Y-110050000D01*
X136914285Y-110097619D01*
X136866666Y-110192857D01*
X136866666Y-110335714D01*
X136914285Y-110430952D01*
X136961904Y-110478571D01*
X137057142Y-110526190D01*
X137438095Y-110526190D01*
X136533333Y-110002381D02*
X135866666Y-110002381D01*
X136295238Y-111002381D01*
X140466666Y-111002381D02*
X140800000Y-110526190D01*
X141038095Y-111002381D02*
X141038095Y-110002381D01*
X140657142Y-110002381D01*
X140561904Y-110050000D01*
X140514285Y-110097619D01*
X140466666Y-110192857D01*
X140466666Y-110335714D01*
X140514285Y-110430952D01*
X140561904Y-110478571D01*
X140657142Y-110526190D01*
X141038095Y-110526190D01*
X139609523Y-110002381D02*
X139800000Y-110002381D01*
X139895238Y-110050000D01*
X139942857Y-110097619D01*
X140038095Y-110240476D01*
X140085714Y-110430952D01*
X140085714Y-110811905D01*
X140038095Y-110907143D01*
X139990476Y-110954762D01*
X139895238Y-111002381D01*
X139704761Y-111002381D01*
X139609523Y-110954762D01*
X139561904Y-110907143D01*
X139514285Y-110811905D01*
X139514285Y-110573810D01*
X139561904Y-110478571D01*
X139609523Y-110430952D01*
X139704761Y-110383333D01*
X139895238Y-110383333D01*
X139990476Y-110430952D01*
X140038095Y-110478571D01*
X140085714Y-110573810D01*
X169286666Y-80552381D02*
X169620000Y-80076190D01*
X169858095Y-80552381D02*
X169858095Y-79552381D01*
X169477142Y-79552381D01*
X169381904Y-79600000D01*
X169334285Y-79647619D01*
X169286666Y-79742857D01*
X169286666Y-79885714D01*
X169334285Y-79980952D01*
X169381904Y-80028571D01*
X169477142Y-80076190D01*
X169858095Y-80076190D01*
X168381904Y-79552381D02*
X168858095Y-79552381D01*
X168905714Y-80028571D01*
X168858095Y-79980952D01*
X168762857Y-79933333D01*
X168524761Y-79933333D01*
X168429523Y-79980952D01*
X168381904Y-80028571D01*
X168334285Y-80123810D01*
X168334285Y-80361905D01*
X168381904Y-80457143D01*
X168429523Y-80504762D01*
X168524761Y-80552381D01*
X168762857Y-80552381D01*
X168858095Y-80504762D01*
X168905714Y-80457143D01*
X163726666Y-80512381D02*
X164060000Y-80036190D01*
X164298095Y-80512381D02*
X164298095Y-79512381D01*
X163917142Y-79512381D01*
X163821904Y-79560000D01*
X163774285Y-79607619D01*
X163726666Y-79702857D01*
X163726666Y-79845714D01*
X163774285Y-79940952D01*
X163821904Y-79988571D01*
X163917142Y-80036190D01*
X164298095Y-80036190D01*
X163345714Y-79607619D02*
X163298095Y-79560000D01*
X163202857Y-79512381D01*
X162964761Y-79512381D01*
X162869523Y-79560000D01*
X162821904Y-79607619D01*
X162774285Y-79702857D01*
X162774285Y-79798095D01*
X162821904Y-79940952D01*
X163393333Y-80512381D01*
X162774285Y-80512381D01*
X163726666Y-75142381D02*
X164060000Y-74666190D01*
X164298095Y-75142381D02*
X164298095Y-74142381D01*
X163917142Y-74142381D01*
X163821904Y-74190000D01*
X163774285Y-74237619D01*
X163726666Y-74332857D01*
X163726666Y-74475714D01*
X163774285Y-74570952D01*
X163821904Y-74618571D01*
X163917142Y-74666190D01*
X164298095Y-74666190D01*
X162774285Y-75142381D02*
X163345714Y-75142381D01*
X163060000Y-75142381D02*
X163060000Y-74142381D01*
X163155238Y-74285238D01*
X163250476Y-74380476D01*
X163345714Y-74428095D01*
X125647381Y-113128714D02*
X124647381Y-113128714D01*
X124647381Y-113366809D01*
X124695000Y-113509667D01*
X124790238Y-113604905D01*
X124885476Y-113652524D01*
X125075952Y-113700143D01*
X125218810Y-113700143D01*
X125409286Y-113652524D01*
X125504524Y-113604905D01*
X125599762Y-113509667D01*
X125647381Y-113366809D01*
X125647381Y-113128714D01*
X125647381Y-114652524D02*
X125647381Y-114081095D01*
X125647381Y-114366809D02*
X124647381Y-114366809D01*
X124790238Y-114271571D01*
X124885476Y-114176333D01*
X124933095Y-114081095D01*
X124980714Y-115509667D02*
X125647381Y-115509667D01*
X124599762Y-115271571D02*
X125314048Y-115033476D01*
X125314048Y-115652524D01*
X118447381Y-112688714D02*
X117447381Y-112688714D01*
X117447381Y-112926809D01*
X117495000Y-113069667D01*
X117590238Y-113164905D01*
X117685476Y-113212524D01*
X117875952Y-113260143D01*
X118018810Y-113260143D01*
X118209286Y-113212524D01*
X118304524Y-113164905D01*
X118399762Y-113069667D01*
X118447381Y-112926809D01*
X118447381Y-112688714D01*
X118447381Y-114212524D02*
X118447381Y-113641095D01*
X118447381Y-113926809D02*
X117447381Y-113926809D01*
X117590238Y-113831571D01*
X117685476Y-113736333D01*
X117733095Y-113641095D01*
X117447381Y-114545857D02*
X117447381Y-115164905D01*
X117828333Y-114831571D01*
X117828333Y-114974429D01*
X117875952Y-115069667D01*
X117923571Y-115117286D01*
X118018810Y-115164905D01*
X118256905Y-115164905D01*
X118352143Y-115117286D01*
X118399762Y-115069667D01*
X118447381Y-114974429D01*
X118447381Y-114688714D01*
X118399762Y-114593476D01*
X118352143Y-114545857D01*
X125647381Y-95628714D02*
X124647381Y-95628714D01*
X124647381Y-95866809D01*
X124695000Y-96009667D01*
X124790238Y-96104905D01*
X124885476Y-96152524D01*
X125075952Y-96200143D01*
X125218810Y-96200143D01*
X125409286Y-96152524D01*
X125504524Y-96104905D01*
X125599762Y-96009667D01*
X125647381Y-95866809D01*
X125647381Y-95628714D01*
X125647381Y-97152524D02*
X125647381Y-96581095D01*
X125647381Y-96866809D02*
X124647381Y-96866809D01*
X124790238Y-96771571D01*
X124885476Y-96676333D01*
X124933095Y-96581095D01*
X124647381Y-97771571D02*
X124647381Y-97866810D01*
X124695000Y-97962048D01*
X124742619Y-98009667D01*
X124837857Y-98057286D01*
X125028333Y-98104905D01*
X125266429Y-98104905D01*
X125456905Y-98057286D01*
X125552143Y-98009667D01*
X125599762Y-97962048D01*
X125647381Y-97866810D01*
X125647381Y-97771571D01*
X125599762Y-97676333D01*
X125552143Y-97628714D01*
X125456905Y-97581095D01*
X125266429Y-97533476D01*
X125028333Y-97533476D01*
X124837857Y-97581095D01*
X124742619Y-97628714D01*
X124695000Y-97676333D01*
X124647381Y-97771571D01*
X118717381Y-96594905D02*
X117717381Y-96594905D01*
X117717381Y-96833000D01*
X117765000Y-96975858D01*
X117860238Y-97071096D01*
X117955476Y-97118715D01*
X118145952Y-97166334D01*
X118288810Y-97166334D01*
X118479286Y-97118715D01*
X118574524Y-97071096D01*
X118669762Y-96975858D01*
X118717381Y-96833000D01*
X118717381Y-96594905D01*
X118717381Y-97642524D02*
X118717381Y-97833000D01*
X118669762Y-97928239D01*
X118622143Y-97975858D01*
X118479286Y-98071096D01*
X118288810Y-98118715D01*
X117907857Y-98118715D01*
X117812619Y-98071096D01*
X117765000Y-98023477D01*
X117717381Y-97928239D01*
X117717381Y-97737762D01*
X117765000Y-97642524D01*
X117812619Y-97594905D01*
X117907857Y-97547286D01*
X118145952Y-97547286D01*
X118241190Y-97594905D01*
X118288810Y-97642524D01*
X118336429Y-97737762D01*
X118336429Y-97928239D01*
X118288810Y-98023477D01*
X118241190Y-98071096D01*
X118145952Y-98118715D01*
X125647381Y-87704905D02*
X124647381Y-87704905D01*
X124647381Y-87943000D01*
X124695000Y-88085858D01*
X124790238Y-88181096D01*
X124885476Y-88228715D01*
X125075952Y-88276334D01*
X125218810Y-88276334D01*
X125409286Y-88228715D01*
X125504524Y-88181096D01*
X125599762Y-88085858D01*
X125647381Y-87943000D01*
X125647381Y-87704905D01*
X125075952Y-88847762D02*
X125028333Y-88752524D01*
X124980714Y-88704905D01*
X124885476Y-88657286D01*
X124837857Y-88657286D01*
X124742619Y-88704905D01*
X124695000Y-88752524D01*
X124647381Y-88847762D01*
X124647381Y-89038239D01*
X124695000Y-89133477D01*
X124742619Y-89181096D01*
X124837857Y-89228715D01*
X124885476Y-89228715D01*
X124980714Y-89181096D01*
X125028333Y-89133477D01*
X125075952Y-89038239D01*
X125075952Y-88847762D01*
X125123571Y-88752524D01*
X125171190Y-88704905D01*
X125266429Y-88657286D01*
X125456905Y-88657286D01*
X125552143Y-88704905D01*
X125599762Y-88752524D01*
X125647381Y-88847762D01*
X125647381Y-89038239D01*
X125599762Y-89133477D01*
X125552143Y-89181096D01*
X125456905Y-89228715D01*
X125266429Y-89228715D01*
X125171190Y-89181096D01*
X125123571Y-89133477D01*
X125075952Y-89038239D01*
X118637381Y-86414905D02*
X117637381Y-86414905D01*
X117637381Y-86653000D01*
X117685000Y-86795858D01*
X117780238Y-86891096D01*
X117875476Y-86938715D01*
X118065952Y-86986334D01*
X118208810Y-86986334D01*
X118399286Y-86938715D01*
X118494524Y-86891096D01*
X118589762Y-86795858D01*
X118637381Y-86653000D01*
X118637381Y-86414905D01*
X117637381Y-87319667D02*
X117637381Y-87986334D01*
X118637381Y-87557762D01*
X125677381Y-79824905D02*
X124677381Y-79824905D01*
X124677381Y-80063000D01*
X124725000Y-80205858D01*
X124820238Y-80301096D01*
X124915476Y-80348715D01*
X125105952Y-80396334D01*
X125248810Y-80396334D01*
X125439286Y-80348715D01*
X125534524Y-80301096D01*
X125629762Y-80205858D01*
X125677381Y-80063000D01*
X125677381Y-79824905D01*
X124677381Y-81253477D02*
X124677381Y-81063000D01*
X124725000Y-80967762D01*
X124772619Y-80920143D01*
X124915476Y-80824905D01*
X125105952Y-80777286D01*
X125486905Y-80777286D01*
X125582143Y-80824905D01*
X125629762Y-80872524D01*
X125677381Y-80967762D01*
X125677381Y-81158239D01*
X125629762Y-81253477D01*
X125582143Y-81301096D01*
X125486905Y-81348715D01*
X125248810Y-81348715D01*
X125153571Y-81301096D01*
X125105952Y-81253477D01*
X125058333Y-81158239D01*
X125058333Y-80967762D01*
X125105952Y-80872524D01*
X125153571Y-80824905D01*
X125248810Y-80777286D01*
X118717381Y-77584905D02*
X117717381Y-77584905D01*
X117717381Y-77823000D01*
X117765000Y-77965858D01*
X117860238Y-78061096D01*
X117955476Y-78108715D01*
X118145952Y-78156334D01*
X118288810Y-78156334D01*
X118479286Y-78108715D01*
X118574524Y-78061096D01*
X118669762Y-77965858D01*
X118717381Y-77823000D01*
X118717381Y-77584905D01*
X117717381Y-79061096D02*
X117717381Y-78584905D01*
X118193571Y-78537286D01*
X118145952Y-78584905D01*
X118098333Y-78680143D01*
X118098333Y-78918239D01*
X118145952Y-79013477D01*
X118193571Y-79061096D01*
X118288810Y-79108715D01*
X118526905Y-79108715D01*
X118622143Y-79061096D01*
X118669762Y-79013477D01*
X118717381Y-78918239D01*
X118717381Y-78680143D01*
X118669762Y-78584905D01*
X118622143Y-78537286D01*
X125607381Y-71604905D02*
X124607381Y-71604905D01*
X124607381Y-71843000D01*
X124655000Y-71985858D01*
X124750238Y-72081096D01*
X124845476Y-72128715D01*
X125035952Y-72176334D01*
X125178810Y-72176334D01*
X125369286Y-72128715D01*
X125464524Y-72081096D01*
X125559762Y-71985858D01*
X125607381Y-71843000D01*
X125607381Y-71604905D01*
X124940714Y-73033477D02*
X125607381Y-73033477D01*
X124559762Y-72795381D02*
X125274048Y-72557286D01*
X125274048Y-73176334D01*
X118717381Y-70614905D02*
X117717381Y-70614905D01*
X117717381Y-70853000D01*
X117765000Y-70995858D01*
X117860238Y-71091096D01*
X117955476Y-71138715D01*
X118145952Y-71186334D01*
X118288810Y-71186334D01*
X118479286Y-71138715D01*
X118574524Y-71091096D01*
X118669762Y-70995858D01*
X118717381Y-70853000D01*
X118717381Y-70614905D01*
X117717381Y-71519667D02*
X117717381Y-72138715D01*
X118098333Y-71805381D01*
X118098333Y-71948239D01*
X118145952Y-72043477D01*
X118193571Y-72091096D01*
X118288810Y-72138715D01*
X118526905Y-72138715D01*
X118622143Y-72091096D01*
X118669762Y-72043477D01*
X118717381Y-71948239D01*
X118717381Y-71662524D01*
X118669762Y-71567286D01*
X118622143Y-71519667D01*
X154272857Y-76787143D02*
X154320476Y-76834762D01*
X154463333Y-76882381D01*
X154558571Y-76882381D01*
X154701429Y-76834762D01*
X154796667Y-76739524D01*
X154844286Y-76644286D01*
X154891905Y-76453810D01*
X154891905Y-76310952D01*
X154844286Y-76120476D01*
X154796667Y-76025238D01*
X154701429Y-75930000D01*
X154558571Y-75882381D01*
X154463333Y-75882381D01*
X154320476Y-75930000D01*
X154272857Y-75977619D01*
X153939524Y-75882381D02*
X153320476Y-75882381D01*
X153653810Y-76263333D01*
X153510952Y-76263333D01*
X153415714Y-76310952D01*
X153368095Y-76358571D01*
X153320476Y-76453810D01*
X153320476Y-76691905D01*
X153368095Y-76787143D01*
X153415714Y-76834762D01*
X153510952Y-76882381D01*
X153796667Y-76882381D01*
X153891905Y-76834762D01*
X153939524Y-76787143D01*
X152463333Y-76215714D02*
X152463333Y-76882381D01*
X152701429Y-75834762D02*
X152939524Y-76549048D01*
X152320476Y-76549048D01*
X148652857Y-77337143D02*
X148700476Y-77384762D01*
X148843333Y-77432381D01*
X148938571Y-77432381D01*
X149081429Y-77384762D01*
X149176667Y-77289524D01*
X149224286Y-77194286D01*
X149271905Y-77003810D01*
X149271905Y-76860952D01*
X149224286Y-76670476D01*
X149176667Y-76575238D01*
X149081429Y-76480000D01*
X148938571Y-76432381D01*
X148843333Y-76432381D01*
X148700476Y-76480000D01*
X148652857Y-76527619D01*
X148319524Y-76432381D02*
X147700476Y-76432381D01*
X148033810Y-76813333D01*
X147890952Y-76813333D01*
X147795714Y-76860952D01*
X147748095Y-76908571D01*
X147700476Y-77003810D01*
X147700476Y-77241905D01*
X147748095Y-77337143D01*
X147795714Y-77384762D01*
X147890952Y-77432381D01*
X148176667Y-77432381D01*
X148271905Y-77384762D01*
X148319524Y-77337143D01*
X147367143Y-76432381D02*
X146748095Y-76432381D01*
X147081429Y-76813333D01*
X146938571Y-76813333D01*
X146843333Y-76860952D01*
X146795714Y-76908571D01*
X146748095Y-77003810D01*
X146748095Y-77241905D01*
X146795714Y-77337143D01*
X146843333Y-77384762D01*
X146938571Y-77432381D01*
X147224286Y-77432381D01*
X147319524Y-77384762D01*
X147367143Y-77337143D01*
X155912857Y-109187143D02*
X155960476Y-109234762D01*
X156103333Y-109282381D01*
X156198571Y-109282381D01*
X156341429Y-109234762D01*
X156436667Y-109139524D01*
X156484286Y-109044286D01*
X156531905Y-108853810D01*
X156531905Y-108710952D01*
X156484286Y-108520476D01*
X156436667Y-108425238D01*
X156341429Y-108330000D01*
X156198571Y-108282381D01*
X156103333Y-108282381D01*
X155960476Y-108330000D01*
X155912857Y-108377619D01*
X155579524Y-108282381D02*
X154960476Y-108282381D01*
X155293810Y-108663333D01*
X155150952Y-108663333D01*
X155055714Y-108710952D01*
X155008095Y-108758571D01*
X154960476Y-108853810D01*
X154960476Y-109091905D01*
X155008095Y-109187143D01*
X155055714Y-109234762D01*
X155150952Y-109282381D01*
X155436667Y-109282381D01*
X155531905Y-109234762D01*
X155579524Y-109187143D01*
X154579524Y-108377619D02*
X154531905Y-108330000D01*
X154436667Y-108282381D01*
X154198571Y-108282381D01*
X154103333Y-108330000D01*
X154055714Y-108377619D01*
X154008095Y-108472857D01*
X154008095Y-108568095D01*
X154055714Y-108710952D01*
X154627143Y-109282381D01*
X154008095Y-109282381D01*
X159702857Y-109107143D02*
X159750476Y-109154762D01*
X159893333Y-109202381D01*
X159988571Y-109202381D01*
X160131429Y-109154762D01*
X160226667Y-109059524D01*
X160274286Y-108964286D01*
X160321905Y-108773810D01*
X160321905Y-108630952D01*
X160274286Y-108440476D01*
X160226667Y-108345238D01*
X160131429Y-108250000D01*
X159988571Y-108202381D01*
X159893333Y-108202381D01*
X159750476Y-108250000D01*
X159702857Y-108297619D01*
X159369524Y-108202381D02*
X158750476Y-108202381D01*
X159083810Y-108583333D01*
X158940952Y-108583333D01*
X158845714Y-108630952D01*
X158798095Y-108678571D01*
X158750476Y-108773810D01*
X158750476Y-109011905D01*
X158798095Y-109107143D01*
X158845714Y-109154762D01*
X158940952Y-109202381D01*
X159226667Y-109202381D01*
X159321905Y-109154762D01*
X159369524Y-109107143D01*
X157798095Y-109202381D02*
X158369524Y-109202381D01*
X158083810Y-109202381D02*
X158083810Y-108202381D01*
X158179048Y-108345238D01*
X158274286Y-108440476D01*
X158369524Y-108488095D01*
X163122857Y-109107143D02*
X163170476Y-109154762D01*
X163313333Y-109202381D01*
X163408571Y-109202381D01*
X163551429Y-109154762D01*
X163646667Y-109059524D01*
X163694286Y-108964286D01*
X163741905Y-108773810D01*
X163741905Y-108630952D01*
X163694286Y-108440476D01*
X163646667Y-108345238D01*
X163551429Y-108250000D01*
X163408571Y-108202381D01*
X163313333Y-108202381D01*
X163170476Y-108250000D01*
X163122857Y-108297619D01*
X162789524Y-108202381D02*
X162170476Y-108202381D01*
X162503810Y-108583333D01*
X162360952Y-108583333D01*
X162265714Y-108630952D01*
X162218095Y-108678571D01*
X162170476Y-108773810D01*
X162170476Y-109011905D01*
X162218095Y-109107143D01*
X162265714Y-109154762D01*
X162360952Y-109202381D01*
X162646667Y-109202381D01*
X162741905Y-109154762D01*
X162789524Y-109107143D01*
X161551429Y-108202381D02*
X161456190Y-108202381D01*
X161360952Y-108250000D01*
X161313333Y-108297619D01*
X161265714Y-108392857D01*
X161218095Y-108583333D01*
X161218095Y-108821429D01*
X161265714Y-109011905D01*
X161313333Y-109107143D01*
X161360952Y-109154762D01*
X161456190Y-109202381D01*
X161551429Y-109202381D01*
X161646667Y-109154762D01*
X161694286Y-109107143D01*
X161741905Y-109011905D01*
X161789524Y-108821429D01*
X161789524Y-108583333D01*
X161741905Y-108392857D01*
X161694286Y-108297619D01*
X161646667Y-108250000D01*
X161551429Y-108202381D01*
X147252857Y-109837143D02*
X147300476Y-109884762D01*
X147443333Y-109932381D01*
X147538571Y-109932381D01*
X147681429Y-109884762D01*
X147776667Y-109789524D01*
X147824286Y-109694286D01*
X147871905Y-109503810D01*
X147871905Y-109360952D01*
X147824286Y-109170476D01*
X147776667Y-109075238D01*
X147681429Y-108980000D01*
X147538571Y-108932381D01*
X147443333Y-108932381D01*
X147300476Y-108980000D01*
X147252857Y-109027619D01*
X146871905Y-109027619D02*
X146824286Y-108980000D01*
X146729048Y-108932381D01*
X146490952Y-108932381D01*
X146395714Y-108980000D01*
X146348095Y-109027619D01*
X146300476Y-109122857D01*
X146300476Y-109218095D01*
X146348095Y-109360952D01*
X146919524Y-109932381D01*
X146300476Y-109932381D01*
X145824286Y-109932381D02*
X145633810Y-109932381D01*
X145538571Y-109884762D01*
X145490952Y-109837143D01*
X145395714Y-109694286D01*
X145348095Y-109503810D01*
X145348095Y-109122857D01*
X145395714Y-109027619D01*
X145443333Y-108980000D01*
X145538571Y-108932381D01*
X145729048Y-108932381D01*
X145824286Y-108980000D01*
X145871905Y-109027619D01*
X145919524Y-109122857D01*
X145919524Y-109360952D01*
X145871905Y-109456190D01*
X145824286Y-109503810D01*
X145729048Y-109551429D01*
X145538571Y-109551429D01*
X145443333Y-109503810D01*
X145395714Y-109456190D01*
X145348095Y-109360952D01*
X157252857Y-71847143D02*
X157300476Y-71894762D01*
X157443333Y-71942381D01*
X157538571Y-71942381D01*
X157681429Y-71894762D01*
X157776667Y-71799524D01*
X157824286Y-71704286D01*
X157871905Y-71513810D01*
X157871905Y-71370952D01*
X157824286Y-71180476D01*
X157776667Y-71085238D01*
X157681429Y-70990000D01*
X157538571Y-70942381D01*
X157443333Y-70942381D01*
X157300476Y-70990000D01*
X157252857Y-71037619D01*
X156871905Y-71037619D02*
X156824286Y-70990000D01*
X156729048Y-70942381D01*
X156490952Y-70942381D01*
X156395714Y-70990000D01*
X156348095Y-71037619D01*
X156300476Y-71132857D01*
X156300476Y-71228095D01*
X156348095Y-71370952D01*
X156919524Y-71942381D01*
X156300476Y-71942381D01*
X155729048Y-71370952D02*
X155824286Y-71323333D01*
X155871905Y-71275714D01*
X155919524Y-71180476D01*
X155919524Y-71132857D01*
X155871905Y-71037619D01*
X155824286Y-70990000D01*
X155729048Y-70942381D01*
X155538571Y-70942381D01*
X155443333Y-70990000D01*
X155395714Y-71037619D01*
X155348095Y-71132857D01*
X155348095Y-71180476D01*
X155395714Y-71275714D01*
X155443333Y-71323333D01*
X155538571Y-71370952D01*
X155729048Y-71370952D01*
X155824286Y-71418571D01*
X155871905Y-71466190D01*
X155919524Y-71561429D01*
X155919524Y-71751905D01*
X155871905Y-71847143D01*
X155824286Y-71894762D01*
X155729048Y-71942381D01*
X155538571Y-71942381D01*
X155443333Y-71894762D01*
X155395714Y-71847143D01*
X155348095Y-71751905D01*
X155348095Y-71561429D01*
X155395714Y-71466190D01*
X155443333Y-71418571D01*
X155538571Y-71370952D01*
X140526666Y-107357143D02*
X140574285Y-107404762D01*
X140717142Y-107452381D01*
X140812380Y-107452381D01*
X140955238Y-107404762D01*
X141050476Y-107309524D01*
X141098095Y-107214286D01*
X141145714Y-107023810D01*
X141145714Y-106880952D01*
X141098095Y-106690476D01*
X141050476Y-106595238D01*
X140955238Y-106500000D01*
X140812380Y-106452381D01*
X140717142Y-106452381D01*
X140574285Y-106500000D01*
X140526666Y-106547619D01*
X139955238Y-106880952D02*
X140050476Y-106833333D01*
X140098095Y-106785714D01*
X140145714Y-106690476D01*
X140145714Y-106642857D01*
X140098095Y-106547619D01*
X140050476Y-106500000D01*
X139955238Y-106452381D01*
X139764761Y-106452381D01*
X139669523Y-106500000D01*
X139621904Y-106547619D01*
X139574285Y-106642857D01*
X139574285Y-106690476D01*
X139621904Y-106785714D01*
X139669523Y-106833333D01*
X139764761Y-106880952D01*
X139955238Y-106880952D01*
X140050476Y-106928571D01*
X140098095Y-106976190D01*
X140145714Y-107071429D01*
X140145714Y-107261905D01*
X140098095Y-107357143D01*
X140050476Y-107404762D01*
X139955238Y-107452381D01*
X139764761Y-107452381D01*
X139669523Y-107404762D01*
X139621904Y-107357143D01*
X139574285Y-107261905D01*
X139574285Y-107071429D01*
X139621904Y-106976190D01*
X139669523Y-106928571D01*
X139764761Y-106880952D01*
X169246666Y-75287143D02*
X169294285Y-75334762D01*
X169437142Y-75382381D01*
X169532380Y-75382381D01*
X169675238Y-75334762D01*
X169770476Y-75239524D01*
X169818095Y-75144286D01*
X169865714Y-74953810D01*
X169865714Y-74810952D01*
X169818095Y-74620476D01*
X169770476Y-74525238D01*
X169675238Y-74430000D01*
X169532380Y-74382381D01*
X169437142Y-74382381D01*
X169294285Y-74430000D01*
X169246666Y-74477619D01*
X168913333Y-74382381D02*
X168246666Y-74382381D01*
X168675238Y-75382381D01*
X143262381Y-76171905D02*
X142262381Y-76171905D01*
X142262381Y-76410000D01*
X142310000Y-76552858D01*
X142405238Y-76648096D01*
X142500476Y-76695715D01*
X142690952Y-76743334D01*
X142833810Y-76743334D01*
X143024286Y-76695715D01*
X143119524Y-76648096D01*
X143214762Y-76552858D01*
X143262381Y-76410000D01*
X143262381Y-76171905D01*
X143262381Y-77695715D02*
X143262381Y-77124286D01*
X143262381Y-77410000D02*
X142262381Y-77410000D01*
X142405238Y-77314762D01*
X142500476Y-77219524D01*
X142548095Y-77124286D01*
X146626666Y-103567143D02*
X146674285Y-103614762D01*
X146817142Y-103662381D01*
X146912380Y-103662381D01*
X147055238Y-103614762D01*
X147150476Y-103519524D01*
X147198095Y-103424286D01*
X147245714Y-103233810D01*
X147245714Y-103090952D01*
X147198095Y-102900476D01*
X147150476Y-102805238D01*
X147055238Y-102710000D01*
X146912380Y-102662381D01*
X146817142Y-102662381D01*
X146674285Y-102710000D01*
X146626666Y-102757619D01*
X145769523Y-102995714D02*
X145769523Y-103662381D01*
X146007619Y-102614762D02*
X146245714Y-103329048D01*
X145626666Y-103329048D01*
X169936666Y-88407143D02*
X169984285Y-88454762D01*
X170127142Y-88502381D01*
X170222380Y-88502381D01*
X170365238Y-88454762D01*
X170460476Y-88359524D01*
X170508095Y-88264286D01*
X170555714Y-88073810D01*
X170555714Y-87930952D01*
X170508095Y-87740476D01*
X170460476Y-87645238D01*
X170365238Y-87550000D01*
X170222380Y-87502381D01*
X170127142Y-87502381D01*
X169984285Y-87550000D01*
X169936666Y-87597619D01*
X169603333Y-87502381D02*
X168984285Y-87502381D01*
X169317619Y-87883333D01*
X169174761Y-87883333D01*
X169079523Y-87930952D01*
X169031904Y-87978571D01*
X168984285Y-88073810D01*
X168984285Y-88311905D01*
X169031904Y-88407143D01*
X169079523Y-88454762D01*
X169174761Y-88502381D01*
X169460476Y-88502381D01*
X169555714Y-88454762D01*
X169603333Y-88407143D01*
X166916666Y-98667143D02*
X166964285Y-98714762D01*
X167107142Y-98762381D01*
X167202380Y-98762381D01*
X167345238Y-98714762D01*
X167440476Y-98619524D01*
X167488095Y-98524286D01*
X167535714Y-98333810D01*
X167535714Y-98190952D01*
X167488095Y-98000476D01*
X167440476Y-97905238D01*
X167345238Y-97810000D01*
X167202380Y-97762381D01*
X167107142Y-97762381D01*
X166964285Y-97810000D01*
X166916666Y-97857619D01*
X165964285Y-98762381D02*
X166535714Y-98762381D01*
X166250000Y-98762381D02*
X166250000Y-97762381D01*
X166345238Y-97905238D01*
X166440476Y-98000476D01*
X166535714Y-98048095D01*
X171802381Y-98733334D02*
X171326190Y-98400000D01*
X171802381Y-98161905D02*
X170802381Y-98161905D01*
X170802381Y-98542858D01*
X170850000Y-98638096D01*
X170897619Y-98685715D01*
X170992857Y-98733334D01*
X171135714Y-98733334D01*
X171230952Y-98685715D01*
X171278571Y-98638096D01*
X171326190Y-98542858D01*
X171326190Y-98161905D01*
X170802381Y-99066667D02*
X170802381Y-99685715D01*
X171183333Y-99352381D01*
X171183333Y-99495239D01*
X171230952Y-99590477D01*
X171278571Y-99638096D01*
X171373810Y-99685715D01*
X171611905Y-99685715D01*
X171707143Y-99638096D01*
X171754762Y-99590477D01*
X171802381Y-99495239D01*
X171802381Y-99209524D01*
X171754762Y-99114286D01*
X171707143Y-99066667D01*
X118527381Y-104838714D02*
X117527381Y-104838714D01*
X117527381Y-105076809D01*
X117575000Y-105219667D01*
X117670238Y-105314905D01*
X117765476Y-105362524D01*
X117955952Y-105410143D01*
X118098810Y-105410143D01*
X118289286Y-105362524D01*
X118384524Y-105314905D01*
X118479762Y-105219667D01*
X118527381Y-105076809D01*
X118527381Y-104838714D01*
X118527381Y-106362524D02*
X118527381Y-105791095D01*
X118527381Y-106076809D02*
X117527381Y-106076809D01*
X117670238Y-105981571D01*
X117765476Y-105886333D01*
X117813095Y-105791095D01*
X118527381Y-107314905D02*
X118527381Y-106743476D01*
X118527381Y-107029190D02*
X117527381Y-107029190D01*
X117670238Y-106933952D01*
X117765476Y-106838714D01*
X117813095Y-106743476D01*
X125647381Y-104128714D02*
X124647381Y-104128714D01*
X124647381Y-104366809D01*
X124695000Y-104509667D01*
X124790238Y-104604905D01*
X124885476Y-104652524D01*
X125075952Y-104700143D01*
X125218810Y-104700143D01*
X125409286Y-104652524D01*
X125504524Y-104604905D01*
X125599762Y-104509667D01*
X125647381Y-104366809D01*
X125647381Y-104128714D01*
X125647381Y-105652524D02*
X125647381Y-105081095D01*
X125647381Y-105366809D02*
X124647381Y-105366809D01*
X124790238Y-105271571D01*
X124885476Y-105176333D01*
X124933095Y-105081095D01*
X124742619Y-106033476D02*
X124695000Y-106081095D01*
X124647381Y-106176333D01*
X124647381Y-106414429D01*
X124695000Y-106509667D01*
X124742619Y-106557286D01*
X124837857Y-106604905D01*
X124933095Y-106604905D01*
X125075952Y-106557286D01*
X125647381Y-105985857D01*
X125647381Y-106604905D01*
X169636666Y-85507143D02*
X169684285Y-85554762D01*
X169827142Y-85602381D01*
X169922380Y-85602381D01*
X170065238Y-85554762D01*
X170160476Y-85459524D01*
X170208095Y-85364286D01*
X170255714Y-85173810D01*
X170255714Y-85030952D01*
X170208095Y-84840476D01*
X170160476Y-84745238D01*
X170065238Y-84650000D01*
X169922380Y-84602381D01*
X169827142Y-84602381D01*
X169684285Y-84650000D01*
X169636666Y-84697619D01*
X169255714Y-84697619D02*
X169208095Y-84650000D01*
X169112857Y-84602381D01*
X168874761Y-84602381D01*
X168779523Y-84650000D01*
X168731904Y-84697619D01*
X168684285Y-84792857D01*
X168684285Y-84888095D01*
X168731904Y-85030952D01*
X169303333Y-85602381D01*
X168684285Y-85602381D01*
X156326666Y-101637143D02*
X156374285Y-101684762D01*
X156517142Y-101732381D01*
X156612380Y-101732381D01*
X156755238Y-101684762D01*
X156850476Y-101589524D01*
X156898095Y-101494286D01*
X156945714Y-101303810D01*
X156945714Y-101160952D01*
X156898095Y-100970476D01*
X156850476Y-100875238D01*
X156755238Y-100780000D01*
X156612380Y-100732381D01*
X156517142Y-100732381D01*
X156374285Y-100780000D01*
X156326666Y-100827619D01*
X155421904Y-100732381D02*
X155898095Y-100732381D01*
X155945714Y-101208571D01*
X155898095Y-101160952D01*
X155802857Y-101113333D01*
X155564761Y-101113333D01*
X155469523Y-101160952D01*
X155421904Y-101208571D01*
X155374285Y-101303810D01*
X155374285Y-101541905D01*
X155421904Y-101637143D01*
X155469523Y-101684762D01*
X155564761Y-101732381D01*
X155802857Y-101732381D01*
X155898095Y-101684762D01*
X155945714Y-101637143D01*
X158816666Y-76707143D02*
X158864285Y-76754762D01*
X159007142Y-76802381D01*
X159102380Y-76802381D01*
X159245238Y-76754762D01*
X159340476Y-76659524D01*
X159388095Y-76564286D01*
X159435714Y-76373810D01*
X159435714Y-76230952D01*
X159388095Y-76040476D01*
X159340476Y-75945238D01*
X159245238Y-75850000D01*
X159102380Y-75802381D01*
X159007142Y-75802381D01*
X158864285Y-75850000D01*
X158816666Y-75897619D01*
X158340476Y-76802381D02*
X158150000Y-76802381D01*
X158054761Y-76754762D01*
X158007142Y-76707143D01*
X157911904Y-76564286D01*
X157864285Y-76373810D01*
X157864285Y-75992857D01*
X157911904Y-75897619D01*
X157959523Y-75850000D01*
X158054761Y-75802381D01*
X158245238Y-75802381D01*
X158340476Y-75850000D01*
X158388095Y-75897619D01*
X158435714Y-75992857D01*
X158435714Y-76230952D01*
X158388095Y-76326190D01*
X158340476Y-76373810D01*
X158245238Y-76421429D01*
X158054761Y-76421429D01*
X157959523Y-76373810D01*
X157911904Y-76326190D01*
X157864285Y-76230952D01*
M02*
