G04 #@! TF.FileFunction,Soldermask,Bot*
%FSLAX46Y46*%
G04 Gerber Fmt 4.6, Leading zero omitted, Abs format (unit mm)*
G04 Created by KiCad (PCBNEW 4.0.7) date 05/28/18 23:31:17*
%MOMM*%
%LPD*%
G01*
G04 APERTURE LIST*
%ADD10C,0.100000*%
G04 APERTURE END LIST*
D10*
G36*
X189683090Y-113281729D02*
X190182559Y-113384255D01*
X190652610Y-113581846D01*
X191075321Y-113866968D01*
X191434610Y-114228773D01*
X191716774Y-114653465D01*
X191911076Y-115124878D01*
X192010012Y-115624539D01*
X192010012Y-115624556D01*
X192010111Y-115625057D01*
X192001979Y-116207443D01*
X192001865Y-116207944D01*
X192001865Y-116207962D01*
X191889018Y-116704659D01*
X191681628Y-117170465D01*
X191387713Y-117587116D01*
X191018469Y-117938742D01*
X190587953Y-118211956D01*
X190112579Y-118396341D01*
X189610434Y-118484883D01*
X189100655Y-118474205D01*
X188602668Y-118364715D01*
X188135428Y-118160583D01*
X187716733Y-117869583D01*
X187362534Y-117502798D01*
X187086325Y-117074207D01*
X186898624Y-116600129D01*
X186806580Y-116098616D01*
X186813698Y-115588776D01*
X186919710Y-115090034D01*
X187120576Y-114621379D01*
X187408646Y-114200663D01*
X187772947Y-113843914D01*
X188199599Y-113564720D01*
X188672357Y-113373714D01*
X189173219Y-113278169D01*
X189683090Y-113281729D01*
X189683090Y-113281729D01*
G37*
G36*
X139210950Y-115394795D02*
X139210971Y-115394801D01*
X139211024Y-115394807D01*
X139388140Y-115449633D01*
X139551233Y-115537817D01*
X139694092Y-115656001D01*
X139811275Y-115799681D01*
X139898319Y-115963386D01*
X139951907Y-116140880D01*
X139970000Y-116325403D01*
X139970000Y-116334722D01*
X139969930Y-116344811D01*
X139969928Y-116344826D01*
X139969907Y-116347861D01*
X139949240Y-116532113D01*
X139893179Y-116708842D01*
X139803858Y-116871316D01*
X139684680Y-117013346D01*
X139540185Y-117129523D01*
X139375876Y-117215422D01*
X139198012Y-117267770D01*
X139197958Y-117267775D01*
X139197941Y-117267780D01*
X139013370Y-117284577D01*
X138829050Y-117265205D01*
X138829029Y-117265199D01*
X138828976Y-117265193D01*
X138651860Y-117210367D01*
X138488767Y-117122183D01*
X138345908Y-117003999D01*
X138228725Y-116860319D01*
X138141681Y-116696614D01*
X138088093Y-116519120D01*
X138070000Y-116334597D01*
X138070000Y-116325278D01*
X138070070Y-116315189D01*
X138070072Y-116315174D01*
X138070093Y-116312139D01*
X138090760Y-116127887D01*
X138146821Y-115951158D01*
X138236142Y-115788684D01*
X138355320Y-115646654D01*
X138499815Y-115530477D01*
X138664124Y-115444578D01*
X138841988Y-115392230D01*
X138842042Y-115392225D01*
X138842059Y-115392220D01*
X139026630Y-115375423D01*
X139210950Y-115394795D01*
X139210950Y-115394795D01*
G37*
G36*
X151910950Y-115394795D02*
X151910971Y-115394801D01*
X151911024Y-115394807D01*
X152088140Y-115449633D01*
X152251233Y-115537817D01*
X152394092Y-115656001D01*
X152511275Y-115799681D01*
X152598319Y-115963386D01*
X152651907Y-116140880D01*
X152670000Y-116325403D01*
X152670000Y-116334722D01*
X152669930Y-116344811D01*
X152669928Y-116344826D01*
X152669907Y-116347861D01*
X152649240Y-116532113D01*
X152593179Y-116708842D01*
X152503858Y-116871316D01*
X152384680Y-117013346D01*
X152240185Y-117129523D01*
X152075876Y-117215422D01*
X151898012Y-117267770D01*
X151897958Y-117267775D01*
X151897941Y-117267780D01*
X151713370Y-117284577D01*
X151529050Y-117265205D01*
X151529029Y-117265199D01*
X151528976Y-117265193D01*
X151351860Y-117210367D01*
X151188767Y-117122183D01*
X151045908Y-117003999D01*
X150928725Y-116860319D01*
X150841681Y-116696614D01*
X150788093Y-116519120D01*
X150770000Y-116334597D01*
X150770000Y-116325278D01*
X150770070Y-116315189D01*
X150770072Y-116315174D01*
X150770093Y-116312139D01*
X150790760Y-116127887D01*
X150846821Y-115951158D01*
X150936142Y-115788684D01*
X151055320Y-115646654D01*
X151199815Y-115530477D01*
X151364124Y-115444578D01*
X151541988Y-115392230D01*
X151542042Y-115392225D01*
X151542059Y-115392220D01*
X151726630Y-115375423D01*
X151910950Y-115394795D01*
X151910950Y-115394795D01*
G37*
G36*
X141750950Y-115394795D02*
X141750971Y-115394801D01*
X141751024Y-115394807D01*
X141928140Y-115449633D01*
X142091233Y-115537817D01*
X142234092Y-115656001D01*
X142351275Y-115799681D01*
X142438319Y-115963386D01*
X142491907Y-116140880D01*
X142510000Y-116325403D01*
X142510000Y-116334722D01*
X142509930Y-116344811D01*
X142509928Y-116344826D01*
X142509907Y-116347861D01*
X142489240Y-116532113D01*
X142433179Y-116708842D01*
X142343858Y-116871316D01*
X142224680Y-117013346D01*
X142080185Y-117129523D01*
X141915876Y-117215422D01*
X141738012Y-117267770D01*
X141737958Y-117267775D01*
X141737941Y-117267780D01*
X141553370Y-117284577D01*
X141369050Y-117265205D01*
X141369029Y-117265199D01*
X141368976Y-117265193D01*
X141191860Y-117210367D01*
X141028767Y-117122183D01*
X140885908Y-117003999D01*
X140768725Y-116860319D01*
X140681681Y-116696614D01*
X140628093Y-116519120D01*
X140610000Y-116334597D01*
X140610000Y-116325278D01*
X140610070Y-116315189D01*
X140610072Y-116315174D01*
X140610093Y-116312139D01*
X140630760Y-116127887D01*
X140686821Y-115951158D01*
X140776142Y-115788684D01*
X140895320Y-115646654D01*
X141039815Y-115530477D01*
X141204124Y-115444578D01*
X141381988Y-115392230D01*
X141382042Y-115392225D01*
X141382059Y-115392220D01*
X141566630Y-115375423D01*
X141750950Y-115394795D01*
X141750950Y-115394795D01*
G37*
G36*
X144290950Y-115394795D02*
X144290971Y-115394801D01*
X144291024Y-115394807D01*
X144468140Y-115449633D01*
X144631233Y-115537817D01*
X144774092Y-115656001D01*
X144891275Y-115799681D01*
X144978319Y-115963386D01*
X145031907Y-116140880D01*
X145050000Y-116325403D01*
X145050000Y-116334722D01*
X145049930Y-116344811D01*
X145049928Y-116344826D01*
X145049907Y-116347861D01*
X145029240Y-116532113D01*
X144973179Y-116708842D01*
X144883858Y-116871316D01*
X144764680Y-117013346D01*
X144620185Y-117129523D01*
X144455876Y-117215422D01*
X144278012Y-117267770D01*
X144277958Y-117267775D01*
X144277941Y-117267780D01*
X144093370Y-117284577D01*
X143909050Y-117265205D01*
X143909029Y-117265199D01*
X143908976Y-117265193D01*
X143731860Y-117210367D01*
X143568767Y-117122183D01*
X143425908Y-117003999D01*
X143308725Y-116860319D01*
X143221681Y-116696614D01*
X143168093Y-116519120D01*
X143150000Y-116334597D01*
X143150000Y-116325278D01*
X143150070Y-116315189D01*
X143150072Y-116315174D01*
X143150093Y-116312139D01*
X143170760Y-116127887D01*
X143226821Y-115951158D01*
X143316142Y-115788684D01*
X143435320Y-115646654D01*
X143579815Y-115530477D01*
X143744124Y-115444578D01*
X143921988Y-115392230D01*
X143922042Y-115392225D01*
X143922059Y-115392220D01*
X144106630Y-115375423D01*
X144290950Y-115394795D01*
X144290950Y-115394795D01*
G37*
G36*
X146830950Y-115394795D02*
X146830971Y-115394801D01*
X146831024Y-115394807D01*
X147008140Y-115449633D01*
X147171233Y-115537817D01*
X147314092Y-115656001D01*
X147431275Y-115799681D01*
X147518319Y-115963386D01*
X147571907Y-116140880D01*
X147590000Y-116325403D01*
X147590000Y-116334722D01*
X147589930Y-116344811D01*
X147589928Y-116344826D01*
X147589907Y-116347861D01*
X147569240Y-116532113D01*
X147513179Y-116708842D01*
X147423858Y-116871316D01*
X147304680Y-117013346D01*
X147160185Y-117129523D01*
X146995876Y-117215422D01*
X146818012Y-117267770D01*
X146817958Y-117267775D01*
X146817941Y-117267780D01*
X146633370Y-117284577D01*
X146449050Y-117265205D01*
X146449029Y-117265199D01*
X146448976Y-117265193D01*
X146271860Y-117210367D01*
X146108767Y-117122183D01*
X145965908Y-117003999D01*
X145848725Y-116860319D01*
X145761681Y-116696614D01*
X145708093Y-116519120D01*
X145690000Y-116334597D01*
X145690000Y-116325278D01*
X145690070Y-116315189D01*
X145690072Y-116315174D01*
X145690093Y-116312139D01*
X145710760Y-116127887D01*
X145766821Y-115951158D01*
X145856142Y-115788684D01*
X145975320Y-115646654D01*
X146119815Y-115530477D01*
X146284124Y-115444578D01*
X146461988Y-115392230D01*
X146462042Y-115392225D01*
X146462059Y-115392220D01*
X146646630Y-115375423D01*
X146830950Y-115394795D01*
X146830950Y-115394795D01*
G37*
G36*
X154450950Y-115394795D02*
X154450971Y-115394801D01*
X154451024Y-115394807D01*
X154628140Y-115449633D01*
X154791233Y-115537817D01*
X154934092Y-115656001D01*
X155051275Y-115799681D01*
X155138319Y-115963386D01*
X155191907Y-116140880D01*
X155210000Y-116325403D01*
X155210000Y-116334722D01*
X155209930Y-116344811D01*
X155209928Y-116344826D01*
X155209907Y-116347861D01*
X155189240Y-116532113D01*
X155133179Y-116708842D01*
X155043858Y-116871316D01*
X154924680Y-117013346D01*
X154780185Y-117129523D01*
X154615876Y-117215422D01*
X154438012Y-117267770D01*
X154437958Y-117267775D01*
X154437941Y-117267780D01*
X154253370Y-117284577D01*
X154069050Y-117265205D01*
X154069029Y-117265199D01*
X154068976Y-117265193D01*
X153891860Y-117210367D01*
X153728767Y-117122183D01*
X153585908Y-117003999D01*
X153468725Y-116860319D01*
X153381681Y-116696614D01*
X153328093Y-116519120D01*
X153310000Y-116334597D01*
X153310000Y-116325278D01*
X153310070Y-116315189D01*
X153310072Y-116315174D01*
X153310093Y-116312139D01*
X153330760Y-116127887D01*
X153386821Y-115951158D01*
X153476142Y-115788684D01*
X153595320Y-115646654D01*
X153739815Y-115530477D01*
X153904124Y-115444578D01*
X154081988Y-115392230D01*
X154082042Y-115392225D01*
X154082059Y-115392220D01*
X154266630Y-115375423D01*
X154450950Y-115394795D01*
X154450950Y-115394795D01*
G37*
G36*
X149370950Y-115394795D02*
X149370971Y-115394801D01*
X149371024Y-115394807D01*
X149548140Y-115449633D01*
X149711233Y-115537817D01*
X149854092Y-115656001D01*
X149971275Y-115799681D01*
X150058319Y-115963386D01*
X150111907Y-116140880D01*
X150130000Y-116325403D01*
X150130000Y-116334722D01*
X150129930Y-116344811D01*
X150129928Y-116344826D01*
X150129907Y-116347861D01*
X150109240Y-116532113D01*
X150053179Y-116708842D01*
X149963858Y-116871316D01*
X149844680Y-117013346D01*
X149700185Y-117129523D01*
X149535876Y-117215422D01*
X149358012Y-117267770D01*
X149357958Y-117267775D01*
X149357941Y-117267780D01*
X149173370Y-117284577D01*
X148989050Y-117265205D01*
X148989029Y-117265199D01*
X148988976Y-117265193D01*
X148811860Y-117210367D01*
X148648767Y-117122183D01*
X148505908Y-117003999D01*
X148388725Y-116860319D01*
X148301681Y-116696614D01*
X148248093Y-116519120D01*
X148230000Y-116334597D01*
X148230000Y-116325278D01*
X148230070Y-116315189D01*
X148230072Y-116315174D01*
X148230093Y-116312139D01*
X148250760Y-116127887D01*
X148306821Y-115951158D01*
X148396142Y-115788684D01*
X148515320Y-115646654D01*
X148659815Y-115530477D01*
X148824124Y-115444578D01*
X149001988Y-115392230D01*
X149002042Y-115392225D01*
X149002059Y-115392220D01*
X149186630Y-115375423D01*
X149370950Y-115394795D01*
X149370950Y-115394795D01*
G37*
G36*
X159530950Y-115394795D02*
X159530971Y-115394801D01*
X159531024Y-115394807D01*
X159708140Y-115449633D01*
X159871233Y-115537817D01*
X160014092Y-115656001D01*
X160131275Y-115799681D01*
X160218319Y-115963386D01*
X160271907Y-116140880D01*
X160290000Y-116325403D01*
X160290000Y-116334722D01*
X160289930Y-116344811D01*
X160289928Y-116344826D01*
X160289907Y-116347861D01*
X160269240Y-116532113D01*
X160213179Y-116708842D01*
X160123858Y-116871316D01*
X160004680Y-117013346D01*
X159860185Y-117129523D01*
X159695876Y-117215422D01*
X159518012Y-117267770D01*
X159517958Y-117267775D01*
X159517941Y-117267780D01*
X159333370Y-117284577D01*
X159149050Y-117265205D01*
X159149029Y-117265199D01*
X159148976Y-117265193D01*
X158971860Y-117210367D01*
X158808767Y-117122183D01*
X158665908Y-117003999D01*
X158548725Y-116860319D01*
X158461681Y-116696614D01*
X158408093Y-116519120D01*
X158390000Y-116334597D01*
X158390000Y-116325278D01*
X158390070Y-116315189D01*
X158390072Y-116315174D01*
X158390093Y-116312139D01*
X158410760Y-116127887D01*
X158466821Y-115951158D01*
X158556142Y-115788684D01*
X158675320Y-115646654D01*
X158819815Y-115530477D01*
X158984124Y-115444578D01*
X159161988Y-115392230D01*
X159162042Y-115392225D01*
X159162059Y-115392220D01*
X159346630Y-115375423D01*
X159530950Y-115394795D01*
X159530950Y-115394795D01*
G37*
G36*
X156990950Y-115394795D02*
X156990971Y-115394801D01*
X156991024Y-115394807D01*
X157168140Y-115449633D01*
X157331233Y-115537817D01*
X157474092Y-115656001D01*
X157591275Y-115799681D01*
X157678319Y-115963386D01*
X157731907Y-116140880D01*
X157750000Y-116325403D01*
X157750000Y-116334722D01*
X157749930Y-116344811D01*
X157749928Y-116344826D01*
X157749907Y-116347861D01*
X157729240Y-116532113D01*
X157673179Y-116708842D01*
X157583858Y-116871316D01*
X157464680Y-117013346D01*
X157320185Y-117129523D01*
X157155876Y-117215422D01*
X156978012Y-117267770D01*
X156977958Y-117267775D01*
X156977941Y-117267780D01*
X156793370Y-117284577D01*
X156609050Y-117265205D01*
X156609029Y-117265199D01*
X156608976Y-117265193D01*
X156431860Y-117210367D01*
X156268767Y-117122183D01*
X156125908Y-117003999D01*
X156008725Y-116860319D01*
X155921681Y-116696614D01*
X155868093Y-116519120D01*
X155850000Y-116334597D01*
X155850000Y-116325278D01*
X155850070Y-116315189D01*
X155850072Y-116315174D01*
X155850093Y-116312139D01*
X155870760Y-116127887D01*
X155926821Y-115951158D01*
X156016142Y-115788684D01*
X156135320Y-115646654D01*
X156279815Y-115530477D01*
X156444124Y-115444578D01*
X156621988Y-115392230D01*
X156622042Y-115392225D01*
X156622059Y-115392220D01*
X156806630Y-115375423D01*
X156990950Y-115394795D01*
X156990950Y-115394795D01*
G37*
G36*
X137430000Y-117280000D02*
X135530000Y-117280000D01*
X135530000Y-115380000D01*
X137430000Y-115380000D01*
X137430000Y-117280000D01*
X137430000Y-117280000D01*
G37*
G36*
X106575067Y-114736472D02*
X106575074Y-114736473D01*
X106578116Y-114736494D01*
X106765006Y-114757457D01*
X106944264Y-114814321D01*
X107109064Y-114904921D01*
X107253128Y-115025804D01*
X107370968Y-115172368D01*
X107458096Y-115339029D01*
X107511194Y-115519439D01*
X107511198Y-115519483D01*
X107511205Y-115519507D01*
X107528242Y-115706723D01*
X107508592Y-115893686D01*
X107508587Y-115893702D01*
X107508581Y-115893759D01*
X107452969Y-116073410D01*
X107363523Y-116238838D01*
X107243648Y-116383742D01*
X107097910Y-116502603D01*
X106931861Y-116590893D01*
X106751826Y-116645248D01*
X106564662Y-116663600D01*
X106555210Y-116663600D01*
X106544933Y-116663528D01*
X106544926Y-116663527D01*
X106541884Y-116663506D01*
X106354994Y-116642543D01*
X106175736Y-116585679D01*
X106010936Y-116495079D01*
X105866872Y-116374196D01*
X105749032Y-116227632D01*
X105661904Y-116060971D01*
X105608806Y-115880561D01*
X105608802Y-115880517D01*
X105608795Y-115880493D01*
X105591758Y-115693277D01*
X105611408Y-115506314D01*
X105611413Y-115506298D01*
X105611419Y-115506241D01*
X105667031Y-115326590D01*
X105756477Y-115161162D01*
X105876352Y-115016258D01*
X106022090Y-114897397D01*
X106188139Y-114809107D01*
X106368174Y-114754752D01*
X106555338Y-114736400D01*
X106564790Y-114736400D01*
X106575067Y-114736472D01*
X106575067Y-114736472D01*
G37*
G36*
X110063600Y-116663600D02*
X108136400Y-116663600D01*
X108136400Y-114736400D01*
X110063600Y-114736400D01*
X110063600Y-116663600D01*
X110063600Y-116663600D01*
G37*
G36*
X127750000Y-116520000D02*
X126450000Y-116520000D01*
X126450000Y-115220000D01*
X127750000Y-115220000D01*
X127750000Y-116520000D01*
X127750000Y-116520000D01*
G37*
G36*
X120550000Y-116080000D02*
X119250000Y-116080000D01*
X119250000Y-114780000D01*
X120550000Y-114780000D01*
X120550000Y-116080000D01*
X120550000Y-116080000D01*
G37*
G36*
X114273090Y-109201729D02*
X114772559Y-109304255D01*
X115242610Y-109501846D01*
X115665321Y-109786968D01*
X116024610Y-110148773D01*
X116306774Y-110573465D01*
X116501076Y-111044878D01*
X116600012Y-111544539D01*
X116600012Y-111544556D01*
X116600111Y-111545057D01*
X116591979Y-112127443D01*
X116591865Y-112127944D01*
X116591865Y-112127962D01*
X116479018Y-112624659D01*
X116271628Y-113090465D01*
X115977713Y-113507116D01*
X115608469Y-113858742D01*
X115177953Y-114131956D01*
X114702579Y-114316341D01*
X114200434Y-114404883D01*
X113690655Y-114394205D01*
X113192668Y-114284715D01*
X112725428Y-114080583D01*
X112306733Y-113789583D01*
X111952534Y-113422798D01*
X111676325Y-112994207D01*
X111488624Y-112520129D01*
X111396580Y-112018616D01*
X111403698Y-111508776D01*
X111509710Y-111010034D01*
X111710576Y-110541379D01*
X111998646Y-110120663D01*
X112362947Y-109763914D01*
X112789599Y-109484720D01*
X113262357Y-109293714D01*
X113763219Y-109198169D01*
X114273090Y-109201729D01*
X114273090Y-109201729D01*
G37*
G36*
X106575067Y-112196472D02*
X106575074Y-112196473D01*
X106578116Y-112196494D01*
X106765006Y-112217457D01*
X106944264Y-112274321D01*
X107109064Y-112364921D01*
X107253128Y-112485804D01*
X107370968Y-112632368D01*
X107458096Y-112799029D01*
X107511194Y-112979439D01*
X107511198Y-112979483D01*
X107511205Y-112979507D01*
X107528242Y-113166723D01*
X107508592Y-113353686D01*
X107508587Y-113353702D01*
X107508581Y-113353759D01*
X107452969Y-113533410D01*
X107363523Y-113698838D01*
X107243648Y-113843742D01*
X107097910Y-113962603D01*
X106931861Y-114050893D01*
X106751826Y-114105248D01*
X106564662Y-114123600D01*
X106555210Y-114123600D01*
X106544933Y-114123528D01*
X106544926Y-114123527D01*
X106541884Y-114123506D01*
X106354994Y-114102543D01*
X106175736Y-114045679D01*
X106010936Y-113955079D01*
X105866872Y-113834196D01*
X105749032Y-113687632D01*
X105661904Y-113520971D01*
X105608806Y-113340561D01*
X105608802Y-113340517D01*
X105608795Y-113340493D01*
X105591758Y-113153277D01*
X105611408Y-112966314D01*
X105611413Y-112966298D01*
X105611419Y-112966241D01*
X105667031Y-112786590D01*
X105756477Y-112621162D01*
X105876352Y-112476258D01*
X106022090Y-112357397D01*
X106188139Y-112269107D01*
X106368174Y-112214752D01*
X106555338Y-112196400D01*
X106564790Y-112196400D01*
X106575067Y-112196472D01*
X106575067Y-112196472D01*
G37*
G36*
X109115067Y-112196472D02*
X109115074Y-112196473D01*
X109118116Y-112196494D01*
X109305006Y-112217457D01*
X109484264Y-112274321D01*
X109649064Y-112364921D01*
X109793128Y-112485804D01*
X109910968Y-112632368D01*
X109998096Y-112799029D01*
X110051194Y-112979439D01*
X110051198Y-112979483D01*
X110051205Y-112979507D01*
X110068242Y-113166723D01*
X110048592Y-113353686D01*
X110048587Y-113353702D01*
X110048581Y-113353759D01*
X109992969Y-113533410D01*
X109903523Y-113698838D01*
X109783648Y-113843742D01*
X109637910Y-113962603D01*
X109471861Y-114050893D01*
X109291826Y-114105248D01*
X109104662Y-114123600D01*
X109095210Y-114123600D01*
X109084933Y-114123528D01*
X109084926Y-114123527D01*
X109081884Y-114123506D01*
X108894994Y-114102543D01*
X108715736Y-114045679D01*
X108550936Y-113955079D01*
X108406872Y-113834196D01*
X108289032Y-113687632D01*
X108201904Y-113520971D01*
X108148806Y-113340561D01*
X108148802Y-113340517D01*
X108148795Y-113340493D01*
X108131758Y-113153277D01*
X108151408Y-112966314D01*
X108151413Y-112966298D01*
X108151419Y-112966241D01*
X108207031Y-112786590D01*
X108296477Y-112621162D01*
X108416352Y-112476258D01*
X108562090Y-112357397D01*
X108728139Y-112269107D01*
X108908174Y-112214752D01*
X109095338Y-112196400D01*
X109104790Y-112196400D01*
X109115067Y-112196472D01*
X109115067Y-112196472D01*
G37*
G36*
X127750000Y-113720000D02*
X126450000Y-113720000D01*
X126450000Y-112420000D01*
X127750000Y-112420000D01*
X127750000Y-113720000D01*
X127750000Y-113720000D01*
G37*
G36*
X120550000Y-113280000D02*
X119250000Y-113280000D01*
X119250000Y-111980000D01*
X120550000Y-111980000D01*
X120550000Y-113280000D01*
X120550000Y-113280000D01*
G37*
G36*
X136300000Y-112550000D02*
X135300000Y-112550000D01*
X135300000Y-111450000D01*
X136300000Y-111450000D01*
X136300000Y-112550000D01*
X136300000Y-112550000D01*
G37*
G36*
X139900000Y-112550000D02*
X138900000Y-112550000D01*
X138900000Y-111450000D01*
X139900000Y-111450000D01*
X139900000Y-112550000D01*
X139900000Y-112550000D01*
G37*
G36*
X138100000Y-112550000D02*
X137100000Y-112550000D01*
X137100000Y-111450000D01*
X138100000Y-111450000D01*
X138100000Y-112550000D01*
X138100000Y-112550000D01*
G37*
G36*
X141700000Y-112550000D02*
X140700000Y-112550000D01*
X140700000Y-111450000D01*
X141700000Y-111450000D01*
X141700000Y-112550000D01*
X141700000Y-112550000D01*
G37*
G36*
X109115067Y-109656472D02*
X109115074Y-109656473D01*
X109118116Y-109656494D01*
X109305006Y-109677457D01*
X109484264Y-109734321D01*
X109649064Y-109824921D01*
X109793128Y-109945804D01*
X109910968Y-110092368D01*
X109998096Y-110259029D01*
X110051194Y-110439439D01*
X110051198Y-110439483D01*
X110051205Y-110439507D01*
X110068242Y-110626723D01*
X110048592Y-110813686D01*
X110048587Y-110813702D01*
X110048581Y-110813759D01*
X109992969Y-110993410D01*
X109903523Y-111158838D01*
X109783648Y-111303742D01*
X109637910Y-111422603D01*
X109471861Y-111510893D01*
X109291826Y-111565248D01*
X109104662Y-111583600D01*
X109095210Y-111583600D01*
X109084933Y-111583528D01*
X109084926Y-111583527D01*
X109081884Y-111583506D01*
X108894994Y-111562543D01*
X108715736Y-111505679D01*
X108550936Y-111415079D01*
X108406872Y-111294196D01*
X108289032Y-111147632D01*
X108201904Y-110980971D01*
X108148806Y-110800561D01*
X108148802Y-110800517D01*
X108148795Y-110800493D01*
X108131758Y-110613277D01*
X108151408Y-110426314D01*
X108151413Y-110426298D01*
X108151419Y-110426241D01*
X108207031Y-110246590D01*
X108296477Y-110081162D01*
X108416352Y-109936258D01*
X108562090Y-109817397D01*
X108728139Y-109729107D01*
X108908174Y-109674752D01*
X109095338Y-109656400D01*
X109104790Y-109656400D01*
X109115067Y-109656472D01*
X109115067Y-109656472D01*
G37*
G36*
X106575067Y-109656472D02*
X106575074Y-109656473D01*
X106578116Y-109656494D01*
X106765006Y-109677457D01*
X106944264Y-109734321D01*
X107109064Y-109824921D01*
X107253128Y-109945804D01*
X107370968Y-110092368D01*
X107458096Y-110259029D01*
X107511194Y-110439439D01*
X107511198Y-110439483D01*
X107511205Y-110439507D01*
X107528242Y-110626723D01*
X107508592Y-110813686D01*
X107508587Y-110813702D01*
X107508581Y-110813759D01*
X107452969Y-110993410D01*
X107363523Y-111158838D01*
X107243648Y-111303742D01*
X107097910Y-111422603D01*
X106931861Y-111510893D01*
X106751826Y-111565248D01*
X106564662Y-111583600D01*
X106555210Y-111583600D01*
X106544933Y-111583528D01*
X106544926Y-111583527D01*
X106541884Y-111583506D01*
X106354994Y-111562543D01*
X106175736Y-111505679D01*
X106010936Y-111415079D01*
X105866872Y-111294196D01*
X105749032Y-111147632D01*
X105661904Y-110980971D01*
X105608806Y-110800561D01*
X105608802Y-110800517D01*
X105608795Y-110800493D01*
X105591758Y-110613277D01*
X105611408Y-110426314D01*
X105611413Y-110426298D01*
X105611419Y-110426241D01*
X105667031Y-110246590D01*
X105756477Y-110081162D01*
X105876352Y-109936258D01*
X106022090Y-109817397D01*
X106188139Y-109729107D01*
X106368174Y-109674752D01*
X106555338Y-109656400D01*
X106564790Y-109656400D01*
X106575067Y-109656472D01*
X106575067Y-109656472D01*
G37*
G36*
X109115067Y-107116472D02*
X109115074Y-107116473D01*
X109118116Y-107116494D01*
X109305006Y-107137457D01*
X109484264Y-107194321D01*
X109649064Y-107284921D01*
X109793128Y-107405804D01*
X109910968Y-107552368D01*
X109998096Y-107719029D01*
X110051194Y-107899439D01*
X110051198Y-107899483D01*
X110051205Y-107899507D01*
X110068242Y-108086723D01*
X110048592Y-108273686D01*
X110048587Y-108273702D01*
X110048581Y-108273759D01*
X109992969Y-108453410D01*
X109903523Y-108618838D01*
X109783648Y-108763742D01*
X109637910Y-108882603D01*
X109471861Y-108970893D01*
X109291826Y-109025248D01*
X109104662Y-109043600D01*
X109095210Y-109043600D01*
X109084933Y-109043528D01*
X109084926Y-109043527D01*
X109081884Y-109043506D01*
X108894994Y-109022543D01*
X108715736Y-108965679D01*
X108550936Y-108875079D01*
X108406872Y-108754196D01*
X108289032Y-108607632D01*
X108201904Y-108440971D01*
X108148806Y-108260561D01*
X108148802Y-108260517D01*
X108148795Y-108260493D01*
X108131758Y-108073277D01*
X108151408Y-107886314D01*
X108151413Y-107886298D01*
X108151419Y-107886241D01*
X108207031Y-107706590D01*
X108296477Y-107541162D01*
X108416352Y-107396258D01*
X108562090Y-107277397D01*
X108728139Y-107189107D01*
X108908174Y-107134752D01*
X109095338Y-107116400D01*
X109104790Y-107116400D01*
X109115067Y-107116472D01*
X109115067Y-107116472D01*
G37*
G36*
X106575067Y-107116472D02*
X106575074Y-107116473D01*
X106578116Y-107116494D01*
X106765006Y-107137457D01*
X106944264Y-107194321D01*
X107109064Y-107284921D01*
X107253128Y-107405804D01*
X107370968Y-107552368D01*
X107458096Y-107719029D01*
X107511194Y-107899439D01*
X107511198Y-107899483D01*
X107511205Y-107899507D01*
X107528242Y-108086723D01*
X107508592Y-108273686D01*
X107508587Y-108273702D01*
X107508581Y-108273759D01*
X107452969Y-108453410D01*
X107363523Y-108618838D01*
X107243648Y-108763742D01*
X107097910Y-108882603D01*
X106931861Y-108970893D01*
X106751826Y-109025248D01*
X106564662Y-109043600D01*
X106555210Y-109043600D01*
X106544933Y-109043528D01*
X106544926Y-109043527D01*
X106541884Y-109043506D01*
X106354994Y-109022543D01*
X106175736Y-108965679D01*
X106010936Y-108875079D01*
X105866872Y-108754196D01*
X105749032Y-108607632D01*
X105661904Y-108440971D01*
X105608806Y-108260561D01*
X105608802Y-108260517D01*
X105608795Y-108260493D01*
X105591758Y-108073277D01*
X105611408Y-107886314D01*
X105611413Y-107886298D01*
X105611419Y-107886241D01*
X105667031Y-107706590D01*
X105756477Y-107541162D01*
X105876352Y-107396258D01*
X106022090Y-107277397D01*
X106188139Y-107189107D01*
X106368174Y-107134752D01*
X106555338Y-107116400D01*
X106564790Y-107116400D01*
X106575067Y-107116472D01*
X106575067Y-107116472D01*
G37*
G36*
X140050000Y-108975000D02*
X138850000Y-108975000D01*
X138850000Y-108025000D01*
X140050000Y-108025000D01*
X140050000Y-108975000D01*
X140050000Y-108975000D01*
G37*
G36*
X141750000Y-108975000D02*
X140550000Y-108975000D01*
X140550000Y-108025000D01*
X141750000Y-108025000D01*
X141750000Y-108975000D01*
X141750000Y-108975000D01*
G37*
G36*
X147135000Y-108300000D02*
X145685000Y-108300000D01*
X145685000Y-106900000D01*
X147135000Y-106900000D01*
X147135000Y-108300000D01*
X147135000Y-108300000D01*
G37*
G36*
X120630000Y-108230000D02*
X119330000Y-108230000D01*
X119330000Y-106930000D01*
X120630000Y-106930000D01*
X120630000Y-108230000D01*
X120630000Y-108230000D01*
G37*
G36*
X170200000Y-108050000D02*
X169000000Y-108050000D01*
X169000000Y-106550000D01*
X170200000Y-106550000D01*
X170200000Y-108050000D01*
X170200000Y-108050000D01*
G37*
G36*
X168000000Y-108050000D02*
X166800000Y-108050000D01*
X166800000Y-106550000D01*
X168000000Y-106550000D01*
X168000000Y-108050000D01*
X168000000Y-108050000D01*
G37*
G36*
X156035000Y-107750000D02*
X154585000Y-107750000D01*
X154585000Y-106350000D01*
X156035000Y-106350000D01*
X156035000Y-107750000D01*
X156035000Y-107750000D01*
G37*
G36*
X163135000Y-107730000D02*
X161685000Y-107730000D01*
X161685000Y-106330000D01*
X163135000Y-106330000D01*
X163135000Y-107730000D01*
X163135000Y-107730000D01*
G37*
G36*
X159765000Y-107700000D02*
X158315000Y-107700000D01*
X158315000Y-106300000D01*
X159765000Y-106300000D01*
X159765000Y-107700000D01*
X159765000Y-107700000D01*
G37*
G36*
X127750000Y-107520000D02*
X126450000Y-107520000D01*
X126450000Y-106220000D01*
X127750000Y-106220000D01*
X127750000Y-107520000D01*
X127750000Y-107520000D01*
G37*
G36*
X109115067Y-104576472D02*
X109115074Y-104576473D01*
X109118116Y-104576494D01*
X109305006Y-104597457D01*
X109484264Y-104654321D01*
X109649064Y-104744921D01*
X109793128Y-104865804D01*
X109910968Y-105012368D01*
X109998096Y-105179029D01*
X110051194Y-105359439D01*
X110051198Y-105359483D01*
X110051205Y-105359507D01*
X110068242Y-105546723D01*
X110048592Y-105733686D01*
X110048587Y-105733702D01*
X110048581Y-105733759D01*
X109992969Y-105913410D01*
X109903523Y-106078838D01*
X109783648Y-106223742D01*
X109637910Y-106342603D01*
X109471861Y-106430893D01*
X109291826Y-106485248D01*
X109104662Y-106503600D01*
X109095210Y-106503600D01*
X109084933Y-106503528D01*
X109084926Y-106503527D01*
X109081884Y-106503506D01*
X108894994Y-106482543D01*
X108715736Y-106425679D01*
X108550936Y-106335079D01*
X108406872Y-106214196D01*
X108289032Y-106067632D01*
X108201904Y-105900971D01*
X108148806Y-105720561D01*
X108148802Y-105720517D01*
X108148795Y-105720493D01*
X108131758Y-105533277D01*
X108151408Y-105346314D01*
X108151413Y-105346298D01*
X108151419Y-105346241D01*
X108207031Y-105166590D01*
X108296477Y-105001162D01*
X108416352Y-104856258D01*
X108562090Y-104737397D01*
X108728139Y-104649107D01*
X108908174Y-104594752D01*
X109095338Y-104576400D01*
X109104790Y-104576400D01*
X109115067Y-104576472D01*
X109115067Y-104576472D01*
G37*
G36*
X106575067Y-104576472D02*
X106575074Y-104576473D01*
X106578116Y-104576494D01*
X106765006Y-104597457D01*
X106944264Y-104654321D01*
X107109064Y-104744921D01*
X107253128Y-104865804D01*
X107370968Y-105012368D01*
X107458096Y-105179029D01*
X107511194Y-105359439D01*
X107511198Y-105359483D01*
X107511205Y-105359507D01*
X107528242Y-105546723D01*
X107508592Y-105733686D01*
X107508587Y-105733702D01*
X107508581Y-105733759D01*
X107452969Y-105913410D01*
X107363523Y-106078838D01*
X107243648Y-106223742D01*
X107097910Y-106342603D01*
X106931861Y-106430893D01*
X106751826Y-106485248D01*
X106564662Y-106503600D01*
X106555210Y-106503600D01*
X106544933Y-106503528D01*
X106544926Y-106503527D01*
X106541884Y-106503506D01*
X106354994Y-106482543D01*
X106175736Y-106425679D01*
X106010936Y-106335079D01*
X105866872Y-106214196D01*
X105749032Y-106067632D01*
X105661904Y-105900971D01*
X105608806Y-105720561D01*
X105608802Y-105720517D01*
X105608795Y-105720493D01*
X105591758Y-105533277D01*
X105611408Y-105346314D01*
X105611413Y-105346298D01*
X105611419Y-105346241D01*
X105667031Y-105166590D01*
X105756477Y-105001162D01*
X105876352Y-104856258D01*
X106022090Y-104737397D01*
X106188139Y-104649107D01*
X106368174Y-104594752D01*
X106555338Y-104576400D01*
X106564790Y-104576400D01*
X106575067Y-104576472D01*
X106575067Y-104576472D01*
G37*
G36*
X147135000Y-106100000D02*
X145685000Y-106100000D01*
X145685000Y-104700000D01*
X147135000Y-104700000D01*
X147135000Y-106100000D01*
X147135000Y-106100000D01*
G37*
G36*
X156035000Y-105550000D02*
X154585000Y-105550000D01*
X154585000Y-104150000D01*
X156035000Y-104150000D01*
X156035000Y-105550000D01*
X156035000Y-105550000D01*
G37*
G36*
X163135000Y-105530000D02*
X161685000Y-105530000D01*
X161685000Y-104130000D01*
X163135000Y-104130000D01*
X163135000Y-105530000D01*
X163135000Y-105530000D01*
G37*
G36*
X159765000Y-105500000D02*
X158315000Y-105500000D01*
X158315000Y-104100000D01*
X159765000Y-104100000D01*
X159765000Y-105500000D01*
X159765000Y-105500000D01*
G37*
G36*
X120630000Y-105430000D02*
X119330000Y-105430000D01*
X119330000Y-104130000D01*
X120630000Y-104130000D01*
X120630000Y-105430000D01*
X120630000Y-105430000D01*
G37*
G36*
X127750000Y-104720000D02*
X126450000Y-104720000D01*
X126450000Y-103420000D01*
X127750000Y-103420000D01*
X127750000Y-104720000D01*
X127750000Y-104720000D01*
G37*
G36*
X170690000Y-104100000D02*
X168790000Y-104100000D01*
X168790000Y-102200000D01*
X170690000Y-102200000D01*
X170690000Y-104100000D01*
X170690000Y-104100000D01*
G37*
G36*
X189614811Y-100480070D02*
X189614826Y-100480072D01*
X189617861Y-100480093D01*
X189802113Y-100500760D01*
X189978842Y-100556821D01*
X190141316Y-100646142D01*
X190283346Y-100765320D01*
X190399523Y-100909815D01*
X190485422Y-101074124D01*
X190537770Y-101251988D01*
X190537775Y-101252042D01*
X190537780Y-101252059D01*
X190554577Y-101436630D01*
X190535205Y-101620950D01*
X190535199Y-101620971D01*
X190535193Y-101621024D01*
X190480367Y-101798140D01*
X190392183Y-101961233D01*
X190273999Y-102104092D01*
X190130319Y-102221275D01*
X189966614Y-102308319D01*
X189789120Y-102361907D01*
X189604597Y-102380000D01*
X189595278Y-102380000D01*
X189585189Y-102379930D01*
X189585174Y-102379928D01*
X189582139Y-102379907D01*
X189397887Y-102359240D01*
X189221158Y-102303179D01*
X189058684Y-102213858D01*
X188916654Y-102094680D01*
X188800477Y-101950185D01*
X188714578Y-101785876D01*
X188662230Y-101608012D01*
X188662225Y-101607958D01*
X188662220Y-101607941D01*
X188645423Y-101423370D01*
X188664795Y-101239050D01*
X188664801Y-101239029D01*
X188664807Y-101238976D01*
X188719633Y-101061860D01*
X188807817Y-100898767D01*
X188926001Y-100755908D01*
X189069681Y-100638725D01*
X189233386Y-100551681D01*
X189410880Y-100498093D01*
X189595403Y-100480000D01*
X189604722Y-100480000D01*
X189614811Y-100480070D01*
X189614811Y-100480070D01*
G37*
G36*
X150260000Y-102240000D02*
X148460000Y-102240000D01*
X148460000Y-101040000D01*
X150260000Y-101040000D01*
X150260000Y-102240000D01*
X150260000Y-102240000D01*
G37*
G36*
X147320000Y-102190000D02*
X145520000Y-102190000D01*
X145520000Y-100990000D01*
X147320000Y-100990000D01*
X147320000Y-102190000D01*
X147320000Y-102190000D01*
G37*
G36*
X154760000Y-101825000D02*
X153360000Y-101825000D01*
X153360000Y-100375000D01*
X154760000Y-100375000D01*
X154760000Y-101825000D01*
X154760000Y-101825000D01*
G37*
G36*
X152560000Y-101825000D02*
X151160000Y-101825000D01*
X151160000Y-100375000D01*
X152560000Y-100375000D01*
X152560000Y-101825000D01*
X152560000Y-101825000D01*
G37*
G36*
X174150000Y-100900000D02*
X172250000Y-100900000D01*
X172250000Y-99800000D01*
X174150000Y-99800000D01*
X174150000Y-100900000D01*
X174150000Y-100900000D01*
G37*
G36*
X189614811Y-97940070D02*
X189614826Y-97940072D01*
X189617861Y-97940093D01*
X189802113Y-97960760D01*
X189978842Y-98016821D01*
X190141316Y-98106142D01*
X190283346Y-98225320D01*
X190399523Y-98369815D01*
X190485422Y-98534124D01*
X190537770Y-98711988D01*
X190537775Y-98712042D01*
X190537780Y-98712059D01*
X190554577Y-98896630D01*
X190535205Y-99080950D01*
X190535199Y-99080971D01*
X190535193Y-99081024D01*
X190480367Y-99258140D01*
X190392183Y-99421233D01*
X190273999Y-99564092D01*
X190130319Y-99681275D01*
X189966614Y-99768319D01*
X189789120Y-99821907D01*
X189604597Y-99840000D01*
X189595278Y-99840000D01*
X189585189Y-99839930D01*
X189585174Y-99839928D01*
X189582139Y-99839907D01*
X189397887Y-99819240D01*
X189221158Y-99763179D01*
X189058684Y-99673858D01*
X188916654Y-99554680D01*
X188800477Y-99410185D01*
X188714578Y-99245876D01*
X188662230Y-99068012D01*
X188662225Y-99067958D01*
X188662220Y-99067941D01*
X188645423Y-98883370D01*
X188664795Y-98699050D01*
X188664801Y-98699029D01*
X188664807Y-98698976D01*
X188719633Y-98521860D01*
X188807817Y-98358767D01*
X188926001Y-98215908D01*
X189069681Y-98098725D01*
X189233386Y-98011681D01*
X189410880Y-97958093D01*
X189595403Y-97940000D01*
X189604722Y-97940000D01*
X189614811Y-97940070D01*
X189614811Y-97940070D01*
G37*
G36*
X120820000Y-99510000D02*
X119520000Y-99510000D01*
X119520000Y-98210000D01*
X120820000Y-98210000D01*
X120820000Y-99510000D01*
X120820000Y-99510000D01*
G37*
G36*
X150260000Y-99240000D02*
X148460000Y-99240000D01*
X148460000Y-98040000D01*
X150260000Y-98040000D01*
X150260000Y-99240000D01*
X150260000Y-99240000D01*
G37*
G36*
X147320000Y-99190000D02*
X145520000Y-99190000D01*
X145520000Y-97990000D01*
X147320000Y-97990000D01*
X147320000Y-99190000D01*
X147320000Y-99190000D01*
G37*
G36*
X127750000Y-99020000D02*
X126450000Y-99020000D01*
X126450000Y-97720000D01*
X127750000Y-97720000D01*
X127750000Y-99020000D01*
X127750000Y-99020000D01*
G37*
G36*
X174150000Y-98000000D02*
X172250000Y-98000000D01*
X172250000Y-96900000D01*
X174150000Y-96900000D01*
X174150000Y-98000000D01*
X174150000Y-98000000D01*
G37*
G36*
X168850000Y-97460000D02*
X167650000Y-97460000D01*
X167650000Y-95660000D01*
X168850000Y-95660000D01*
X168850000Y-97460000D01*
X168850000Y-97460000D01*
G37*
G36*
X165850000Y-97460000D02*
X164650000Y-97460000D01*
X164650000Y-95660000D01*
X165850000Y-95660000D01*
X165850000Y-97460000D01*
X165850000Y-97460000D01*
G37*
G36*
X189614811Y-95400070D02*
X189614826Y-95400072D01*
X189617861Y-95400093D01*
X189802113Y-95420760D01*
X189978842Y-95476821D01*
X190141316Y-95566142D01*
X190283346Y-95685320D01*
X190399523Y-95829815D01*
X190485422Y-95994124D01*
X190537770Y-96171988D01*
X190537775Y-96172042D01*
X190537780Y-96172059D01*
X190554577Y-96356630D01*
X190535205Y-96540950D01*
X190535199Y-96540971D01*
X190535193Y-96541024D01*
X190480367Y-96718140D01*
X190392183Y-96881233D01*
X190273999Y-97024092D01*
X190130319Y-97141275D01*
X189966614Y-97228319D01*
X189789120Y-97281907D01*
X189604597Y-97300000D01*
X189595278Y-97300000D01*
X189585189Y-97299930D01*
X189585174Y-97299928D01*
X189582139Y-97299907D01*
X189397887Y-97279240D01*
X189221158Y-97223179D01*
X189058684Y-97133858D01*
X188916654Y-97014680D01*
X188800477Y-96870185D01*
X188714578Y-96705876D01*
X188662230Y-96528012D01*
X188662225Y-96527958D01*
X188662220Y-96527941D01*
X188645423Y-96343370D01*
X188664795Y-96159050D01*
X188664801Y-96159029D01*
X188664807Y-96158976D01*
X188719633Y-95981860D01*
X188807817Y-95818767D01*
X188926001Y-95675908D01*
X189069681Y-95558725D01*
X189233386Y-95471681D01*
X189410880Y-95418093D01*
X189595403Y-95400000D01*
X189604722Y-95400000D01*
X189614811Y-95400070D01*
X189614811Y-95400070D01*
G37*
G36*
X120820000Y-96710000D02*
X119520000Y-96710000D01*
X119520000Y-95410000D01*
X120820000Y-95410000D01*
X120820000Y-96710000D01*
X120820000Y-96710000D01*
G37*
G36*
X127750000Y-96220000D02*
X126450000Y-96220000D01*
X126450000Y-94920000D01*
X127750000Y-94920000D01*
X127750000Y-96220000D01*
X127750000Y-96220000D01*
G37*
G36*
X189614811Y-92860070D02*
X189614826Y-92860072D01*
X189617861Y-92860093D01*
X189802113Y-92880760D01*
X189978842Y-92936821D01*
X190141316Y-93026142D01*
X190283346Y-93145320D01*
X190399523Y-93289815D01*
X190485422Y-93454124D01*
X190537770Y-93631988D01*
X190537775Y-93632042D01*
X190537780Y-93632059D01*
X190554577Y-93816630D01*
X190535205Y-94000950D01*
X190535199Y-94000971D01*
X190535193Y-94001024D01*
X190480367Y-94178140D01*
X190392183Y-94341233D01*
X190273999Y-94484092D01*
X190130319Y-94601275D01*
X189966614Y-94688319D01*
X189789120Y-94741907D01*
X189604597Y-94760000D01*
X189595278Y-94760000D01*
X189585189Y-94759930D01*
X189585174Y-94759928D01*
X189582139Y-94759907D01*
X189397887Y-94739240D01*
X189221158Y-94683179D01*
X189058684Y-94593858D01*
X188916654Y-94474680D01*
X188800477Y-94330185D01*
X188714578Y-94165876D01*
X188662230Y-93988012D01*
X188662225Y-93987958D01*
X188662220Y-93987941D01*
X188645423Y-93803370D01*
X188664795Y-93619050D01*
X188664801Y-93619029D01*
X188664807Y-93618976D01*
X188719633Y-93441860D01*
X188807817Y-93278767D01*
X188926001Y-93135908D01*
X189069681Y-93018725D01*
X189233386Y-92931681D01*
X189410880Y-92878093D01*
X189595403Y-92860000D01*
X189604722Y-92860000D01*
X189614811Y-92860070D01*
X189614811Y-92860070D01*
G37*
G36*
X176150000Y-94380000D02*
X175050000Y-94380000D01*
X175050000Y-92480000D01*
X176150000Y-92480000D01*
X176150000Y-94380000D01*
X176150000Y-94380000D01*
G37*
G36*
X179050000Y-94380000D02*
X177950000Y-94380000D01*
X177950000Y-92480000D01*
X179050000Y-92480000D01*
X179050000Y-94380000D01*
X179050000Y-94380000D01*
G37*
G36*
X189614811Y-90320070D02*
X189614826Y-90320072D01*
X189617861Y-90320093D01*
X189802113Y-90340760D01*
X189978842Y-90396821D01*
X190141316Y-90486142D01*
X190283346Y-90605320D01*
X190399523Y-90749815D01*
X190485422Y-90914124D01*
X190537770Y-91091988D01*
X190537775Y-91092042D01*
X190537780Y-91092059D01*
X190554577Y-91276630D01*
X190535205Y-91460950D01*
X190535199Y-91460971D01*
X190535193Y-91461024D01*
X190480367Y-91638140D01*
X190392183Y-91801233D01*
X190273999Y-91944092D01*
X190130319Y-92061275D01*
X189966614Y-92148319D01*
X189789120Y-92201907D01*
X189604597Y-92220000D01*
X189595278Y-92220000D01*
X189585189Y-92219930D01*
X189585174Y-92219928D01*
X189582139Y-92219907D01*
X189397887Y-92199240D01*
X189221158Y-92143179D01*
X189058684Y-92053858D01*
X188916654Y-91934680D01*
X188800477Y-91790185D01*
X188714578Y-91625876D01*
X188662230Y-91448012D01*
X188662225Y-91447958D01*
X188662220Y-91447941D01*
X188645423Y-91263370D01*
X188664795Y-91079050D01*
X188664801Y-91079029D01*
X188664807Y-91078976D01*
X188719633Y-90901860D01*
X188807817Y-90738767D01*
X188926001Y-90595908D01*
X189069681Y-90478725D01*
X189233386Y-90391681D01*
X189410880Y-90338093D01*
X189595403Y-90320000D01*
X189604722Y-90320000D01*
X189614811Y-90320070D01*
X189614811Y-90320070D01*
G37*
G36*
X127750000Y-90620000D02*
X126450000Y-90620000D01*
X126450000Y-89320000D01*
X127750000Y-89320000D01*
X127750000Y-90620000D01*
X127750000Y-90620000D01*
G37*
G36*
X189614811Y-87780070D02*
X189614826Y-87780072D01*
X189617861Y-87780093D01*
X189802113Y-87800760D01*
X189978842Y-87856821D01*
X190141316Y-87946142D01*
X190283346Y-88065320D01*
X190399523Y-88209815D01*
X190485422Y-88374124D01*
X190537770Y-88551988D01*
X190537775Y-88552042D01*
X190537780Y-88552059D01*
X190554577Y-88736630D01*
X190535205Y-88920950D01*
X190535199Y-88920971D01*
X190535193Y-88921024D01*
X190480367Y-89098140D01*
X190392183Y-89261233D01*
X190273999Y-89404092D01*
X190130319Y-89521275D01*
X189966614Y-89608319D01*
X189789120Y-89661907D01*
X189604597Y-89680000D01*
X189595278Y-89680000D01*
X189585189Y-89679930D01*
X189585174Y-89679928D01*
X189582139Y-89679907D01*
X189397887Y-89659240D01*
X189221158Y-89603179D01*
X189058684Y-89513858D01*
X188916654Y-89394680D01*
X188800477Y-89250185D01*
X188714578Y-89085876D01*
X188662230Y-88908012D01*
X188662225Y-88907958D01*
X188662220Y-88907941D01*
X188645423Y-88723370D01*
X188664795Y-88539050D01*
X188664801Y-88539029D01*
X188664807Y-88538976D01*
X188719633Y-88361860D01*
X188807817Y-88198767D01*
X188926001Y-88055908D01*
X189069681Y-87938725D01*
X189233386Y-87851681D01*
X189410880Y-87798093D01*
X189595403Y-87780000D01*
X189604722Y-87780000D01*
X189614811Y-87780070D01*
X189614811Y-87780070D01*
G37*
G36*
X176180000Y-89370000D02*
X175080000Y-89370000D01*
X175080000Y-87470000D01*
X176180000Y-87470000D01*
X176180000Y-89370000D01*
X176180000Y-89370000D01*
G37*
G36*
X179080000Y-89370000D02*
X177980000Y-89370000D01*
X177980000Y-87470000D01*
X179080000Y-87470000D01*
X179080000Y-89370000D01*
X179080000Y-89370000D01*
G37*
G36*
X120740000Y-89330000D02*
X119440000Y-89330000D01*
X119440000Y-88030000D01*
X120740000Y-88030000D01*
X120740000Y-89330000D01*
X120740000Y-89330000D01*
G37*
G36*
X168540000Y-88940000D02*
X167340000Y-88940000D01*
X167340000Y-87140000D01*
X168540000Y-87140000D01*
X168540000Y-88940000D01*
X168540000Y-88940000D01*
G37*
G36*
X165540000Y-88940000D02*
X164340000Y-88940000D01*
X164340000Y-87140000D01*
X165540000Y-87140000D01*
X165540000Y-88940000D01*
X165540000Y-88940000D01*
G37*
G36*
X127750000Y-87820000D02*
X126450000Y-87820000D01*
X126450000Y-86520000D01*
X127750000Y-86520000D01*
X127750000Y-87820000D01*
X127750000Y-87820000D01*
G37*
G36*
X189614811Y-85240070D02*
X189614826Y-85240072D01*
X189617861Y-85240093D01*
X189802113Y-85260760D01*
X189978842Y-85316821D01*
X190141316Y-85406142D01*
X190283346Y-85525320D01*
X190399523Y-85669815D01*
X190485422Y-85834124D01*
X190537770Y-86011988D01*
X190537775Y-86012042D01*
X190537780Y-86012059D01*
X190554577Y-86196630D01*
X190535205Y-86380950D01*
X190535199Y-86380971D01*
X190535193Y-86381024D01*
X190480367Y-86558140D01*
X190392183Y-86721233D01*
X190273999Y-86864092D01*
X190130319Y-86981275D01*
X189966614Y-87068319D01*
X189789120Y-87121907D01*
X189604597Y-87140000D01*
X189595278Y-87140000D01*
X189585189Y-87139930D01*
X189585174Y-87139928D01*
X189582139Y-87139907D01*
X189397887Y-87119240D01*
X189221158Y-87063179D01*
X189058684Y-86973858D01*
X188916654Y-86854680D01*
X188800477Y-86710185D01*
X188714578Y-86545876D01*
X188662230Y-86368012D01*
X188662225Y-86367958D01*
X188662220Y-86367941D01*
X188645423Y-86183370D01*
X188664795Y-85999050D01*
X188664801Y-85999029D01*
X188664807Y-85998976D01*
X188719633Y-85821860D01*
X188807817Y-85658767D01*
X188926001Y-85515908D01*
X189069681Y-85398725D01*
X189233386Y-85311681D01*
X189410880Y-85258093D01*
X189595403Y-85240000D01*
X189604722Y-85240000D01*
X189614811Y-85240070D01*
X189614811Y-85240070D01*
G37*
G36*
X120740000Y-86530000D02*
X119440000Y-86530000D01*
X119440000Y-85230000D01*
X120740000Y-85230000D01*
X120740000Y-86530000D01*
X120740000Y-86530000D01*
G37*
G36*
X168180000Y-85965000D02*
X166780000Y-85965000D01*
X166780000Y-84515000D01*
X168180000Y-84515000D01*
X168180000Y-85965000D01*
X168180000Y-85965000D01*
G37*
G36*
X165980000Y-85965000D02*
X164580000Y-85965000D01*
X164580000Y-84515000D01*
X165980000Y-84515000D01*
X165980000Y-85965000D01*
X165980000Y-85965000D01*
G37*
G36*
X190550000Y-84600000D02*
X188650000Y-84600000D01*
X188650000Y-82700000D01*
X190550000Y-82700000D01*
X190550000Y-84600000D01*
X190550000Y-84600000D01*
G37*
G36*
X176200000Y-84580000D02*
X175100000Y-84580000D01*
X175100000Y-82680000D01*
X176200000Y-82680000D01*
X176200000Y-84580000D01*
X176200000Y-84580000D01*
G37*
G36*
X179100000Y-84580000D02*
X178000000Y-84580000D01*
X178000000Y-82680000D01*
X179100000Y-82680000D01*
X179100000Y-84580000D01*
X179100000Y-84580000D01*
G37*
G36*
X166970950Y-80874795D02*
X166970971Y-80874801D01*
X166971024Y-80874807D01*
X167148140Y-80929633D01*
X167311233Y-81017817D01*
X167454092Y-81136001D01*
X167571275Y-81279681D01*
X167658319Y-81443386D01*
X167711907Y-81620880D01*
X167730000Y-81805403D01*
X167730000Y-81814722D01*
X167729930Y-81824811D01*
X167729928Y-81824826D01*
X167729907Y-81827861D01*
X167709240Y-82012113D01*
X167653179Y-82188842D01*
X167563858Y-82351316D01*
X167444680Y-82493346D01*
X167300185Y-82609523D01*
X167135876Y-82695422D01*
X166958012Y-82747770D01*
X166957958Y-82747775D01*
X166957941Y-82747780D01*
X166773370Y-82764577D01*
X166589050Y-82745205D01*
X166589029Y-82745199D01*
X166588976Y-82745193D01*
X166411860Y-82690367D01*
X166248767Y-82602183D01*
X166105908Y-82483999D01*
X165988725Y-82340319D01*
X165901681Y-82176614D01*
X165848093Y-81999120D01*
X165830000Y-81814597D01*
X165830000Y-81805278D01*
X165830070Y-81795189D01*
X165830072Y-81795174D01*
X165830093Y-81792139D01*
X165850760Y-81607887D01*
X165906821Y-81431158D01*
X165996142Y-81268684D01*
X166115320Y-81126654D01*
X166259815Y-81010477D01*
X166424124Y-80924578D01*
X166601988Y-80872230D01*
X166602042Y-80872225D01*
X166602059Y-80872220D01*
X166786630Y-80855423D01*
X166970950Y-80874795D01*
X166970950Y-80874795D01*
G37*
G36*
X170270000Y-82760000D02*
X168370000Y-82760000D01*
X168370000Y-80860000D01*
X170270000Y-80860000D01*
X170270000Y-82760000D01*
X170270000Y-82760000D01*
G37*
G36*
X127780000Y-82740000D02*
X126480000Y-82740000D01*
X126480000Y-81440000D01*
X127780000Y-81440000D01*
X127780000Y-82740000D01*
X127780000Y-82740000D01*
G37*
G36*
X120820000Y-80500000D02*
X119520000Y-80500000D01*
X119520000Y-79200000D01*
X120820000Y-79200000D01*
X120820000Y-80500000D01*
X120820000Y-80500000D01*
G37*
G36*
X141310000Y-80260000D02*
X139310000Y-80260000D01*
X139310000Y-77560000D01*
X141310000Y-77560000D01*
X141310000Y-80260000D01*
X141310000Y-80260000D01*
G37*
G36*
X127780000Y-79940000D02*
X126480000Y-79940000D01*
X126480000Y-78640000D01*
X127780000Y-78640000D01*
X127780000Y-79940000D01*
X127780000Y-79940000D01*
G37*
G36*
X149810000Y-79455000D02*
X148410000Y-79455000D01*
X148410000Y-78005000D01*
X149810000Y-78005000D01*
X149810000Y-79455000D01*
X149810000Y-79455000D01*
G37*
G36*
X147610000Y-79455000D02*
X146210000Y-79455000D01*
X146210000Y-78005000D01*
X147610000Y-78005000D01*
X147610000Y-79455000D01*
X147610000Y-79455000D01*
G37*
G36*
X168720000Y-79200000D02*
X167720000Y-79200000D01*
X167720000Y-78100000D01*
X168720000Y-78100000D01*
X168720000Y-79200000D01*
X168720000Y-79200000D01*
G37*
G36*
X170520000Y-79200000D02*
X169520000Y-79200000D01*
X169520000Y-78100000D01*
X170520000Y-78100000D01*
X170520000Y-79200000D01*
X170520000Y-79200000D01*
G37*
G36*
X163160000Y-79160000D02*
X162160000Y-79160000D01*
X162160000Y-78060000D01*
X163160000Y-78060000D01*
X163160000Y-79160000D01*
X163160000Y-79160000D01*
G37*
G36*
X164960000Y-79160000D02*
X163960000Y-79160000D01*
X163960000Y-78060000D01*
X164960000Y-78060000D01*
X164960000Y-79160000D01*
X164960000Y-79160000D01*
G37*
G36*
X160440000Y-79005000D02*
X159040000Y-79005000D01*
X159040000Y-77555000D01*
X160440000Y-77555000D01*
X160440000Y-79005000D01*
X160440000Y-79005000D01*
G37*
G36*
X158240000Y-79005000D02*
X156840000Y-79005000D01*
X156840000Y-77555000D01*
X158240000Y-77555000D01*
X158240000Y-79005000D01*
X158240000Y-79005000D01*
G37*
G36*
X155430000Y-78905000D02*
X154030000Y-78905000D01*
X154030000Y-77455000D01*
X155430000Y-77455000D01*
X155430000Y-78905000D01*
X155430000Y-78905000D01*
G37*
G36*
X153230000Y-78905000D02*
X151830000Y-78905000D01*
X151830000Y-77455000D01*
X153230000Y-77455000D01*
X153230000Y-78905000D01*
X153230000Y-78905000D01*
G37*
G36*
X120820000Y-77700000D02*
X119520000Y-77700000D01*
X119520000Y-76400000D01*
X120820000Y-76400000D01*
X120820000Y-77700000D01*
X120820000Y-77700000D01*
G37*
G36*
X163160000Y-76690000D02*
X162160000Y-76690000D01*
X162160000Y-75590000D01*
X163160000Y-75590000D01*
X163160000Y-76690000D01*
X163160000Y-76690000D01*
G37*
G36*
X164960000Y-76690000D02*
X163960000Y-76690000D01*
X163960000Y-75590000D01*
X164960000Y-75590000D01*
X164960000Y-76690000D01*
X164960000Y-76690000D01*
G37*
G36*
X168830000Y-76655000D02*
X167630000Y-76655000D01*
X167630000Y-75705000D01*
X168830000Y-75705000D01*
X168830000Y-76655000D01*
X168830000Y-76655000D01*
G37*
G36*
X170530000Y-76655000D02*
X169330000Y-76655000D01*
X169330000Y-75705000D01*
X170530000Y-75705000D01*
X170530000Y-76655000D01*
X170530000Y-76655000D01*
G37*
G36*
X141310000Y-76260000D02*
X139310000Y-76260000D01*
X139310000Y-73560000D01*
X141310000Y-73560000D01*
X141310000Y-76260000D01*
X141310000Y-76260000D01*
G37*
G36*
X114273090Y-70261729D02*
X114772559Y-70364255D01*
X115242610Y-70561846D01*
X115665321Y-70846968D01*
X116024610Y-71208773D01*
X116306774Y-71633465D01*
X116501076Y-72104878D01*
X116600012Y-72604539D01*
X116600012Y-72604556D01*
X116600111Y-72605057D01*
X116591979Y-73187443D01*
X116591865Y-73187944D01*
X116591865Y-73187962D01*
X116479018Y-73684659D01*
X116271628Y-74150465D01*
X115977713Y-74567116D01*
X115608469Y-74918742D01*
X115177953Y-75191956D01*
X114702579Y-75376341D01*
X114200434Y-75464883D01*
X113690655Y-75454205D01*
X113192668Y-75344715D01*
X112725428Y-75140583D01*
X112306733Y-74849583D01*
X111952534Y-74482798D01*
X111676325Y-74054207D01*
X111488624Y-73580129D01*
X111396580Y-73078616D01*
X111403698Y-72568776D01*
X111509710Y-72070034D01*
X111710576Y-71601379D01*
X111998646Y-71180663D01*
X112362947Y-70823914D01*
X112789599Y-70544720D01*
X113262357Y-70353714D01*
X113763219Y-70258169D01*
X114273090Y-70261729D01*
X114273090Y-70261729D01*
G37*
G36*
X127710000Y-74520000D02*
X126410000Y-74520000D01*
X126410000Y-73220000D01*
X127710000Y-73220000D01*
X127710000Y-74520000D01*
X127710000Y-74520000D01*
G37*
G36*
X120820000Y-73530000D02*
X119520000Y-73530000D01*
X119520000Y-72230000D01*
X120820000Y-72230000D01*
X120820000Y-73530000D01*
X120820000Y-73530000D01*
G37*
G36*
X156360000Y-73355000D02*
X155160000Y-73355000D01*
X155160000Y-72405000D01*
X156360000Y-72405000D01*
X156360000Y-73355000D01*
X156360000Y-73355000D01*
G37*
G36*
X158060000Y-73355000D02*
X156860000Y-73355000D01*
X156860000Y-72405000D01*
X158060000Y-72405000D01*
X158060000Y-73355000D01*
X158060000Y-73355000D01*
G37*
G36*
X127710000Y-71720000D02*
X126410000Y-71720000D01*
X126410000Y-70420000D01*
X127710000Y-70420000D01*
X127710000Y-71720000D01*
X127710000Y-71720000D01*
G37*
G36*
X189683090Y-66181729D02*
X190182559Y-66284255D01*
X190652610Y-66481846D01*
X191075321Y-66766968D01*
X191434610Y-67128773D01*
X191716774Y-67553465D01*
X191911076Y-68024878D01*
X192010012Y-68524539D01*
X192010012Y-68524556D01*
X192010111Y-68525057D01*
X192001979Y-69107443D01*
X192001865Y-69107944D01*
X192001865Y-69107962D01*
X191889018Y-69604659D01*
X191681628Y-70070465D01*
X191387713Y-70487116D01*
X191018469Y-70838742D01*
X190587953Y-71111956D01*
X190112579Y-71296341D01*
X189610434Y-71384883D01*
X189100655Y-71374205D01*
X188602668Y-71264715D01*
X188135428Y-71060583D01*
X187716733Y-70769583D01*
X187362534Y-70402798D01*
X187086325Y-69974207D01*
X186898624Y-69500129D01*
X186806580Y-68998616D01*
X186813698Y-68488776D01*
X186919710Y-67990034D01*
X187120576Y-67521379D01*
X187408646Y-67100663D01*
X187772947Y-66743914D01*
X188199599Y-66464720D01*
X188672357Y-66273714D01*
X189173219Y-66178169D01*
X189683090Y-66181729D01*
X189683090Y-66181729D01*
G37*
G36*
X120820000Y-70730000D02*
X119520000Y-70730000D01*
X119520000Y-69430000D01*
X120820000Y-69430000D01*
X120820000Y-70730000D01*
X120820000Y-70730000D01*
G37*
G36*
X159530950Y-67394795D02*
X159530971Y-67394801D01*
X159531024Y-67394807D01*
X159708140Y-67449633D01*
X159871233Y-67537817D01*
X160014092Y-67656001D01*
X160131275Y-67799681D01*
X160218319Y-67963386D01*
X160271907Y-68140880D01*
X160290000Y-68325403D01*
X160290000Y-68334722D01*
X160289930Y-68344811D01*
X160289928Y-68344826D01*
X160289907Y-68347861D01*
X160269240Y-68532113D01*
X160213179Y-68708842D01*
X160123858Y-68871316D01*
X160004680Y-69013346D01*
X159860185Y-69129523D01*
X159695876Y-69215422D01*
X159518012Y-69267770D01*
X159517958Y-69267775D01*
X159517941Y-69267780D01*
X159333370Y-69284577D01*
X159149050Y-69265205D01*
X159149029Y-69265199D01*
X159148976Y-69265193D01*
X158971860Y-69210367D01*
X158808767Y-69122183D01*
X158665908Y-69003999D01*
X158548725Y-68860319D01*
X158461681Y-68696614D01*
X158408093Y-68519120D01*
X158390000Y-68334597D01*
X158390000Y-68325278D01*
X158390070Y-68315189D01*
X158390072Y-68315174D01*
X158390093Y-68312139D01*
X158410760Y-68127887D01*
X158466821Y-67951158D01*
X158556142Y-67788684D01*
X158675320Y-67646654D01*
X158819815Y-67530477D01*
X158984124Y-67444578D01*
X159161988Y-67392230D01*
X159162042Y-67392225D01*
X159162059Y-67392220D01*
X159346630Y-67375423D01*
X159530950Y-67394795D01*
X159530950Y-67394795D01*
G37*
G36*
X156990950Y-67394795D02*
X156990971Y-67394801D01*
X156991024Y-67394807D01*
X157168140Y-67449633D01*
X157331233Y-67537817D01*
X157474092Y-67656001D01*
X157591275Y-67799681D01*
X157678319Y-67963386D01*
X157731907Y-68140880D01*
X157750000Y-68325403D01*
X157750000Y-68334722D01*
X157749930Y-68344811D01*
X157749928Y-68344826D01*
X157749907Y-68347861D01*
X157729240Y-68532113D01*
X157673179Y-68708842D01*
X157583858Y-68871316D01*
X157464680Y-69013346D01*
X157320185Y-69129523D01*
X157155876Y-69215422D01*
X156978012Y-69267770D01*
X156977958Y-69267775D01*
X156977941Y-69267780D01*
X156793370Y-69284577D01*
X156609050Y-69265205D01*
X156609029Y-69265199D01*
X156608976Y-69265193D01*
X156431860Y-69210367D01*
X156268767Y-69122183D01*
X156125908Y-69003999D01*
X156008725Y-68860319D01*
X155921681Y-68696614D01*
X155868093Y-68519120D01*
X155850000Y-68334597D01*
X155850000Y-68325278D01*
X155850070Y-68315189D01*
X155850072Y-68315174D01*
X155850093Y-68312139D01*
X155870760Y-68127887D01*
X155926821Y-67951158D01*
X156016142Y-67788684D01*
X156135320Y-67646654D01*
X156279815Y-67530477D01*
X156444124Y-67444578D01*
X156621988Y-67392230D01*
X156622042Y-67392225D01*
X156622059Y-67392220D01*
X156806630Y-67375423D01*
X156990950Y-67394795D01*
X156990950Y-67394795D01*
G37*
G36*
X154450950Y-67394795D02*
X154450971Y-67394801D01*
X154451024Y-67394807D01*
X154628140Y-67449633D01*
X154791233Y-67537817D01*
X154934092Y-67656001D01*
X155051275Y-67799681D01*
X155138319Y-67963386D01*
X155191907Y-68140880D01*
X155210000Y-68325403D01*
X155210000Y-68334722D01*
X155209930Y-68344811D01*
X155209928Y-68344826D01*
X155209907Y-68347861D01*
X155189240Y-68532113D01*
X155133179Y-68708842D01*
X155043858Y-68871316D01*
X154924680Y-69013346D01*
X154780185Y-69129523D01*
X154615876Y-69215422D01*
X154438012Y-69267770D01*
X154437958Y-69267775D01*
X154437941Y-69267780D01*
X154253370Y-69284577D01*
X154069050Y-69265205D01*
X154069029Y-69265199D01*
X154068976Y-69265193D01*
X153891860Y-69210367D01*
X153728767Y-69122183D01*
X153585908Y-69003999D01*
X153468725Y-68860319D01*
X153381681Y-68696614D01*
X153328093Y-68519120D01*
X153310000Y-68334597D01*
X153310000Y-68325278D01*
X153310070Y-68315189D01*
X153310072Y-68315174D01*
X153310093Y-68312139D01*
X153330760Y-68127887D01*
X153386821Y-67951158D01*
X153476142Y-67788684D01*
X153595320Y-67646654D01*
X153739815Y-67530477D01*
X153904124Y-67444578D01*
X154081988Y-67392230D01*
X154082042Y-67392225D01*
X154082059Y-67392220D01*
X154266630Y-67375423D01*
X154450950Y-67394795D01*
X154450950Y-67394795D01*
G37*
G36*
X151910950Y-67394795D02*
X151910971Y-67394801D01*
X151911024Y-67394807D01*
X152088140Y-67449633D01*
X152251233Y-67537817D01*
X152394092Y-67656001D01*
X152511275Y-67799681D01*
X152598319Y-67963386D01*
X152651907Y-68140880D01*
X152670000Y-68325403D01*
X152670000Y-68334722D01*
X152669930Y-68344811D01*
X152669928Y-68344826D01*
X152669907Y-68347861D01*
X152649240Y-68532113D01*
X152593179Y-68708842D01*
X152503858Y-68871316D01*
X152384680Y-69013346D01*
X152240185Y-69129523D01*
X152075876Y-69215422D01*
X151898012Y-69267770D01*
X151897958Y-69267775D01*
X151897941Y-69267780D01*
X151713370Y-69284577D01*
X151529050Y-69265205D01*
X151529029Y-69265199D01*
X151528976Y-69265193D01*
X151351860Y-69210367D01*
X151188767Y-69122183D01*
X151045908Y-69003999D01*
X150928725Y-68860319D01*
X150841681Y-68696614D01*
X150788093Y-68519120D01*
X150770000Y-68334597D01*
X150770000Y-68325278D01*
X150770070Y-68315189D01*
X150770072Y-68315174D01*
X150770093Y-68312139D01*
X150790760Y-68127887D01*
X150846821Y-67951158D01*
X150936142Y-67788684D01*
X151055320Y-67646654D01*
X151199815Y-67530477D01*
X151364124Y-67444578D01*
X151541988Y-67392230D01*
X151542042Y-67392225D01*
X151542059Y-67392220D01*
X151726630Y-67375423D01*
X151910950Y-67394795D01*
X151910950Y-67394795D01*
G37*
G36*
X149370950Y-67394795D02*
X149370971Y-67394801D01*
X149371024Y-67394807D01*
X149548140Y-67449633D01*
X149711233Y-67537817D01*
X149854092Y-67656001D01*
X149971275Y-67799681D01*
X150058319Y-67963386D01*
X150111907Y-68140880D01*
X150130000Y-68325403D01*
X150130000Y-68334722D01*
X150129930Y-68344811D01*
X150129928Y-68344826D01*
X150129907Y-68347861D01*
X150109240Y-68532113D01*
X150053179Y-68708842D01*
X149963858Y-68871316D01*
X149844680Y-69013346D01*
X149700185Y-69129523D01*
X149535876Y-69215422D01*
X149358012Y-69267770D01*
X149357958Y-69267775D01*
X149357941Y-69267780D01*
X149173370Y-69284577D01*
X148989050Y-69265205D01*
X148989029Y-69265199D01*
X148988976Y-69265193D01*
X148811860Y-69210367D01*
X148648767Y-69122183D01*
X148505908Y-69003999D01*
X148388725Y-68860319D01*
X148301681Y-68696614D01*
X148248093Y-68519120D01*
X148230000Y-68334597D01*
X148230000Y-68325278D01*
X148230070Y-68315189D01*
X148230072Y-68315174D01*
X148230093Y-68312139D01*
X148250760Y-68127887D01*
X148306821Y-67951158D01*
X148396142Y-67788684D01*
X148515320Y-67646654D01*
X148659815Y-67530477D01*
X148824124Y-67444578D01*
X149001988Y-67392230D01*
X149002042Y-67392225D01*
X149002059Y-67392220D01*
X149186630Y-67375423D01*
X149370950Y-67394795D01*
X149370950Y-67394795D01*
G37*
G36*
X146830950Y-67394795D02*
X146830971Y-67394801D01*
X146831024Y-67394807D01*
X147008140Y-67449633D01*
X147171233Y-67537817D01*
X147314092Y-67656001D01*
X147431275Y-67799681D01*
X147518319Y-67963386D01*
X147571907Y-68140880D01*
X147590000Y-68325403D01*
X147590000Y-68334722D01*
X147589930Y-68344811D01*
X147589928Y-68344826D01*
X147589907Y-68347861D01*
X147569240Y-68532113D01*
X147513179Y-68708842D01*
X147423858Y-68871316D01*
X147304680Y-69013346D01*
X147160185Y-69129523D01*
X146995876Y-69215422D01*
X146818012Y-69267770D01*
X146817958Y-69267775D01*
X146817941Y-69267780D01*
X146633370Y-69284577D01*
X146449050Y-69265205D01*
X146449029Y-69265199D01*
X146448976Y-69265193D01*
X146271860Y-69210367D01*
X146108767Y-69122183D01*
X145965908Y-69003999D01*
X145848725Y-68860319D01*
X145761681Y-68696614D01*
X145708093Y-68519120D01*
X145690000Y-68334597D01*
X145690000Y-68325278D01*
X145690070Y-68315189D01*
X145690072Y-68315174D01*
X145690093Y-68312139D01*
X145710760Y-68127887D01*
X145766821Y-67951158D01*
X145856142Y-67788684D01*
X145975320Y-67646654D01*
X146119815Y-67530477D01*
X146284124Y-67444578D01*
X146461988Y-67392230D01*
X146462042Y-67392225D01*
X146462059Y-67392220D01*
X146646630Y-67375423D01*
X146830950Y-67394795D01*
X146830950Y-67394795D01*
G37*
G36*
X144290950Y-67394795D02*
X144290971Y-67394801D01*
X144291024Y-67394807D01*
X144468140Y-67449633D01*
X144631233Y-67537817D01*
X144774092Y-67656001D01*
X144891275Y-67799681D01*
X144978319Y-67963386D01*
X145031907Y-68140880D01*
X145050000Y-68325403D01*
X145050000Y-68334722D01*
X145049930Y-68344811D01*
X145049928Y-68344826D01*
X145049907Y-68347861D01*
X145029240Y-68532113D01*
X144973179Y-68708842D01*
X144883858Y-68871316D01*
X144764680Y-69013346D01*
X144620185Y-69129523D01*
X144455876Y-69215422D01*
X144278012Y-69267770D01*
X144277958Y-69267775D01*
X144277941Y-69267780D01*
X144093370Y-69284577D01*
X143909050Y-69265205D01*
X143909029Y-69265199D01*
X143908976Y-69265193D01*
X143731860Y-69210367D01*
X143568767Y-69122183D01*
X143425908Y-69003999D01*
X143308725Y-68860319D01*
X143221681Y-68696614D01*
X143168093Y-68519120D01*
X143150000Y-68334597D01*
X143150000Y-68325278D01*
X143150070Y-68315189D01*
X143150072Y-68315174D01*
X143150093Y-68312139D01*
X143170760Y-68127887D01*
X143226821Y-67951158D01*
X143316142Y-67788684D01*
X143435320Y-67646654D01*
X143579815Y-67530477D01*
X143744124Y-67444578D01*
X143921988Y-67392230D01*
X143922042Y-67392225D01*
X143922059Y-67392220D01*
X144106630Y-67375423D01*
X144290950Y-67394795D01*
X144290950Y-67394795D01*
G37*
G36*
X141750950Y-67394795D02*
X141750971Y-67394801D01*
X141751024Y-67394807D01*
X141928140Y-67449633D01*
X142091233Y-67537817D01*
X142234092Y-67656001D01*
X142351275Y-67799681D01*
X142438319Y-67963386D01*
X142491907Y-68140880D01*
X142510000Y-68325403D01*
X142510000Y-68334722D01*
X142509930Y-68344811D01*
X142509928Y-68344826D01*
X142509907Y-68347861D01*
X142489240Y-68532113D01*
X142433179Y-68708842D01*
X142343858Y-68871316D01*
X142224680Y-69013346D01*
X142080185Y-69129523D01*
X141915876Y-69215422D01*
X141738012Y-69267770D01*
X141737958Y-69267775D01*
X141737941Y-69267780D01*
X141553370Y-69284577D01*
X141369050Y-69265205D01*
X141369029Y-69265199D01*
X141368976Y-69265193D01*
X141191860Y-69210367D01*
X141028767Y-69122183D01*
X140885908Y-69003999D01*
X140768725Y-68860319D01*
X140681681Y-68696614D01*
X140628093Y-68519120D01*
X140610000Y-68334597D01*
X140610000Y-68325278D01*
X140610070Y-68315189D01*
X140610072Y-68315174D01*
X140610093Y-68312139D01*
X140630760Y-68127887D01*
X140686821Y-67951158D01*
X140776142Y-67788684D01*
X140895320Y-67646654D01*
X141039815Y-67530477D01*
X141204124Y-67444578D01*
X141381988Y-67392230D01*
X141382042Y-67392225D01*
X141382059Y-67392220D01*
X141566630Y-67375423D01*
X141750950Y-67394795D01*
X141750950Y-67394795D01*
G37*
G36*
X139210950Y-67394795D02*
X139210971Y-67394801D01*
X139211024Y-67394807D01*
X139388140Y-67449633D01*
X139551233Y-67537817D01*
X139694092Y-67656001D01*
X139811275Y-67799681D01*
X139898319Y-67963386D01*
X139951907Y-68140880D01*
X139970000Y-68325403D01*
X139970000Y-68334722D01*
X139969930Y-68344811D01*
X139969928Y-68344826D01*
X139969907Y-68347861D01*
X139949240Y-68532113D01*
X139893179Y-68708842D01*
X139803858Y-68871316D01*
X139684680Y-69013346D01*
X139540185Y-69129523D01*
X139375876Y-69215422D01*
X139198012Y-69267770D01*
X139197958Y-69267775D01*
X139197941Y-69267780D01*
X139013370Y-69284577D01*
X138829050Y-69265205D01*
X138829029Y-69265199D01*
X138828976Y-69265193D01*
X138651860Y-69210367D01*
X138488767Y-69122183D01*
X138345908Y-69003999D01*
X138228725Y-68860319D01*
X138141681Y-68696614D01*
X138088093Y-68519120D01*
X138070000Y-68334597D01*
X138070000Y-68325278D01*
X138070070Y-68315189D01*
X138070072Y-68315174D01*
X138070093Y-68312139D01*
X138090760Y-68127887D01*
X138146821Y-67951158D01*
X138236142Y-67788684D01*
X138355320Y-67646654D01*
X138499815Y-67530477D01*
X138664124Y-67444578D01*
X138841988Y-67392230D01*
X138842042Y-67392225D01*
X138842059Y-67392220D01*
X139026630Y-67375423D01*
X139210950Y-67394795D01*
X139210950Y-67394795D01*
G37*
G36*
X137430000Y-69280000D02*
X135530000Y-69280000D01*
X135530000Y-67380000D01*
X137430000Y-67380000D01*
X137430000Y-69280000D01*
X137430000Y-69280000D01*
G37*
M02*
