M48
;DRILL file {KiCad 4.0.7} date 05/28/18 23:31:20
;FORMAT={-:-/ absolute / metric / decimal}
FMAT,2
METRIC,TZ
T1C0.300
T2C1.000
T3C1.016
T4C3.200
%
G90
G05
M71
T1
X118.23Y-112.64
X118.54Y-104.55
X119.09Y-97.25
X120.15Y-75.
X120.54Y-67.97
X121.8Y-80.47
X127.19Y-100.2
X127.54Y-108.57
X128.2Y-77.42
X128.48Y-70.25
X128.5Y-73.71
X128.6Y-111.53
X128.61Y-96.88
X128.67Y-86.69
X129.14Y-116.74
X129.6Y-89.67
X129.66Y-81.04
X130.15Y-104.02
X134.4Y-112.34
X137.42Y-108.12
X138.1Y-78.62
X139.36Y-110.6
X140.62Y-109.59
X143.07Y-95.79
X144.76Y-76.85
X145.02Y-93.1
X145.05Y-107.37
X145.23Y-119.04
X145.54Y-100.28
X145.58Y-90.38
X145.84Y-84.6
X145.88Y-87.68
X146.6Y-104.21
X146.63Y-109.21
X147.12Y-76.77
X147.31Y-100.31
X147.91Y-98.77
X148.51Y-100.25
X148.78Y-75.74
X148.8Y-82.92
X149.21Y-109.21
X149.24Y-97.34
X149.3Y-107.55
X149.37Y-104.55
X149.93Y-84.55
X150.1Y-110.47
X150.77Y-99.69
X151.15Y-89.05
X151.15Y-90.35
X151.15Y-91.65
X151.15Y-92.95
X151.15Y-94.25
X151.15Y-95.55
X151.17Y-84.52
X151.3Y-74.31
X151.52Y-77.2
X151.67Y-72.58
X151.97Y-84.55
X152.14Y-107.63
X152.2Y-112.54
X152.37Y-104.37
X152.38Y-111.43
X152.45Y-89.05
X152.45Y-90.35
X152.45Y-91.65
X152.45Y-92.95
X152.45Y-94.25
X152.45Y-95.55
X153.75Y-89.05
X153.75Y-90.35
X153.75Y-91.65
X153.75Y-92.95
X153.75Y-94.25
X153.75Y-95.55
X154.26Y-76.79
X154.45Y-110.53
X154.47Y-80.31
X154.83Y-72.21
X154.87Y-112.9
X155.05Y-89.05
X155.05Y-90.35
X155.05Y-91.65
X155.05Y-92.95
X155.05Y-94.25
X155.05Y-95.55
X155.72Y-74.38
X155.82Y-101.72
X156.35Y-89.05
X156.35Y-90.35
X156.35Y-91.65
X156.35Y-92.95
X156.35Y-94.25
X156.35Y-95.55
X156.43Y-76.84
X156.69Y-104.21
X156.95Y-110.41
X157.03Y-114.2
X157.54Y-74.41
X157.65Y-89.05
X157.65Y-90.35
X157.65Y-91.65
X157.65Y-92.95
X157.65Y-94.25
X157.65Y-95.55
X159.42Y-108.54
X160.17Y-74.43
X160.2Y-105.87
X160.42Y-103.65
X160.49Y-73.05
X160.94Y-110.78
X161.15Y-105.88
X161.36Y-103.66
X162.12Y-96.16
X162.59Y-69.49
X163.21Y-101.91
X163.34Y-108.98
X163.38Y-89.54
X163.4Y-88.21
X163.52Y-77.05
X163.52Y-117.44
X164.23Y-79.85
X164.34Y-111.5
X165.37Y-105.79
X166.06Y-74.65
X166.89Y-86.57
X167.07Y-97.32
X167.4Y-114.92
X167.48Y-74.56
X167.94Y-99.4
X168.45Y-71.08
X168.49Y-106.18
X168.84Y-98.25
X169.97Y-86.32
X171.24Y-114.02
X178.1Y-90.97
X178.25Y-85.87
X180.12Y-103.79
X181.11Y-80.53
X187.68Y-107.27
T2
X136.48Y-68.33
X136.48Y-116.33
X139.02Y-68.33
X139.02Y-116.33
X141.56Y-68.33
X141.56Y-116.33
X144.1Y-68.33
X144.1Y-116.33
X146.64Y-68.33
X146.64Y-116.33
X149.18Y-68.33
X149.18Y-116.33
X151.72Y-68.33
X151.72Y-116.33
X154.26Y-68.33
X154.26Y-116.33
X156.8Y-68.33
X156.8Y-116.33
X159.34Y-68.33
X159.34Y-116.33
X166.78Y-81.81
X169.32Y-81.81
X169.74Y-103.15
X189.6Y-83.65
X189.6Y-86.19
X189.6Y-88.73
X189.6Y-91.27
X189.6Y-93.81
X189.6Y-96.35
X189.6Y-98.89
X189.6Y-101.43
T3
X106.56Y-105.54
X106.56Y-108.08
X106.56Y-110.62
X106.56Y-113.16
X106.56Y-115.7
X109.1Y-105.54
X109.1Y-108.08
X109.1Y-110.62
X109.1Y-113.16
X109.1Y-115.7
T4
X114.Y-72.86
X114.Y-111.8
X189.41Y-68.78
X189.41Y-115.88
T0
M30
